%TF.GenerationSoftware,KiCad,Pcbnew,5.1.6-c6e7f7d~87~ubuntu18.04.1*%
%TF.CreationDate,2020-08-21T18:13:35-04:00*%
%TF.ProjectId,tutorial2,7475746f-7269-4616-9c32-2e6b69636164,rev?*%
%TF.SameCoordinates,Original*%
%TF.FileFunction,Paste,Top*%
%TF.FilePolarity,Positive*%
%FSLAX46Y46*%
G04 Gerber Fmt 4.6, Leading zero omitted, Abs format (unit mm)*
G04 Created by KiCad (PCBNEW 5.1.6-c6e7f7d~87~ubuntu18.04.1) date 2020-08-21 18:13:35*
%MOMM*%
%LPD*%
G01*
G04 APERTURE LIST*
%ADD10R,0.900000X1.700000*%
%ADD11R,0.800000X1.100000*%
G04 APERTURE END LIST*
D10*
%TO.C,Q1*%
X120400000Y-39605000D03*
X123800000Y-39605000D03*
D11*
X122100000Y-41245000D03*
%TD*%
%TO.C,Q2*%
X121450000Y-55220000D03*
D10*
X123150000Y-53580000D03*
X119750000Y-53580000D03*
%TD*%
%TO.C,Q3*%
X139600000Y-39330000D03*
X143000000Y-39330000D03*
D11*
X141300000Y-40970000D03*
%TD*%
%TO.C,Q4*%
X140900000Y-55095000D03*
D10*
X142600000Y-53455000D03*
X139200000Y-53455000D03*
%TD*%
%TO.C,Q5*%
X157875000Y-46530000D03*
X161275000Y-46530000D03*
D11*
X159575000Y-48170000D03*
%TD*%
%TO.C,R1*%
G36*
G01*
X90587500Y-48524999D02*
X90587500Y-44575001D01*
G75*
G02*
X90837501Y-44325000I250001J0D01*
G01*
X93362499Y-44325000D01*
G75*
G02*
X93612500Y-44575001I0J-250001D01*
G01*
X93612500Y-48524999D01*
G75*
G02*
X93362499Y-48775000I-250001J0D01*
G01*
X90837501Y-48775000D01*
G75*
G02*
X90587500Y-48524999I0J250001D01*
G01*
G37*
G36*
G01*
X95612500Y-48524999D02*
X95612500Y-44575001D01*
G75*
G02*
X95862501Y-44325000I250001J0D01*
G01*
X98387499Y-44325000D01*
G75*
G02*
X98637500Y-44575001I0J-250001D01*
G01*
X98637500Y-48524999D01*
G75*
G02*
X98387499Y-48775000I-250001J0D01*
G01*
X95862501Y-48775000D01*
G75*
G02*
X95612500Y-48524999I0J250001D01*
G01*
G37*
%TD*%
%TO.C,R2*%
G36*
G01*
X95337500Y-69274999D02*
X95337500Y-65325001D01*
G75*
G02*
X95587501Y-65075000I250001J0D01*
G01*
X98112499Y-65075000D01*
G75*
G02*
X98362500Y-65325001I0J-250001D01*
G01*
X98362500Y-69274999D01*
G75*
G02*
X98112499Y-69525000I-250001J0D01*
G01*
X95587501Y-69525000D01*
G75*
G02*
X95337500Y-69274999I0J250001D01*
G01*
G37*
G36*
G01*
X90312500Y-69274999D02*
X90312500Y-65325001D01*
G75*
G02*
X90562501Y-65075000I250001J0D01*
G01*
X93087499Y-65075000D01*
G75*
G02*
X93337500Y-65325001I0J-250001D01*
G01*
X93337500Y-69274999D01*
G75*
G02*
X93087499Y-69525000I-250001J0D01*
G01*
X90562501Y-69525000D01*
G75*
G02*
X90312500Y-69274999I0J250001D01*
G01*
G37*
%TD*%
%TO.C,R3*%
G36*
G01*
X107388000Y-41074999D02*
X107388000Y-37125001D01*
G75*
G02*
X107638001Y-36875000I250001J0D01*
G01*
X110162999Y-36875000D01*
G75*
G02*
X110413000Y-37125001I0J-250001D01*
G01*
X110413000Y-41074999D01*
G75*
G02*
X110162999Y-41325000I-250001J0D01*
G01*
X107638001Y-41325000D01*
G75*
G02*
X107388000Y-41074999I0J250001D01*
G01*
G37*
G36*
G01*
X102363000Y-41074999D02*
X102363000Y-37125001D01*
G75*
G02*
X102613001Y-36875000I250001J0D01*
G01*
X105137999Y-36875000D01*
G75*
G02*
X105388000Y-37125001I0J-250001D01*
G01*
X105388000Y-41074999D01*
G75*
G02*
X105137999Y-41325000I-250001J0D01*
G01*
X102613001Y-41325000D01*
G75*
G02*
X102363000Y-41074999I0J250001D01*
G01*
G37*
%TD*%
%TO.C,R4*%
G36*
G01*
X112337000Y-33374999D02*
X112337000Y-29425001D01*
G75*
G02*
X112587001Y-29175000I250001J0D01*
G01*
X115111999Y-29175000D01*
G75*
G02*
X115362000Y-29425001I0J-250001D01*
G01*
X115362000Y-33374999D01*
G75*
G02*
X115111999Y-33625000I-250001J0D01*
G01*
X112587001Y-33625000D01*
G75*
G02*
X112337000Y-33374999I0J250001D01*
G01*
G37*
G36*
G01*
X117362000Y-33374999D02*
X117362000Y-29425001D01*
G75*
G02*
X117612001Y-29175000I250001J0D01*
G01*
X120136999Y-29175000D01*
G75*
G02*
X120387000Y-29425001I0J-250001D01*
G01*
X120387000Y-33374999D01*
G75*
G02*
X120136999Y-33625000I-250001J0D01*
G01*
X117612001Y-33625000D01*
G75*
G02*
X117362000Y-33374999I0J250001D01*
G01*
G37*
%TD*%
%TO.C,R5*%
G36*
G01*
X99875000Y-61924999D02*
X99875000Y-57975001D01*
G75*
G02*
X100125001Y-57725000I250001J0D01*
G01*
X102649999Y-57725000D01*
G75*
G02*
X102900000Y-57975001I0J-250001D01*
G01*
X102900000Y-61924999D01*
G75*
G02*
X102649999Y-62175000I-250001J0D01*
G01*
X100125001Y-62175000D01*
G75*
G02*
X99875000Y-61924999I0J250001D01*
G01*
G37*
G36*
G01*
X104900000Y-61924999D02*
X104900000Y-57975001D01*
G75*
G02*
X105150001Y-57725000I250001J0D01*
G01*
X107674999Y-57725000D01*
G75*
G02*
X107925000Y-57975001I0J-250001D01*
G01*
X107925000Y-61924999D01*
G75*
G02*
X107674999Y-62175000I-250001J0D01*
G01*
X105150001Y-62175000D01*
G75*
G02*
X104900000Y-61924999I0J250001D01*
G01*
G37*
%TD*%
%TO.C,R6*%
G36*
G01*
X111012000Y-54074999D02*
X111012000Y-50125001D01*
G75*
G02*
X111262001Y-49875000I250001J0D01*
G01*
X113786999Y-49875000D01*
G75*
G02*
X114037000Y-50125001I0J-250001D01*
G01*
X114037000Y-54074999D01*
G75*
G02*
X113786999Y-54325000I-250001J0D01*
G01*
X111262001Y-54325000D01*
G75*
G02*
X111012000Y-54074999I0J250001D01*
G01*
G37*
G36*
G01*
X105987000Y-54074999D02*
X105987000Y-50125001D01*
G75*
G02*
X106237001Y-49875000I250001J0D01*
G01*
X108761999Y-49875000D01*
G75*
G02*
X109012000Y-50125001I0J-250001D01*
G01*
X109012000Y-54074999D01*
G75*
G02*
X108761999Y-54325000I-250001J0D01*
G01*
X106237001Y-54325000D01*
G75*
G02*
X105987000Y-54074999I0J250001D01*
G01*
G37*
%TD*%
%TO.C,R7*%
G36*
G01*
X127913000Y-38724999D02*
X127913000Y-34775001D01*
G75*
G02*
X128163001Y-34525000I250001J0D01*
G01*
X130687999Y-34525000D01*
G75*
G02*
X130938000Y-34775001I0J-250001D01*
G01*
X130938000Y-38724999D01*
G75*
G02*
X130687999Y-38975000I-250001J0D01*
G01*
X128163001Y-38975000D01*
G75*
G02*
X127913000Y-38724999I0J250001D01*
G01*
G37*
G36*
G01*
X132938000Y-38724999D02*
X132938000Y-34775001D01*
G75*
G02*
X133188001Y-34525000I250001J0D01*
G01*
X135712999Y-34525000D01*
G75*
G02*
X135963000Y-34775001I0J-250001D01*
G01*
X135963000Y-38724999D01*
G75*
G02*
X135712999Y-38975000I-250001J0D01*
G01*
X133188001Y-38975000D01*
G75*
G02*
X132938000Y-38724999I0J250001D01*
G01*
G37*
%TD*%
%TO.C,R8*%
G36*
G01*
X131538000Y-49224999D02*
X131538000Y-45275001D01*
G75*
G02*
X131788001Y-45025000I250001J0D01*
G01*
X134312999Y-45025000D01*
G75*
G02*
X134563000Y-45275001I0J-250001D01*
G01*
X134563000Y-49224999D01*
G75*
G02*
X134312999Y-49475000I-250001J0D01*
G01*
X131788001Y-49475000D01*
G75*
G02*
X131538000Y-49224999I0J250001D01*
G01*
G37*
G36*
G01*
X126513000Y-49224999D02*
X126513000Y-45275001D01*
G75*
G02*
X126763001Y-45025000I250001J0D01*
G01*
X129287999Y-45025000D01*
G75*
G02*
X129538000Y-45275001I0J-250001D01*
G01*
X129538000Y-49224999D01*
G75*
G02*
X129287999Y-49475000I-250001J0D01*
G01*
X126763001Y-49475000D01*
G75*
G02*
X126513000Y-49224999I0J250001D01*
G01*
G37*
%TD*%
%TO.C,R9*%
G36*
G01*
X133862000Y-26799999D02*
X133862000Y-22850001D01*
G75*
G02*
X134112001Y-22600000I250001J0D01*
G01*
X136636999Y-22600000D01*
G75*
G02*
X136887000Y-22850001I0J-250001D01*
G01*
X136887000Y-26799999D01*
G75*
G02*
X136636999Y-27050000I-250001J0D01*
G01*
X134112001Y-27050000D01*
G75*
G02*
X133862000Y-26799999I0J250001D01*
G01*
G37*
G36*
G01*
X128837000Y-26799999D02*
X128837000Y-22850001D01*
G75*
G02*
X129087001Y-22600000I250001J0D01*
G01*
X131611999Y-22600000D01*
G75*
G02*
X131862000Y-22850001I0J-250001D01*
G01*
X131862000Y-26799999D01*
G75*
G02*
X131611999Y-27050000I-250001J0D01*
G01*
X129087001Y-27050000D01*
G75*
G02*
X128837000Y-26799999I0J250001D01*
G01*
G37*
%TD*%
%TO.C,R10*%
G36*
G01*
X117512000Y-71599999D02*
X117512000Y-67650001D01*
G75*
G02*
X117762001Y-67400000I250001J0D01*
G01*
X120286999Y-67400000D01*
G75*
G02*
X120537000Y-67650001I0J-250001D01*
G01*
X120537000Y-71599999D01*
G75*
G02*
X120286999Y-71850000I-250001J0D01*
G01*
X117762001Y-71850000D01*
G75*
G02*
X117512000Y-71599999I0J250001D01*
G01*
G37*
G36*
G01*
X112487000Y-71599999D02*
X112487000Y-67650001D01*
G75*
G02*
X112737001Y-67400000I250001J0D01*
G01*
X115261999Y-67400000D01*
G75*
G02*
X115512000Y-67650001I0J-250001D01*
G01*
X115512000Y-71599999D01*
G75*
G02*
X115261999Y-71850000I-250001J0D01*
G01*
X112737001Y-71850000D01*
G75*
G02*
X112487000Y-71599999I0J250001D01*
G01*
G37*
%TD*%
%TO.C,R11*%
G36*
G01*
X127237000Y-78649999D02*
X127237000Y-74700001D01*
G75*
G02*
X127487001Y-74450000I250001J0D01*
G01*
X130011999Y-74450000D01*
G75*
G02*
X130262000Y-74700001I0J-250001D01*
G01*
X130262000Y-78649999D01*
G75*
G02*
X130011999Y-78900000I-250001J0D01*
G01*
X127487001Y-78900000D01*
G75*
G02*
X127237000Y-78649999I0J250001D01*
G01*
G37*
G36*
G01*
X132262000Y-78649999D02*
X132262000Y-74700001D01*
G75*
G02*
X132512001Y-74450000I250001J0D01*
G01*
X135036999Y-74450000D01*
G75*
G02*
X135287000Y-74700001I0J-250001D01*
G01*
X135287000Y-78649999D01*
G75*
G02*
X135036999Y-78900000I-250001J0D01*
G01*
X132512001Y-78900000D01*
G75*
G02*
X132262000Y-78649999I0J250001D01*
G01*
G37*
%TD*%
%TO.C,R12*%
G36*
G01*
X126463000Y-62899999D02*
X126463000Y-58950001D01*
G75*
G02*
X126713001Y-58700000I250001J0D01*
G01*
X129237999Y-58700000D01*
G75*
G02*
X129488000Y-58950001I0J-250001D01*
G01*
X129488000Y-62899999D01*
G75*
G02*
X129237999Y-63150000I-250001J0D01*
G01*
X126713001Y-63150000D01*
G75*
G02*
X126463000Y-62899999I0J250001D01*
G01*
G37*
G36*
G01*
X131488000Y-62899999D02*
X131488000Y-58950001D01*
G75*
G02*
X131738001Y-58700000I250001J0D01*
G01*
X134262999Y-58700000D01*
G75*
G02*
X134513000Y-58950001I0J-250001D01*
G01*
X134513000Y-62899999D01*
G75*
G02*
X134262999Y-63150000I-250001J0D01*
G01*
X131738001Y-63150000D01*
G75*
G02*
X131488000Y-62899999I0J250001D01*
G01*
G37*
%TD*%
%TO.C,R13*%
G36*
G01*
X194638000Y-53024999D02*
X194638000Y-49075001D01*
G75*
G02*
X194888001Y-48825000I250001J0D01*
G01*
X197412999Y-48825000D01*
G75*
G02*
X197663000Y-49075001I0J-250001D01*
G01*
X197663000Y-53024999D01*
G75*
G02*
X197412999Y-53275000I-250001J0D01*
G01*
X194888001Y-53275000D01*
G75*
G02*
X194638000Y-53024999I0J250001D01*
G01*
G37*
G36*
G01*
X189613000Y-53024999D02*
X189613000Y-49075001D01*
G75*
G02*
X189863001Y-48825000I250001J0D01*
G01*
X192387999Y-48825000D01*
G75*
G02*
X192638000Y-49075001I0J-250001D01*
G01*
X192638000Y-53024999D01*
G75*
G02*
X192387999Y-53275000I-250001J0D01*
G01*
X189863001Y-53275000D01*
G75*
G02*
X189613000Y-53024999I0J250001D01*
G01*
G37*
%TD*%
%TO.C,R14*%
G36*
G01*
X186087000Y-73874999D02*
X186087000Y-69925001D01*
G75*
G02*
X186337001Y-69675000I250001J0D01*
G01*
X188861999Y-69675000D01*
G75*
G02*
X189112000Y-69925001I0J-250001D01*
G01*
X189112000Y-73874999D01*
G75*
G02*
X188861999Y-74125000I-250001J0D01*
G01*
X186337001Y-74125000D01*
G75*
G02*
X186087000Y-73874999I0J250001D01*
G01*
G37*
G36*
G01*
X191112000Y-73874999D02*
X191112000Y-69925001D01*
G75*
G02*
X191362001Y-69675000I250001J0D01*
G01*
X193886999Y-69675000D01*
G75*
G02*
X194137000Y-69925001I0J-250001D01*
G01*
X194137000Y-73874999D01*
G75*
G02*
X193886999Y-74125000I-250001J0D01*
G01*
X191362001Y-74125000D01*
G75*
G02*
X191112000Y-73874999I0J250001D01*
G01*
G37*
%TD*%
%TO.C,R15*%
G36*
G01*
X195662000Y-97424999D02*
X195662000Y-93475001D01*
G75*
G02*
X195912001Y-93225000I250001J0D01*
G01*
X198436999Y-93225000D01*
G75*
G02*
X198687000Y-93475001I0J-250001D01*
G01*
X198687000Y-97424999D01*
G75*
G02*
X198436999Y-97675000I-250001J0D01*
G01*
X195912001Y-97675000D01*
G75*
G02*
X195662000Y-97424999I0J250001D01*
G01*
G37*
G36*
G01*
X190637000Y-97424999D02*
X190637000Y-93475001D01*
G75*
G02*
X190887001Y-93225000I250001J0D01*
G01*
X193411999Y-93225000D01*
G75*
G02*
X193662000Y-93475001I0J-250001D01*
G01*
X193662000Y-97424999D01*
G75*
G02*
X193411999Y-97675000I-250001J0D01*
G01*
X190887001Y-97675000D01*
G75*
G02*
X190637000Y-97424999I0J250001D01*
G01*
G37*
%TD*%
%TO.C,R16*%
G36*
G01*
X191337000Y-112899999D02*
X191337000Y-108950001D01*
G75*
G02*
X191587001Y-108700000I250001J0D01*
G01*
X194111999Y-108700000D01*
G75*
G02*
X194362000Y-108950001I0J-250001D01*
G01*
X194362000Y-112899999D01*
G75*
G02*
X194111999Y-113150000I-250001J0D01*
G01*
X191587001Y-113150000D01*
G75*
G02*
X191337000Y-112899999I0J250001D01*
G01*
G37*
G36*
G01*
X196362000Y-112899999D02*
X196362000Y-108950001D01*
G75*
G02*
X196612001Y-108700000I250001J0D01*
G01*
X199136999Y-108700000D01*
G75*
G02*
X199387000Y-108950001I0J-250001D01*
G01*
X199387000Y-112899999D01*
G75*
G02*
X199136999Y-113150000I-250001J0D01*
G01*
X196612001Y-113150000D01*
G75*
G02*
X196362000Y-112899999I0J250001D01*
G01*
G37*
%TD*%
%TO.C,R17*%
G36*
G01*
X197288000Y-125549999D02*
X197288000Y-121600001D01*
G75*
G02*
X197538001Y-121350000I250001J0D01*
G01*
X200062999Y-121350000D01*
G75*
G02*
X200313000Y-121600001I0J-250001D01*
G01*
X200313000Y-125549999D01*
G75*
G02*
X200062999Y-125800000I-250001J0D01*
G01*
X197538001Y-125800000D01*
G75*
G02*
X197288000Y-125549999I0J250001D01*
G01*
G37*
G36*
G01*
X192263000Y-125549999D02*
X192263000Y-121600001D01*
G75*
G02*
X192513001Y-121350000I250001J0D01*
G01*
X195037999Y-121350000D01*
G75*
G02*
X195288000Y-121600001I0J-250001D01*
G01*
X195288000Y-125549999D01*
G75*
G02*
X195037999Y-125800000I-250001J0D01*
G01*
X192513001Y-125800000D01*
G75*
G02*
X192263000Y-125549999I0J250001D01*
G01*
G37*
%TD*%
%TO.C,R18*%
G36*
G01*
X193425000Y-134524999D02*
X193425000Y-130575001D01*
G75*
G02*
X193675001Y-130325000I250001J0D01*
G01*
X196199999Y-130325000D01*
G75*
G02*
X196450000Y-130575001I0J-250001D01*
G01*
X196450000Y-134524999D01*
G75*
G02*
X196199999Y-134775000I-250001J0D01*
G01*
X193675001Y-134775000D01*
G75*
G02*
X193425000Y-134524999I0J250001D01*
G01*
G37*
G36*
G01*
X198450000Y-134524999D02*
X198450000Y-130575001D01*
G75*
G02*
X198700001Y-130325000I250001J0D01*
G01*
X201224999Y-130325000D01*
G75*
G02*
X201475000Y-130575001I0J-250001D01*
G01*
X201475000Y-134524999D01*
G75*
G02*
X201224999Y-134775000I-250001J0D01*
G01*
X198700001Y-134775000D01*
G75*
G02*
X198450000Y-134524999I0J250001D01*
G01*
G37*
%TD*%
%TO.C,R19*%
G36*
G01*
X198638000Y-146949999D02*
X198638000Y-143000001D01*
G75*
G02*
X198888001Y-142750000I250001J0D01*
G01*
X201412999Y-142750000D01*
G75*
G02*
X201663000Y-143000001I0J-250001D01*
G01*
X201663000Y-146949999D01*
G75*
G02*
X201412999Y-147200000I-250001J0D01*
G01*
X198888001Y-147200000D01*
G75*
G02*
X198638000Y-146949999I0J250001D01*
G01*
G37*
G36*
G01*
X193613000Y-146949999D02*
X193613000Y-143000001D01*
G75*
G02*
X193863001Y-142750000I250001J0D01*
G01*
X196387999Y-142750000D01*
G75*
G02*
X196638000Y-143000001I0J-250001D01*
G01*
X196638000Y-146949999D01*
G75*
G02*
X196387999Y-147200000I-250001J0D01*
G01*
X193863001Y-147200000D01*
G75*
G02*
X193613000Y-146949999I0J250001D01*
G01*
G37*
%TD*%
%TO.C,R20*%
G36*
G01*
X196063000Y-157474999D02*
X196063000Y-153525001D01*
G75*
G02*
X196313001Y-153275000I250001J0D01*
G01*
X198837999Y-153275000D01*
G75*
G02*
X199088000Y-153525001I0J-250001D01*
G01*
X199088000Y-157474999D01*
G75*
G02*
X198837999Y-157725000I-250001J0D01*
G01*
X196313001Y-157725000D01*
G75*
G02*
X196063000Y-157474999I0J250001D01*
G01*
G37*
G36*
G01*
X201088000Y-157474999D02*
X201088000Y-153525001D01*
G75*
G02*
X201338001Y-153275000I250001J0D01*
G01*
X203862999Y-153275000D01*
G75*
G02*
X204113000Y-153525001I0J-250001D01*
G01*
X204113000Y-157474999D01*
G75*
G02*
X203862999Y-157725000I-250001J0D01*
G01*
X201338001Y-157725000D01*
G75*
G02*
X201088000Y-157474999I0J250001D01*
G01*
G37*
%TD*%
%TO.C,R21*%
G36*
G01*
X145887000Y-53724999D02*
X145887000Y-49775001D01*
G75*
G02*
X146137001Y-49525000I250001J0D01*
G01*
X148661999Y-49525000D01*
G75*
G02*
X148912000Y-49775001I0J-250001D01*
G01*
X148912000Y-53724999D01*
G75*
G02*
X148661999Y-53975000I-250001J0D01*
G01*
X146137001Y-53975000D01*
G75*
G02*
X145887000Y-53724999I0J250001D01*
G01*
G37*
G36*
G01*
X150912000Y-53724999D02*
X150912000Y-49775001D01*
G75*
G02*
X151162001Y-49525000I250001J0D01*
G01*
X153686999Y-49525000D01*
G75*
G02*
X153937000Y-49775001I0J-250001D01*
G01*
X153937000Y-53724999D01*
G75*
G02*
X153686999Y-53975000I-250001J0D01*
G01*
X151162001Y-53975000D01*
G75*
G02*
X150912000Y-53724999I0J250001D01*
G01*
G37*
%TD*%
%TO.C,R22*%
G36*
G01*
X155137000Y-62400001D02*
X155137000Y-66349999D01*
G75*
G02*
X154886999Y-66600000I-250001J0D01*
G01*
X152362001Y-66600000D01*
G75*
G02*
X152112000Y-66349999I0J250001D01*
G01*
X152112000Y-62400001D01*
G75*
G02*
X152362001Y-62150000I250001J0D01*
G01*
X154886999Y-62150000D01*
G75*
G02*
X155137000Y-62400001I0J-250001D01*
G01*
G37*
G36*
G01*
X150112000Y-62400001D02*
X150112000Y-66349999D01*
G75*
G02*
X149861999Y-66600000I-250001J0D01*
G01*
X147337001Y-66600000D01*
G75*
G02*
X147087000Y-66349999I0J250001D01*
G01*
X147087000Y-62400001D01*
G75*
G02*
X147337001Y-62150000I250001J0D01*
G01*
X149861999Y-62150000D01*
G75*
G02*
X150112000Y-62400001I0J-250001D01*
G01*
G37*
%TD*%
%TO.C,R23*%
G36*
G01*
X152312000Y-39799999D02*
X152312000Y-35850001D01*
G75*
G02*
X152562001Y-35600000I250001J0D01*
G01*
X155086999Y-35600000D01*
G75*
G02*
X155337000Y-35850001I0J-250001D01*
G01*
X155337000Y-39799999D01*
G75*
G02*
X155086999Y-40050000I-250001J0D01*
G01*
X152562001Y-40050000D01*
G75*
G02*
X152312000Y-39799999I0J250001D01*
G01*
G37*
G36*
G01*
X147287000Y-39799999D02*
X147287000Y-35850001D01*
G75*
G02*
X147537001Y-35600000I250001J0D01*
G01*
X150061999Y-35600000D01*
G75*
G02*
X150312000Y-35850001I0J-250001D01*
G01*
X150312000Y-39799999D01*
G75*
G02*
X150061999Y-40050000I-250001J0D01*
G01*
X147537001Y-40050000D01*
G75*
G02*
X147287000Y-39799999I0J250001D01*
G01*
G37*
%TD*%
%TO.C,R24*%
G36*
G01*
X107713000Y-149649999D02*
X107713000Y-145700001D01*
G75*
G02*
X107963001Y-145450000I250001J0D01*
G01*
X110487999Y-145450000D01*
G75*
G02*
X110738000Y-145700001I0J-250001D01*
G01*
X110738000Y-149649999D01*
G75*
G02*
X110487999Y-149900000I-250001J0D01*
G01*
X107963001Y-149900000D01*
G75*
G02*
X107713000Y-149649999I0J250001D01*
G01*
G37*
G36*
G01*
X112738000Y-149649999D02*
X112738000Y-145700001D01*
G75*
G02*
X112988001Y-145450000I250001J0D01*
G01*
X115512999Y-145450000D01*
G75*
G02*
X115763000Y-145700001I0J-250001D01*
G01*
X115763000Y-149649999D01*
G75*
G02*
X115512999Y-149900000I-250001J0D01*
G01*
X112988001Y-149900000D01*
G75*
G02*
X112738000Y-149649999I0J250001D01*
G01*
G37*
%TD*%
%TO.C,R25*%
G36*
G01*
X145812000Y-143775001D02*
X145812000Y-147724999D01*
G75*
G02*
X145561999Y-147975000I-250001J0D01*
G01*
X143037001Y-147975000D01*
G75*
G02*
X142787000Y-147724999I0J250001D01*
G01*
X142787000Y-143775001D01*
G75*
G02*
X143037001Y-143525000I250001J0D01*
G01*
X145561999Y-143525000D01*
G75*
G02*
X145812000Y-143775001I0J-250001D01*
G01*
G37*
G36*
G01*
X150837000Y-143775001D02*
X150837000Y-147724999D01*
G75*
G02*
X150586999Y-147975000I-250001J0D01*
G01*
X148062001Y-147975000D01*
G75*
G02*
X147812000Y-147724999I0J250001D01*
G01*
X147812000Y-143775001D01*
G75*
G02*
X148062001Y-143525000I250001J0D01*
G01*
X150586999Y-143525000D01*
G75*
G02*
X150837000Y-143775001I0J-250001D01*
G01*
G37*
%TD*%
%TO.C,R26*%
G36*
G01*
X132662000Y-131574999D02*
X132662000Y-127625001D01*
G75*
G02*
X132912001Y-127375000I250001J0D01*
G01*
X135436999Y-127375000D01*
G75*
G02*
X135687000Y-127625001I0J-250001D01*
G01*
X135687000Y-131574999D01*
G75*
G02*
X135436999Y-131825000I-250001J0D01*
G01*
X132912001Y-131825000D01*
G75*
G02*
X132662000Y-131574999I0J250001D01*
G01*
G37*
G36*
G01*
X127637000Y-131574999D02*
X127637000Y-127625001D01*
G75*
G02*
X127887001Y-127375000I250001J0D01*
G01*
X130411999Y-127375000D01*
G75*
G02*
X130662000Y-127625001I0J-250001D01*
G01*
X130662000Y-131574999D01*
G75*
G02*
X130411999Y-131825000I-250001J0D01*
G01*
X127887001Y-131825000D01*
G75*
G02*
X127637000Y-131574999I0J250001D01*
G01*
G37*
%TD*%
%TO.C,R27*%
G36*
G01*
X114037000Y-131124999D02*
X114037000Y-127175001D01*
G75*
G02*
X114287001Y-126925000I250001J0D01*
G01*
X116811999Y-126925000D01*
G75*
G02*
X117062000Y-127175001I0J-250001D01*
G01*
X117062000Y-131124999D01*
G75*
G02*
X116811999Y-131375000I-250001J0D01*
G01*
X114287001Y-131375000D01*
G75*
G02*
X114037000Y-131124999I0J250001D01*
G01*
G37*
G36*
G01*
X119062000Y-131124999D02*
X119062000Y-127175001D01*
G75*
G02*
X119312001Y-126925000I250001J0D01*
G01*
X121836999Y-126925000D01*
G75*
G02*
X122087000Y-127175001I0J-250001D01*
G01*
X122087000Y-131124999D01*
G75*
G02*
X121836999Y-131375000I-250001J0D01*
G01*
X119312001Y-131375000D01*
G75*
G02*
X119062000Y-131124999I0J250001D01*
G01*
G37*
%TD*%
%TO.C,R28*%
G36*
G01*
X123838000Y-136575001D02*
X123838000Y-140524999D01*
G75*
G02*
X123587999Y-140775000I-250001J0D01*
G01*
X121063001Y-140775000D01*
G75*
G02*
X120813000Y-140524999I0J250001D01*
G01*
X120813000Y-136575001D01*
G75*
G02*
X121063001Y-136325000I250001J0D01*
G01*
X123587999Y-136325000D01*
G75*
G02*
X123838000Y-136575001I0J-250001D01*
G01*
G37*
G36*
G01*
X128863000Y-136575001D02*
X128863000Y-140524999D01*
G75*
G02*
X128612999Y-140775000I-250001J0D01*
G01*
X126088001Y-140775000D01*
G75*
G02*
X125838000Y-140524999I0J250001D01*
G01*
X125838000Y-136575001D01*
G75*
G02*
X126088001Y-136325000I250001J0D01*
G01*
X128612999Y-136325000D01*
G75*
G02*
X128863000Y-136575001I0J-250001D01*
G01*
G37*
%TD*%
%TO.C,C1*%
G36*
G01*
X158600000Y-126525000D02*
X158600000Y-136475000D01*
G75*
G02*
X158350000Y-136725000I-250000J0D01*
G01*
X156750000Y-136725000D01*
G75*
G02*
X156500000Y-136475000I0J250000D01*
G01*
X156500000Y-126525000D01*
G75*
G02*
X156750000Y-126275000I250000J0D01*
G01*
X158350000Y-126275000D01*
G75*
G02*
X158600000Y-126525000I0J-250000D01*
G01*
G37*
G36*
G01*
X150250000Y-126525000D02*
X150250000Y-136475000D01*
G75*
G02*
X150000000Y-136725000I-250000J0D01*
G01*
X148400000Y-136725000D01*
G75*
G02*
X148150000Y-136475000I0J250000D01*
G01*
X148150000Y-126525000D01*
G75*
G02*
X148400000Y-126275000I250000J0D01*
G01*
X150000000Y-126275000D01*
G75*
G02*
X150250000Y-126525000I0J-250000D01*
G01*
G37*
%TD*%
M02*
