M48
; DRILL file {KiCad 5.1.6-c6e7f7d~87~ubuntu18.04.1} date Fri Aug 21 18:13:41 2020
; FORMAT={-:-/ absolute / inch / decimal}
; #@! TF.CreationDate,2020-08-21T18:13:41-04:00
; #@! TF.GenerationSoftware,Kicad,Pcbnew,5.1.6-c6e7f7d~87~ubuntu18.04.1
; #@! TF.FileFunction,Plated,1,2,PTH
FMAT,2
INCH
T1C0.0157
T2C0.0300
T3C0.0354
T4C0.0390
T5C0.0394
T6C0.0512
T7C0.0571
%
G90
G05
T1
X4.1387Y-1.7296
X4.7752Y-1.9807
X4.7752Y-5.6366
X4.8071Y-2.7649
X5.1219Y-2.4519
X5.1976Y-5.0197
X5.3688Y-5.1578
X6.3961Y-1.8196
X6.8179Y-2.7649
T2
X8.0354Y-1.3642
X8.0354Y-1.5413
X8.311Y-1.3642
X8.311Y-1.5413
X8.7913Y-0.686
X8.7913Y-0.9616
X8.9685Y-0.686
X8.9685Y-0.9616
T3
X7.0285Y-2.8484
X7.1285Y-2.8484
X7.1811Y-4.8219
X7.2811Y-4.8219
X7.1224Y-4.3819
X7.2224Y-4.3819
X7.3406Y-6.1132
X7.4406Y-6.1132
X7.313Y-5.6634
X7.413Y-5.6634
X7.1299Y-3.6939
X7.2299Y-3.6939
X7.2136Y-5.1496
X7.3136Y-5.1496
X7.1756Y-2.003
X7.2756Y-2.003
T4
X1.5541Y-2.3484
X1.7313Y-2.3484
T5
X2.9685Y-3.6339
X2.9685Y-3.7339
X2.9685Y-3.8339
X2.9685Y-3.9339
X2.9685Y-4.0339
X2.9685Y-4.1339
X2.9685Y-4.2339
X2.9685Y-4.3339
X2.9685Y-4.4339
X2.9685Y-4.5339
X2.9685Y-4.6339
X2.9685Y-4.7339
X2.9685Y-4.8339
X2.9685Y-4.9339
X2.9685Y-5.0339
X2.9685Y-5.1339
X2.9685Y-5.2339
X2.9685Y-5.3339
X2.9685Y-5.4339
X2.9685Y-5.5339
X3.5685Y-3.6339
X3.5685Y-3.7339
X3.5685Y-3.8339
X3.5685Y-3.9339
X3.5685Y-4.0339
X3.5685Y-4.1339
X3.5685Y-4.2339
X3.5685Y-4.3339
X3.5685Y-4.4339
X3.5685Y-4.5339
X3.5685Y-4.6339
X3.5685Y-4.7339
X3.5685Y-4.8339
X3.5685Y-4.9339
X3.5685Y-5.0339
X3.5685Y-5.1339
X3.5685Y-5.2339
X3.5685Y-5.3339
X3.5685Y-5.4339
X3.5685Y-5.5339
X4.8482Y-3.8642
X4.8482Y-4.1642
X4.9482Y-3.8642
X4.9482Y-4.1642
X5.0482Y-3.8642
X5.0482Y-4.1642
X5.1482Y-3.8642
X5.1482Y-4.1642
X5.2482Y-3.8642
X5.2482Y-4.1642
X5.3482Y-3.8642
X5.3482Y-4.1642
X5.4482Y-3.8642
X5.4482Y-4.1642
X5.5482Y-3.8642
X5.5482Y-4.1642
T6
X1.5049Y-2.4465
X1.7809Y-2.4465
T7
X2.3785Y-2.7333
X2.8951Y-2.7333
T0
M30
