%TF.GenerationSoftware,KiCad,Pcbnew,5.1.6-c6e7f7d~87~ubuntu18.04.1*%
%TF.CreationDate,2020-08-21T18:13:35-04:00*%
%TF.ProjectId,tutorial2,7475746f-7269-4616-9c32-2e6b69636164,rev?*%
%TF.SameCoordinates,Original*%
%TF.FileFunction,Copper,L2,Bot*%
%TF.FilePolarity,Positive*%
%FSLAX46Y46*%
G04 Gerber Fmt 4.6, Leading zero omitted, Abs format (unit mm)*
G04 Created by KiCad (PCBNEW 5.1.6-c6e7f7d~87~ubuntu18.04.1) date 2020-08-21 18:13:35*
%MOMM*%
%LPD*%
G01*
G04 APERTURE LIST*
%TA.AperFunction,ComponentPad*%
%ADD10C,2.000000*%
%TD*%
%TA.AperFunction,ComponentPad*%
%ADD11R,1.800000X1.800000*%
%TD*%
%TA.AperFunction,ComponentPad*%
%ADD12C,1.800000*%
%TD*%
%TA.AperFunction,ComponentPad*%
%ADD13C,1.524000*%
%TD*%
%TA.AperFunction,ComponentPad*%
%ADD14R,1.440000X2.000000*%
%TD*%
%TA.AperFunction,ComponentPad*%
%ADD15O,1.440000X2.000000*%
%TD*%
%TA.AperFunction,ComponentPad*%
%ADD16R,2.000000X1.440000*%
%TD*%
%TA.AperFunction,ComponentPad*%
%ADD17O,2.000000X1.440000*%
%TD*%
%TA.AperFunction,ComponentPad*%
%ADD18C,2.100000*%
%TD*%
%TA.AperFunction,ComponentPad*%
%ADD19C,1.750000*%
%TD*%
%TA.AperFunction,ViaPad*%
%ADD20C,0.800000*%
%TD*%
%TA.AperFunction,Conductor*%
%ADD21C,0.250000*%
%TD*%
%TA.AperFunction,Conductor*%
%ADD22C,0.254000*%
%TD*%
G04 APERTURE END LIST*
D10*
%TO.P,J1,2*%
%TO.N,GND*%
X60415000Y-69425000D03*
%TO.P,J1,1*%
%TO.N,Net-(J1-Pad1)*%
X73535000Y-69425000D03*
%TD*%
D11*
%TO.P,D1,1*%
%TO.N,GND*%
X182260000Y-50875000D03*
D12*
%TO.P,D1,2*%
%TO.N,Net-(D1-Pad2)*%
X184800000Y-50875000D03*
%TD*%
%TO.P,D2,2*%
%TO.N,Net-(D2-Pad2)*%
X181065000Y-72350000D03*
D11*
%TO.P,D2,1*%
%TO.N,GND*%
X178525000Y-72350000D03*
%TD*%
D12*
%TO.P,D3,2*%
%TO.N,Net-(D3-Pad2)*%
X183640000Y-93825000D03*
D11*
%TO.P,D3,1*%
%TO.N,GND*%
X181100000Y-93825000D03*
%TD*%
%TO.P,D4,1*%
%TO.N,GND*%
X180910000Y-111300000D03*
D12*
%TO.P,D4,2*%
%TO.N,Net-(D4-Pad2)*%
X183450000Y-111300000D03*
%TD*%
%TO.P,D5,2*%
%TO.N,Net-(D5-Pad2)*%
X184940000Y-122475000D03*
D11*
%TO.P,D5,1*%
%TO.N,GND*%
X182400000Y-122475000D03*
%TD*%
D12*
%TO.P,D6,2*%
%TO.N,Net-(D6-Pad2)*%
X185765000Y-130800000D03*
D11*
%TO.P,D6,1*%
%TO.N,GND*%
X183225000Y-130800000D03*
%TD*%
%TO.P,D7,1*%
%TO.N,GND*%
X185750000Y-143850000D03*
D12*
%TO.P,D7,2*%
%TO.N,Net-(D7-Pad2)*%
X188290000Y-143850000D03*
%TD*%
D11*
%TO.P,D8,1*%
%TO.N,GND*%
X186450000Y-155275000D03*
D12*
%TO.P,D8,2*%
%TO.N,Net-(D8-Pad2)*%
X188990000Y-155275000D03*
%TD*%
D13*
%TO.P,SW1,1*%
%TO.N,GND*%
X204100000Y-34650000D03*
X211100000Y-34650000D03*
%TO.P,SW1,2*%
%TO.N,/PULL_HIGH*%
X211100000Y-39150000D03*
X204100000Y-39150000D03*
%TD*%
%TO.P,SW2,2*%
%TO.N,/PULL_HIGH*%
X227800000Y-24425000D03*
X227800000Y-17425000D03*
%TO.P,SW2,1*%
%TO.N,VCC*%
X223300000Y-17425000D03*
X223300000Y-24425000D03*
%TD*%
D14*
%TO.P,U1,1*%
%TO.N,/LED_B*%
X140925000Y-98150000D03*
D15*
%TO.P,U1,16*%
%TO.N,Net-(R24-Pad2)*%
X140925000Y-105770000D03*
%TO.P,U1,2*%
%TO.N,/LED_C*%
X138385000Y-98150000D03*
%TO.P,U1,15*%
%TO.N,/LED_A*%
X138385000Y-105770000D03*
%TO.P,U1,3*%
%TO.N,/LED_D*%
X135845000Y-98150000D03*
%TO.P,U1,14*%
%TO.N,/PULL_HIGH*%
X135845000Y-105770000D03*
%TO.P,U1,4*%
%TO.N,/LED_E*%
X133305000Y-98150000D03*
%TO.P,U1,13*%
%TO.N,GND*%
X133305000Y-105770000D03*
%TO.P,U1,5*%
%TO.N,/LED_F*%
X130765000Y-98150000D03*
%TO.P,U1,12*%
%TO.N,/555_OUTPUT*%
X130765000Y-105770000D03*
%TO.P,U1,6*%
%TO.N,/LED_G*%
X128225000Y-98150000D03*
%TO.P,U1,11*%
%TO.N,/555_OUTPUT*%
X128225000Y-105770000D03*
%TO.P,U1,7*%
%TO.N,/LED_H*%
X125685000Y-98150000D03*
%TO.P,U1,10*%
%TO.N,VCC*%
X125685000Y-105770000D03*
%TO.P,U1,8*%
%TO.N,GND*%
X123145000Y-98150000D03*
%TO.P,U1,9*%
%TO.N,/XOR_INPUT_A*%
X123145000Y-105770000D03*
%TD*%
D16*
%TO.P,U2,1*%
%TO.N,GND*%
X75400000Y-92300000D03*
D17*
%TO.P,U2,21*%
%TO.N,N/C*%
X90640000Y-140560000D03*
%TO.P,U2,2*%
%TO.N,Net-(C1-Pad2)*%
X75400000Y-94840000D03*
%TO.P,U2,22*%
%TO.N,N/C*%
X90640000Y-138020000D03*
%TO.P,U2,3*%
%TO.N,/555_OUTPUT*%
X75400000Y-97380000D03*
%TO.P,U2,23*%
%TO.N,N/C*%
X90640000Y-135480000D03*
%TO.P,U2,4*%
%TO.N,VCC*%
X75400000Y-99920000D03*
%TO.P,U2,24*%
%TO.N,N/C*%
X90640000Y-132940000D03*
%TO.P,U2,5*%
%TO.N,Net-(U2-Pad5)*%
X75400000Y-102460000D03*
%TO.P,U2,25*%
%TO.N,N/C*%
X90640000Y-130400000D03*
%TO.P,U2,6*%
%TO.N,Net-(C1-Pad2)*%
X75400000Y-105000000D03*
%TO.P,U2,26*%
%TO.N,N/C*%
X90640000Y-127860000D03*
%TO.P,U2,7*%
%TO.N,Net-(R27-Pad1)*%
X75400000Y-107540000D03*
%TO.P,U2,27*%
%TO.N,N/C*%
X90640000Y-125320000D03*
%TO.P,U2,8*%
%TO.N,Net-(R26-Pad1)*%
X75400000Y-110080000D03*
%TO.P,U2,28*%
%TO.N,N/C*%
X90640000Y-122780000D03*
%TO.P,U2,9*%
X75400000Y-112620000D03*
%TO.P,U2,29*%
X90640000Y-120240000D03*
%TO.P,U2,10*%
X75400000Y-115160000D03*
%TO.P,U2,30*%
X90640000Y-117700000D03*
%TO.P,U2,11*%
X75400000Y-117700000D03*
%TO.P,U2,31*%
X90640000Y-115160000D03*
%TO.P,U2,12*%
X75400000Y-120240000D03*
%TO.P,U2,32*%
X90640000Y-112620000D03*
%TO.P,U2,13*%
X75400000Y-122780000D03*
%TO.P,U2,33*%
X90640000Y-110080000D03*
%TO.P,U2,14*%
X75400000Y-125320000D03*
%TO.P,U2,34*%
X90640000Y-107540000D03*
%TO.P,U2,15*%
X75400000Y-127860000D03*
%TO.P,U2,35*%
X90640000Y-105000000D03*
%TO.P,U2,16*%
X75400000Y-130400000D03*
%TO.P,U2,36*%
X90640000Y-102460000D03*
%TO.P,U2,17*%
X75400000Y-132940000D03*
%TO.P,U2,37*%
X90640000Y-99920000D03*
%TO.P,U2,18*%
X75400000Y-135480000D03*
%TO.P,U2,38*%
X90640000Y-97380000D03*
%TO.P,U2,19*%
X75400000Y-138020000D03*
%TO.P,U2,39*%
X90640000Y-94840000D03*
%TO.P,U2,20*%
X75400000Y-140560000D03*
%TO.P,U2,40*%
X90640000Y-92300000D03*
%TD*%
D18*
%TO.P,SW3,*%
%TO.N,*%
X45235000Y-62140000D03*
D19*
%TO.P,SW3,2*%
%TO.N,Net-(J1-Pad1)*%
X43975000Y-59650000D03*
%TO.P,SW3,1*%
%TO.N,VCC*%
X39475000Y-59650000D03*
D18*
%TO.P,SW3,*%
%TO.N,*%
X38225000Y-62140000D03*
%TD*%
D20*
%TO.N,VCC*%
X121290600Y-50310500D03*
X132019300Y-127499300D03*
X130096500Y-62277100D03*
%TO.N,/PULL_HIGH*%
X162461100Y-46216600D03*
X136367700Y-131008200D03*
%TO.N,/XOR_INPUT_A*%
X105121900Y-43931300D03*
X122099700Y-70227700D03*
%TO.N,/LED_A*%
X173174900Y-70227700D03*
%TO.N,Net-(R24-Pad2)*%
X121290600Y-143170600D03*
%TD*%
D21*
%TO.N,GND*%
X180910000Y-111300000D02*
X180910000Y-110074700D01*
X180910000Y-110074700D02*
X181100000Y-109884700D01*
X181100000Y-109884700D02*
X181100000Y-93825000D01*
X182400000Y-121249700D02*
X180910000Y-119759700D01*
X180910000Y-119759700D02*
X180910000Y-111300000D01*
X183225000Y-130800000D02*
X183225000Y-132025300D01*
X185750000Y-143850000D02*
X185750000Y-134550300D01*
X185750000Y-134550300D02*
X183225000Y-132025300D01*
X186450000Y-154049700D02*
X185750000Y-153349700D01*
X185750000Y-153349700D02*
X185750000Y-143850000D01*
X182260000Y-50875000D02*
X182260000Y-52100300D01*
X178525000Y-72350000D02*
X178525000Y-55835300D01*
X178525000Y-55835300D02*
X182260000Y-52100300D01*
X181100000Y-92599700D02*
X178525000Y-90024700D01*
X178525000Y-90024700D02*
X178525000Y-72350000D01*
X186450000Y-155275000D02*
X186450000Y-154049700D01*
X181100000Y-93825000D02*
X181100000Y-92599700D01*
X182400000Y-122475000D02*
X182400000Y-121249700D01*
X183225000Y-129574700D02*
X182400000Y-128749700D01*
X182400000Y-128749700D02*
X182400000Y-122475000D01*
X183225000Y-130800000D02*
X183225000Y-129574700D01*
X182260000Y-50875000D02*
X183485300Y-50875000D01*
X204100000Y-34650000D02*
X199250800Y-34650000D01*
X199250800Y-34650000D02*
X183485300Y-50415500D01*
X183485300Y-50415500D02*
X183485300Y-50875000D01*
%TO.N,Net-(C1-Pad2)*%
X75400000Y-94840000D02*
X75400000Y-95885300D01*
X75400000Y-105000000D02*
X75400000Y-103954700D01*
X75400000Y-103954700D02*
X75106000Y-103954700D01*
X75106000Y-103954700D02*
X74068000Y-102916700D01*
X74068000Y-102916700D02*
X74068000Y-96923300D01*
X74068000Y-96923300D02*
X75106000Y-95885300D01*
X75106000Y-95885300D02*
X75400000Y-95885300D01*
%TO.N,VCC*%
X129287000Y-62277100D02*
X129287000Y-58306900D01*
X129287000Y-58306900D02*
X121290600Y-50310500D01*
X126207700Y-105770000D02*
X129287000Y-102690700D01*
X129287000Y-102690700D02*
X129287000Y-62277100D01*
X130096500Y-62277100D02*
X129287000Y-62277100D01*
X126207700Y-105770000D02*
X126730300Y-105770000D01*
X132019300Y-127499300D02*
X126730300Y-122210300D01*
X126730300Y-122210300D02*
X126730300Y-105770000D01*
X125685000Y-105770000D02*
X126207700Y-105770000D01*
X223300000Y-24425000D02*
X223300000Y-17425000D01*
%TO.N,/PULL_HIGH*%
X136367700Y-105770000D02*
X162461100Y-79676600D01*
X162461100Y-79676600D02*
X162461100Y-46216600D01*
X136367700Y-131008200D02*
X136367700Y-105770000D01*
X135845000Y-105770000D02*
X136367700Y-105770000D01*
X227800000Y-24425000D02*
X225825000Y-24425000D01*
X225825000Y-24425000D02*
X211100000Y-39150000D01*
X227800000Y-17425000D02*
X227800000Y-24425000D01*
%TO.N,/XOR_INPUT_A*%
X122099700Y-70227700D02*
X105121900Y-53249900D01*
X105121900Y-53249900D02*
X105121900Y-43931300D01*
X122099700Y-105770000D02*
X122099700Y-70227700D01*
X123145000Y-105770000D02*
X122099700Y-105770000D01*
%TO.N,/LED_A*%
X138385000Y-105770000D02*
X139430300Y-105770000D01*
X139430300Y-105770000D02*
X139430300Y-103972300D01*
X139430300Y-103972300D02*
X173174900Y-70227700D01*
%TO.N,Net-(R24-Pad2)*%
X140925000Y-105770000D02*
X140925000Y-127509800D01*
X140925000Y-127509800D02*
X125264200Y-143170600D01*
X125264200Y-143170600D02*
X121290600Y-143170600D01*
%TD*%
D22*
%TO.N,GND*%
G36*
X238300615Y-163122079D02*
G01*
X28224982Y-161573917D01*
X28137889Y-156175000D01*
X184911928Y-156175000D01*
X184924188Y-156299482D01*
X184960498Y-156419180D01*
X185019463Y-156529494D01*
X185098815Y-156626185D01*
X185195506Y-156705537D01*
X185305820Y-156764502D01*
X185425518Y-156800812D01*
X185550000Y-156813072D01*
X186164250Y-156810000D01*
X186323000Y-156651250D01*
X186323000Y-155402000D01*
X185073750Y-155402000D01*
X184915000Y-155560750D01*
X184911928Y-156175000D01*
X28137889Y-156175000D01*
X28108852Y-154375000D01*
X184911928Y-154375000D01*
X184915000Y-154989250D01*
X185073750Y-155148000D01*
X186323000Y-155148000D01*
X186323000Y-153898750D01*
X186577000Y-153898750D01*
X186577000Y-155148000D01*
X186597000Y-155148000D01*
X186597000Y-155402000D01*
X186577000Y-155402000D01*
X186577000Y-156651250D01*
X186735750Y-156810000D01*
X187350000Y-156813072D01*
X187474482Y-156800812D01*
X187594180Y-156764502D01*
X187704494Y-156705537D01*
X187801185Y-156626185D01*
X187880537Y-156529494D01*
X187939502Y-156419180D01*
X187945056Y-156400873D01*
X188011495Y-156467312D01*
X188262905Y-156635299D01*
X188542257Y-156751011D01*
X188838816Y-156810000D01*
X189141184Y-156810000D01*
X189437743Y-156751011D01*
X189717095Y-156635299D01*
X189968505Y-156467312D01*
X190182312Y-156253505D01*
X190350299Y-156002095D01*
X190466011Y-155722743D01*
X190525000Y-155426184D01*
X190525000Y-155123816D01*
X190466011Y-154827257D01*
X190350299Y-154547905D01*
X190182312Y-154296495D01*
X189968505Y-154082688D01*
X189717095Y-153914701D01*
X189437743Y-153798989D01*
X189141184Y-153740000D01*
X188838816Y-153740000D01*
X188542257Y-153798989D01*
X188262905Y-153914701D01*
X188011495Y-154082688D01*
X187945056Y-154149127D01*
X187939502Y-154130820D01*
X187880537Y-154020506D01*
X187801185Y-153923815D01*
X187704494Y-153844463D01*
X187594180Y-153785498D01*
X187474482Y-153749188D01*
X187350000Y-153736928D01*
X186735750Y-153740000D01*
X186577000Y-153898750D01*
X186323000Y-153898750D01*
X186164250Y-153740000D01*
X185550000Y-153736928D01*
X185425518Y-153749188D01*
X185305820Y-153785498D01*
X185195506Y-153844463D01*
X185098815Y-153923815D01*
X185019463Y-154020506D01*
X184960498Y-154130820D01*
X184924188Y-154250518D01*
X184911928Y-154375000D01*
X28108852Y-154375000D01*
X27953583Y-144750000D01*
X184211928Y-144750000D01*
X184224188Y-144874482D01*
X184260498Y-144994180D01*
X184319463Y-145104494D01*
X184398815Y-145201185D01*
X184495506Y-145280537D01*
X184605820Y-145339502D01*
X184725518Y-145375812D01*
X184850000Y-145388072D01*
X185464250Y-145385000D01*
X185623000Y-145226250D01*
X185623000Y-143977000D01*
X184373750Y-143977000D01*
X184215000Y-144135750D01*
X184211928Y-144750000D01*
X27953583Y-144750000D01*
X27182053Y-96923300D01*
X73304324Y-96923300D01*
X73308001Y-96960632D01*
X73308000Y-102879377D01*
X73304324Y-102916700D01*
X73308000Y-102954022D01*
X73308000Y-102954032D01*
X73318997Y-103065685D01*
X73357017Y-103191023D01*
X73362454Y-103208946D01*
X73433026Y-103340976D01*
X73472871Y-103389526D01*
X73527999Y-103456701D01*
X73557002Y-103480504D01*
X74137626Y-104061128D01*
X73987908Y-104243560D01*
X73862086Y-104478955D01*
X73784606Y-104734374D01*
X73758444Y-105000000D01*
X73784606Y-105265626D01*
X73862086Y-105521045D01*
X73987908Y-105756440D01*
X74157235Y-105962765D01*
X74363560Y-106132092D01*
X74598955Y-106257914D01*
X74638797Y-106270000D01*
X74598955Y-106282086D01*
X74363560Y-106407908D01*
X74157235Y-106577235D01*
X73987908Y-106783560D01*
X73862086Y-107018955D01*
X73784606Y-107274374D01*
X73758444Y-107540000D01*
X73784606Y-107805626D01*
X73862086Y-108061045D01*
X73987908Y-108296440D01*
X74157235Y-108502765D01*
X74363560Y-108672092D01*
X74598955Y-108797914D01*
X74638797Y-108810000D01*
X74598955Y-108822086D01*
X74363560Y-108947908D01*
X74157235Y-109117235D01*
X73987908Y-109323560D01*
X73862086Y-109558955D01*
X73784606Y-109814374D01*
X73758444Y-110080000D01*
X73784606Y-110345626D01*
X73862086Y-110601045D01*
X73987908Y-110836440D01*
X74157235Y-111042765D01*
X74363560Y-111212092D01*
X74598955Y-111337914D01*
X74638797Y-111350000D01*
X74598955Y-111362086D01*
X74363560Y-111487908D01*
X74157235Y-111657235D01*
X73987908Y-111863560D01*
X73862086Y-112098955D01*
X73784606Y-112354374D01*
X73758444Y-112620000D01*
X73784606Y-112885626D01*
X73862086Y-113141045D01*
X73987908Y-113376440D01*
X74157235Y-113582765D01*
X74363560Y-113752092D01*
X74598955Y-113877914D01*
X74638797Y-113890000D01*
X74598955Y-113902086D01*
X74363560Y-114027908D01*
X74157235Y-114197235D01*
X73987908Y-114403560D01*
X73862086Y-114638955D01*
X73784606Y-114894374D01*
X73758444Y-115160000D01*
X73784606Y-115425626D01*
X73862086Y-115681045D01*
X73987908Y-115916440D01*
X74157235Y-116122765D01*
X74363560Y-116292092D01*
X74598955Y-116417914D01*
X74638797Y-116430000D01*
X74598955Y-116442086D01*
X74363560Y-116567908D01*
X74157235Y-116737235D01*
X73987908Y-116943560D01*
X73862086Y-117178955D01*
X73784606Y-117434374D01*
X73758444Y-117700000D01*
X73784606Y-117965626D01*
X73862086Y-118221045D01*
X73987908Y-118456440D01*
X74157235Y-118662765D01*
X74363560Y-118832092D01*
X74598955Y-118957914D01*
X74638797Y-118970000D01*
X74598955Y-118982086D01*
X74363560Y-119107908D01*
X74157235Y-119277235D01*
X73987908Y-119483560D01*
X73862086Y-119718955D01*
X73784606Y-119974374D01*
X73758444Y-120240000D01*
X73784606Y-120505626D01*
X73862086Y-120761045D01*
X73987908Y-120996440D01*
X74157235Y-121202765D01*
X74363560Y-121372092D01*
X74598955Y-121497914D01*
X74638797Y-121510000D01*
X74598955Y-121522086D01*
X74363560Y-121647908D01*
X74157235Y-121817235D01*
X73987908Y-122023560D01*
X73862086Y-122258955D01*
X73784606Y-122514374D01*
X73758444Y-122780000D01*
X73784606Y-123045626D01*
X73862086Y-123301045D01*
X73987908Y-123536440D01*
X74157235Y-123742765D01*
X74363560Y-123912092D01*
X74598955Y-124037914D01*
X74638797Y-124050000D01*
X74598955Y-124062086D01*
X74363560Y-124187908D01*
X74157235Y-124357235D01*
X73987908Y-124563560D01*
X73862086Y-124798955D01*
X73784606Y-125054374D01*
X73758444Y-125320000D01*
X73784606Y-125585626D01*
X73862086Y-125841045D01*
X73987908Y-126076440D01*
X74157235Y-126282765D01*
X74363560Y-126452092D01*
X74598955Y-126577914D01*
X74638797Y-126590000D01*
X74598955Y-126602086D01*
X74363560Y-126727908D01*
X74157235Y-126897235D01*
X73987908Y-127103560D01*
X73862086Y-127338955D01*
X73784606Y-127594374D01*
X73758444Y-127860000D01*
X73784606Y-128125626D01*
X73862086Y-128381045D01*
X73987908Y-128616440D01*
X74157235Y-128822765D01*
X74363560Y-128992092D01*
X74598955Y-129117914D01*
X74638797Y-129130000D01*
X74598955Y-129142086D01*
X74363560Y-129267908D01*
X74157235Y-129437235D01*
X73987908Y-129643560D01*
X73862086Y-129878955D01*
X73784606Y-130134374D01*
X73758444Y-130400000D01*
X73784606Y-130665626D01*
X73862086Y-130921045D01*
X73987908Y-131156440D01*
X74157235Y-131362765D01*
X74363560Y-131532092D01*
X74598955Y-131657914D01*
X74638797Y-131670000D01*
X74598955Y-131682086D01*
X74363560Y-131807908D01*
X74157235Y-131977235D01*
X73987908Y-132183560D01*
X73862086Y-132418955D01*
X73784606Y-132674374D01*
X73758444Y-132940000D01*
X73784606Y-133205626D01*
X73862086Y-133461045D01*
X73987908Y-133696440D01*
X74157235Y-133902765D01*
X74363560Y-134072092D01*
X74598955Y-134197914D01*
X74638797Y-134210000D01*
X74598955Y-134222086D01*
X74363560Y-134347908D01*
X74157235Y-134517235D01*
X73987908Y-134723560D01*
X73862086Y-134958955D01*
X73784606Y-135214374D01*
X73758444Y-135480000D01*
X73784606Y-135745626D01*
X73862086Y-136001045D01*
X73987908Y-136236440D01*
X74157235Y-136442765D01*
X74363560Y-136612092D01*
X74598955Y-136737914D01*
X74638797Y-136750000D01*
X74598955Y-136762086D01*
X74363560Y-136887908D01*
X74157235Y-137057235D01*
X73987908Y-137263560D01*
X73862086Y-137498955D01*
X73784606Y-137754374D01*
X73758444Y-138020000D01*
X73784606Y-138285626D01*
X73862086Y-138541045D01*
X73987908Y-138776440D01*
X74157235Y-138982765D01*
X74363560Y-139152092D01*
X74598955Y-139277914D01*
X74638797Y-139290000D01*
X74598955Y-139302086D01*
X74363560Y-139427908D01*
X74157235Y-139597235D01*
X73987908Y-139803560D01*
X73862086Y-140038955D01*
X73784606Y-140294374D01*
X73758444Y-140560000D01*
X73784606Y-140825626D01*
X73862086Y-141081045D01*
X73987908Y-141316440D01*
X74157235Y-141522765D01*
X74363560Y-141692092D01*
X74598955Y-141817914D01*
X74854374Y-141895394D01*
X75053436Y-141915000D01*
X75746564Y-141915000D01*
X75945626Y-141895394D01*
X76201045Y-141817914D01*
X76436440Y-141692092D01*
X76642765Y-141522765D01*
X76812092Y-141316440D01*
X76937914Y-141081045D01*
X77015394Y-140825626D01*
X77041556Y-140560000D01*
X77015394Y-140294374D01*
X76937914Y-140038955D01*
X76812092Y-139803560D01*
X76642765Y-139597235D01*
X76436440Y-139427908D01*
X76201045Y-139302086D01*
X76161203Y-139290000D01*
X76201045Y-139277914D01*
X76436440Y-139152092D01*
X76642765Y-138982765D01*
X76812092Y-138776440D01*
X76937914Y-138541045D01*
X77015394Y-138285626D01*
X77041556Y-138020000D01*
X77015394Y-137754374D01*
X76937914Y-137498955D01*
X76812092Y-137263560D01*
X76642765Y-137057235D01*
X76436440Y-136887908D01*
X76201045Y-136762086D01*
X76161203Y-136750000D01*
X76201045Y-136737914D01*
X76436440Y-136612092D01*
X76642765Y-136442765D01*
X76812092Y-136236440D01*
X76937914Y-136001045D01*
X77015394Y-135745626D01*
X77041556Y-135480000D01*
X77015394Y-135214374D01*
X76937914Y-134958955D01*
X76812092Y-134723560D01*
X76642765Y-134517235D01*
X76436440Y-134347908D01*
X76201045Y-134222086D01*
X76161203Y-134210000D01*
X76201045Y-134197914D01*
X76436440Y-134072092D01*
X76642765Y-133902765D01*
X76812092Y-133696440D01*
X76937914Y-133461045D01*
X77015394Y-133205626D01*
X77041556Y-132940000D01*
X77015394Y-132674374D01*
X76937914Y-132418955D01*
X76812092Y-132183560D01*
X76642765Y-131977235D01*
X76436440Y-131807908D01*
X76201045Y-131682086D01*
X76161203Y-131670000D01*
X76201045Y-131657914D01*
X76436440Y-131532092D01*
X76642765Y-131362765D01*
X76812092Y-131156440D01*
X76937914Y-130921045D01*
X77015394Y-130665626D01*
X77041556Y-130400000D01*
X77015394Y-130134374D01*
X76937914Y-129878955D01*
X76812092Y-129643560D01*
X76642765Y-129437235D01*
X76436440Y-129267908D01*
X76201045Y-129142086D01*
X76161203Y-129130000D01*
X76201045Y-129117914D01*
X76436440Y-128992092D01*
X76642765Y-128822765D01*
X76812092Y-128616440D01*
X76937914Y-128381045D01*
X77015394Y-128125626D01*
X77041556Y-127860000D01*
X77015394Y-127594374D01*
X76937914Y-127338955D01*
X76812092Y-127103560D01*
X76642765Y-126897235D01*
X76436440Y-126727908D01*
X76201045Y-126602086D01*
X76161203Y-126590000D01*
X76201045Y-126577914D01*
X76436440Y-126452092D01*
X76642765Y-126282765D01*
X76812092Y-126076440D01*
X76937914Y-125841045D01*
X77015394Y-125585626D01*
X77041556Y-125320000D01*
X77015394Y-125054374D01*
X76937914Y-124798955D01*
X76812092Y-124563560D01*
X76642765Y-124357235D01*
X76436440Y-124187908D01*
X76201045Y-124062086D01*
X76161203Y-124050000D01*
X76201045Y-124037914D01*
X76436440Y-123912092D01*
X76642765Y-123742765D01*
X76812092Y-123536440D01*
X76937914Y-123301045D01*
X77015394Y-123045626D01*
X77041556Y-122780000D01*
X77015394Y-122514374D01*
X76937914Y-122258955D01*
X76812092Y-122023560D01*
X76642765Y-121817235D01*
X76436440Y-121647908D01*
X76201045Y-121522086D01*
X76161203Y-121510000D01*
X76201045Y-121497914D01*
X76436440Y-121372092D01*
X76642765Y-121202765D01*
X76812092Y-120996440D01*
X76937914Y-120761045D01*
X77015394Y-120505626D01*
X77041556Y-120240000D01*
X77015394Y-119974374D01*
X76937914Y-119718955D01*
X76812092Y-119483560D01*
X76642765Y-119277235D01*
X76436440Y-119107908D01*
X76201045Y-118982086D01*
X76161203Y-118970000D01*
X76201045Y-118957914D01*
X76436440Y-118832092D01*
X76642765Y-118662765D01*
X76812092Y-118456440D01*
X76937914Y-118221045D01*
X77015394Y-117965626D01*
X77041556Y-117700000D01*
X77015394Y-117434374D01*
X76937914Y-117178955D01*
X76812092Y-116943560D01*
X76642765Y-116737235D01*
X76436440Y-116567908D01*
X76201045Y-116442086D01*
X76161203Y-116430000D01*
X76201045Y-116417914D01*
X76436440Y-116292092D01*
X76642765Y-116122765D01*
X76812092Y-115916440D01*
X76937914Y-115681045D01*
X77015394Y-115425626D01*
X77041556Y-115160000D01*
X77015394Y-114894374D01*
X76937914Y-114638955D01*
X76812092Y-114403560D01*
X76642765Y-114197235D01*
X76436440Y-114027908D01*
X76201045Y-113902086D01*
X76161203Y-113890000D01*
X76201045Y-113877914D01*
X76436440Y-113752092D01*
X76642765Y-113582765D01*
X76812092Y-113376440D01*
X76937914Y-113141045D01*
X77015394Y-112885626D01*
X77041556Y-112620000D01*
X77015394Y-112354374D01*
X76937914Y-112098955D01*
X76812092Y-111863560D01*
X76642765Y-111657235D01*
X76436440Y-111487908D01*
X76201045Y-111362086D01*
X76161203Y-111350000D01*
X76201045Y-111337914D01*
X76436440Y-111212092D01*
X76642765Y-111042765D01*
X76812092Y-110836440D01*
X76937914Y-110601045D01*
X77015394Y-110345626D01*
X77041556Y-110080000D01*
X77015394Y-109814374D01*
X76937914Y-109558955D01*
X76812092Y-109323560D01*
X76642765Y-109117235D01*
X76436440Y-108947908D01*
X76201045Y-108822086D01*
X76161203Y-108810000D01*
X76201045Y-108797914D01*
X76436440Y-108672092D01*
X76642765Y-108502765D01*
X76812092Y-108296440D01*
X76937914Y-108061045D01*
X77015394Y-107805626D01*
X77041556Y-107540000D01*
X77015394Y-107274374D01*
X76937914Y-107018955D01*
X76812092Y-106783560D01*
X76642765Y-106577235D01*
X76436440Y-106407908D01*
X76201045Y-106282086D01*
X76161203Y-106270000D01*
X76201045Y-106257914D01*
X76436440Y-106132092D01*
X76642765Y-105962765D01*
X76812092Y-105756440D01*
X76937914Y-105521045D01*
X77015394Y-105265626D01*
X77041556Y-105000000D01*
X77015394Y-104734374D01*
X76937914Y-104478955D01*
X76812092Y-104243560D01*
X76642765Y-104037235D01*
X76436440Y-103867908D01*
X76201045Y-103742086D01*
X76161203Y-103730000D01*
X76201045Y-103717914D01*
X76436440Y-103592092D01*
X76642765Y-103422765D01*
X76812092Y-103216440D01*
X76937914Y-102981045D01*
X77015394Y-102725626D01*
X77041556Y-102460000D01*
X77015394Y-102194374D01*
X76937914Y-101938955D01*
X76812092Y-101703560D01*
X76642765Y-101497235D01*
X76436440Y-101327908D01*
X76201045Y-101202086D01*
X76161203Y-101190000D01*
X76201045Y-101177914D01*
X76436440Y-101052092D01*
X76642765Y-100882765D01*
X76812092Y-100676440D01*
X76937914Y-100441045D01*
X77015394Y-100185626D01*
X77041556Y-99920000D01*
X77015394Y-99654374D01*
X76937914Y-99398955D01*
X76812092Y-99163560D01*
X76642765Y-98957235D01*
X76436440Y-98787908D01*
X76201045Y-98662086D01*
X76161203Y-98650000D01*
X76201045Y-98637914D01*
X76436440Y-98512092D01*
X76642765Y-98342765D01*
X76812092Y-98136440D01*
X76937914Y-97901045D01*
X77015394Y-97645626D01*
X77041556Y-97380000D01*
X77015394Y-97114374D01*
X76937914Y-96858955D01*
X76812092Y-96623560D01*
X76642765Y-96417235D01*
X76436440Y-96247908D01*
X76201045Y-96122086D01*
X76161203Y-96110000D01*
X76201045Y-96097914D01*
X76436440Y-95972092D01*
X76642765Y-95802765D01*
X76812092Y-95596440D01*
X76937914Y-95361045D01*
X77015394Y-95105626D01*
X77041556Y-94840000D01*
X77015394Y-94574374D01*
X76937914Y-94318955D01*
X76812092Y-94083560D01*
X76642765Y-93877235D01*
X76436440Y-93707908D01*
X76342743Y-93657826D01*
X76400000Y-93658072D01*
X76524482Y-93645812D01*
X76644180Y-93609502D01*
X76754494Y-93550537D01*
X76851185Y-93471185D01*
X76930537Y-93374494D01*
X76989502Y-93264180D01*
X77025812Y-93144482D01*
X77038072Y-93020000D01*
X77035000Y-92585750D01*
X76876250Y-92427000D01*
X75527000Y-92427000D01*
X75527000Y-92447000D01*
X75273000Y-92447000D01*
X75273000Y-92427000D01*
X73923750Y-92427000D01*
X73765000Y-92585750D01*
X73761928Y-93020000D01*
X73774188Y-93144482D01*
X73810498Y-93264180D01*
X73869463Y-93374494D01*
X73948815Y-93471185D01*
X74045506Y-93550537D01*
X74155820Y-93609502D01*
X74275518Y-93645812D01*
X74400000Y-93658072D01*
X74457257Y-93657826D01*
X74363560Y-93707908D01*
X74157235Y-93877235D01*
X73987908Y-94083560D01*
X73862086Y-94318955D01*
X73784606Y-94574374D01*
X73758444Y-94840000D01*
X73784606Y-95105626D01*
X73862086Y-95361045D01*
X73987908Y-95596440D01*
X74137626Y-95778872D01*
X73556998Y-96359501D01*
X73528000Y-96383299D01*
X73504202Y-96412297D01*
X73504201Y-96412298D01*
X73433026Y-96499024D01*
X73362454Y-96631054D01*
X73349791Y-96672801D01*
X73318998Y-96774314D01*
X73308001Y-96885967D01*
X73304324Y-96923300D01*
X27182053Y-96923300D01*
X27107471Y-92300000D01*
X88998444Y-92300000D01*
X89024606Y-92565626D01*
X89102086Y-92821045D01*
X89227908Y-93056440D01*
X89397235Y-93262765D01*
X89603560Y-93432092D01*
X89838955Y-93557914D01*
X89878797Y-93570000D01*
X89838955Y-93582086D01*
X89603560Y-93707908D01*
X89397235Y-93877235D01*
X89227908Y-94083560D01*
X89102086Y-94318955D01*
X89024606Y-94574374D01*
X88998444Y-94840000D01*
X89024606Y-95105626D01*
X89102086Y-95361045D01*
X89227908Y-95596440D01*
X89397235Y-95802765D01*
X89603560Y-95972092D01*
X89838955Y-96097914D01*
X89878797Y-96110000D01*
X89838955Y-96122086D01*
X89603560Y-96247908D01*
X89397235Y-96417235D01*
X89227908Y-96623560D01*
X89102086Y-96858955D01*
X89024606Y-97114374D01*
X88998444Y-97380000D01*
X89024606Y-97645626D01*
X89102086Y-97901045D01*
X89227908Y-98136440D01*
X89397235Y-98342765D01*
X89603560Y-98512092D01*
X89838955Y-98637914D01*
X89878797Y-98650000D01*
X89838955Y-98662086D01*
X89603560Y-98787908D01*
X89397235Y-98957235D01*
X89227908Y-99163560D01*
X89102086Y-99398955D01*
X89024606Y-99654374D01*
X88998444Y-99920000D01*
X89024606Y-100185626D01*
X89102086Y-100441045D01*
X89227908Y-100676440D01*
X89397235Y-100882765D01*
X89603560Y-101052092D01*
X89838955Y-101177914D01*
X89878797Y-101190000D01*
X89838955Y-101202086D01*
X89603560Y-101327908D01*
X89397235Y-101497235D01*
X89227908Y-101703560D01*
X89102086Y-101938955D01*
X89024606Y-102194374D01*
X88998444Y-102460000D01*
X89024606Y-102725626D01*
X89102086Y-102981045D01*
X89227908Y-103216440D01*
X89397235Y-103422765D01*
X89603560Y-103592092D01*
X89838955Y-103717914D01*
X89878797Y-103730000D01*
X89838955Y-103742086D01*
X89603560Y-103867908D01*
X89397235Y-104037235D01*
X89227908Y-104243560D01*
X89102086Y-104478955D01*
X89024606Y-104734374D01*
X88998444Y-105000000D01*
X89024606Y-105265626D01*
X89102086Y-105521045D01*
X89227908Y-105756440D01*
X89397235Y-105962765D01*
X89603560Y-106132092D01*
X89838955Y-106257914D01*
X89878797Y-106270000D01*
X89838955Y-106282086D01*
X89603560Y-106407908D01*
X89397235Y-106577235D01*
X89227908Y-106783560D01*
X89102086Y-107018955D01*
X89024606Y-107274374D01*
X88998444Y-107540000D01*
X89024606Y-107805626D01*
X89102086Y-108061045D01*
X89227908Y-108296440D01*
X89397235Y-108502765D01*
X89603560Y-108672092D01*
X89838955Y-108797914D01*
X89878797Y-108810000D01*
X89838955Y-108822086D01*
X89603560Y-108947908D01*
X89397235Y-109117235D01*
X89227908Y-109323560D01*
X89102086Y-109558955D01*
X89024606Y-109814374D01*
X88998444Y-110080000D01*
X89024606Y-110345626D01*
X89102086Y-110601045D01*
X89227908Y-110836440D01*
X89397235Y-111042765D01*
X89603560Y-111212092D01*
X89838955Y-111337914D01*
X89878797Y-111350000D01*
X89838955Y-111362086D01*
X89603560Y-111487908D01*
X89397235Y-111657235D01*
X89227908Y-111863560D01*
X89102086Y-112098955D01*
X89024606Y-112354374D01*
X88998444Y-112620000D01*
X89024606Y-112885626D01*
X89102086Y-113141045D01*
X89227908Y-113376440D01*
X89397235Y-113582765D01*
X89603560Y-113752092D01*
X89838955Y-113877914D01*
X89878797Y-113890000D01*
X89838955Y-113902086D01*
X89603560Y-114027908D01*
X89397235Y-114197235D01*
X89227908Y-114403560D01*
X89102086Y-114638955D01*
X89024606Y-114894374D01*
X88998444Y-115160000D01*
X89024606Y-115425626D01*
X89102086Y-115681045D01*
X89227908Y-115916440D01*
X89397235Y-116122765D01*
X89603560Y-116292092D01*
X89838955Y-116417914D01*
X89878797Y-116430000D01*
X89838955Y-116442086D01*
X89603560Y-116567908D01*
X89397235Y-116737235D01*
X89227908Y-116943560D01*
X89102086Y-117178955D01*
X89024606Y-117434374D01*
X88998444Y-117700000D01*
X89024606Y-117965626D01*
X89102086Y-118221045D01*
X89227908Y-118456440D01*
X89397235Y-118662765D01*
X89603560Y-118832092D01*
X89838955Y-118957914D01*
X89878797Y-118970000D01*
X89838955Y-118982086D01*
X89603560Y-119107908D01*
X89397235Y-119277235D01*
X89227908Y-119483560D01*
X89102086Y-119718955D01*
X89024606Y-119974374D01*
X88998444Y-120240000D01*
X89024606Y-120505626D01*
X89102086Y-120761045D01*
X89227908Y-120996440D01*
X89397235Y-121202765D01*
X89603560Y-121372092D01*
X89838955Y-121497914D01*
X89878797Y-121510000D01*
X89838955Y-121522086D01*
X89603560Y-121647908D01*
X89397235Y-121817235D01*
X89227908Y-122023560D01*
X89102086Y-122258955D01*
X89024606Y-122514374D01*
X88998444Y-122780000D01*
X89024606Y-123045626D01*
X89102086Y-123301045D01*
X89227908Y-123536440D01*
X89397235Y-123742765D01*
X89603560Y-123912092D01*
X89838955Y-124037914D01*
X89878797Y-124050000D01*
X89838955Y-124062086D01*
X89603560Y-124187908D01*
X89397235Y-124357235D01*
X89227908Y-124563560D01*
X89102086Y-124798955D01*
X89024606Y-125054374D01*
X88998444Y-125320000D01*
X89024606Y-125585626D01*
X89102086Y-125841045D01*
X89227908Y-126076440D01*
X89397235Y-126282765D01*
X89603560Y-126452092D01*
X89838955Y-126577914D01*
X89878797Y-126590000D01*
X89838955Y-126602086D01*
X89603560Y-126727908D01*
X89397235Y-126897235D01*
X89227908Y-127103560D01*
X89102086Y-127338955D01*
X89024606Y-127594374D01*
X88998444Y-127860000D01*
X89024606Y-128125626D01*
X89102086Y-128381045D01*
X89227908Y-128616440D01*
X89397235Y-128822765D01*
X89603560Y-128992092D01*
X89838955Y-129117914D01*
X89878797Y-129130000D01*
X89838955Y-129142086D01*
X89603560Y-129267908D01*
X89397235Y-129437235D01*
X89227908Y-129643560D01*
X89102086Y-129878955D01*
X89024606Y-130134374D01*
X88998444Y-130400000D01*
X89024606Y-130665626D01*
X89102086Y-130921045D01*
X89227908Y-131156440D01*
X89397235Y-131362765D01*
X89603560Y-131532092D01*
X89838955Y-131657914D01*
X89878797Y-131670000D01*
X89838955Y-131682086D01*
X89603560Y-131807908D01*
X89397235Y-131977235D01*
X89227908Y-132183560D01*
X89102086Y-132418955D01*
X89024606Y-132674374D01*
X88998444Y-132940000D01*
X89024606Y-133205626D01*
X89102086Y-133461045D01*
X89227908Y-133696440D01*
X89397235Y-133902765D01*
X89603560Y-134072092D01*
X89838955Y-134197914D01*
X89878797Y-134210000D01*
X89838955Y-134222086D01*
X89603560Y-134347908D01*
X89397235Y-134517235D01*
X89227908Y-134723560D01*
X89102086Y-134958955D01*
X89024606Y-135214374D01*
X88998444Y-135480000D01*
X89024606Y-135745626D01*
X89102086Y-136001045D01*
X89227908Y-136236440D01*
X89397235Y-136442765D01*
X89603560Y-136612092D01*
X89838955Y-136737914D01*
X89878797Y-136750000D01*
X89838955Y-136762086D01*
X89603560Y-136887908D01*
X89397235Y-137057235D01*
X89227908Y-137263560D01*
X89102086Y-137498955D01*
X89024606Y-137754374D01*
X88998444Y-138020000D01*
X89024606Y-138285626D01*
X89102086Y-138541045D01*
X89227908Y-138776440D01*
X89397235Y-138982765D01*
X89603560Y-139152092D01*
X89838955Y-139277914D01*
X89878797Y-139290000D01*
X89838955Y-139302086D01*
X89603560Y-139427908D01*
X89397235Y-139597235D01*
X89227908Y-139803560D01*
X89102086Y-140038955D01*
X89024606Y-140294374D01*
X88998444Y-140560000D01*
X89024606Y-140825626D01*
X89102086Y-141081045D01*
X89227908Y-141316440D01*
X89397235Y-141522765D01*
X89603560Y-141692092D01*
X89838955Y-141817914D01*
X90094374Y-141895394D01*
X90293436Y-141915000D01*
X90986564Y-141915000D01*
X91185626Y-141895394D01*
X91441045Y-141817914D01*
X91676440Y-141692092D01*
X91882765Y-141522765D01*
X92052092Y-141316440D01*
X92177914Y-141081045D01*
X92255394Y-140825626D01*
X92281556Y-140560000D01*
X92255394Y-140294374D01*
X92177914Y-140038955D01*
X92052092Y-139803560D01*
X91882765Y-139597235D01*
X91676440Y-139427908D01*
X91441045Y-139302086D01*
X91401203Y-139290000D01*
X91441045Y-139277914D01*
X91676440Y-139152092D01*
X91882765Y-138982765D01*
X92052092Y-138776440D01*
X92177914Y-138541045D01*
X92255394Y-138285626D01*
X92281556Y-138020000D01*
X92255394Y-137754374D01*
X92177914Y-137498955D01*
X92052092Y-137263560D01*
X91882765Y-137057235D01*
X91676440Y-136887908D01*
X91441045Y-136762086D01*
X91401203Y-136750000D01*
X91441045Y-136737914D01*
X91676440Y-136612092D01*
X91882765Y-136442765D01*
X92052092Y-136236440D01*
X92177914Y-136001045D01*
X92255394Y-135745626D01*
X92281556Y-135480000D01*
X92255394Y-135214374D01*
X92177914Y-134958955D01*
X92052092Y-134723560D01*
X91882765Y-134517235D01*
X91676440Y-134347908D01*
X91441045Y-134222086D01*
X91401203Y-134210000D01*
X91441045Y-134197914D01*
X91676440Y-134072092D01*
X91882765Y-133902765D01*
X92052092Y-133696440D01*
X92177914Y-133461045D01*
X92255394Y-133205626D01*
X92281556Y-132940000D01*
X92255394Y-132674374D01*
X92177914Y-132418955D01*
X92052092Y-132183560D01*
X91882765Y-131977235D01*
X91676440Y-131807908D01*
X91441045Y-131682086D01*
X91401203Y-131670000D01*
X91441045Y-131657914D01*
X91676440Y-131532092D01*
X91882765Y-131362765D01*
X92052092Y-131156440D01*
X92177914Y-130921045D01*
X92255394Y-130665626D01*
X92281556Y-130400000D01*
X92255394Y-130134374D01*
X92177914Y-129878955D01*
X92052092Y-129643560D01*
X91882765Y-129437235D01*
X91676440Y-129267908D01*
X91441045Y-129142086D01*
X91401203Y-129130000D01*
X91441045Y-129117914D01*
X91676440Y-128992092D01*
X91882765Y-128822765D01*
X92052092Y-128616440D01*
X92177914Y-128381045D01*
X92255394Y-128125626D01*
X92281556Y-127860000D01*
X92255394Y-127594374D01*
X92177914Y-127338955D01*
X92052092Y-127103560D01*
X91882765Y-126897235D01*
X91676440Y-126727908D01*
X91441045Y-126602086D01*
X91401203Y-126590000D01*
X91441045Y-126577914D01*
X91676440Y-126452092D01*
X91882765Y-126282765D01*
X92052092Y-126076440D01*
X92177914Y-125841045D01*
X92255394Y-125585626D01*
X92281556Y-125320000D01*
X92255394Y-125054374D01*
X92177914Y-124798955D01*
X92052092Y-124563560D01*
X91882765Y-124357235D01*
X91676440Y-124187908D01*
X91441045Y-124062086D01*
X91401203Y-124050000D01*
X91441045Y-124037914D01*
X91676440Y-123912092D01*
X91882765Y-123742765D01*
X92052092Y-123536440D01*
X92177914Y-123301045D01*
X92255394Y-123045626D01*
X92281556Y-122780000D01*
X92255394Y-122514374D01*
X92177914Y-122258955D01*
X92052092Y-122023560D01*
X91882765Y-121817235D01*
X91676440Y-121647908D01*
X91441045Y-121522086D01*
X91401203Y-121510000D01*
X91441045Y-121497914D01*
X91676440Y-121372092D01*
X91882765Y-121202765D01*
X92052092Y-120996440D01*
X92177914Y-120761045D01*
X92255394Y-120505626D01*
X92281556Y-120240000D01*
X92255394Y-119974374D01*
X92177914Y-119718955D01*
X92052092Y-119483560D01*
X91882765Y-119277235D01*
X91676440Y-119107908D01*
X91441045Y-118982086D01*
X91401203Y-118970000D01*
X91441045Y-118957914D01*
X91676440Y-118832092D01*
X91882765Y-118662765D01*
X92052092Y-118456440D01*
X92177914Y-118221045D01*
X92255394Y-117965626D01*
X92281556Y-117700000D01*
X92255394Y-117434374D01*
X92177914Y-117178955D01*
X92052092Y-116943560D01*
X91882765Y-116737235D01*
X91676440Y-116567908D01*
X91441045Y-116442086D01*
X91401203Y-116430000D01*
X91441045Y-116417914D01*
X91676440Y-116292092D01*
X91882765Y-116122765D01*
X92052092Y-115916440D01*
X92177914Y-115681045D01*
X92255394Y-115425626D01*
X92281556Y-115160000D01*
X92255394Y-114894374D01*
X92177914Y-114638955D01*
X92052092Y-114403560D01*
X91882765Y-114197235D01*
X91676440Y-114027908D01*
X91441045Y-113902086D01*
X91401203Y-113890000D01*
X91441045Y-113877914D01*
X91676440Y-113752092D01*
X91882765Y-113582765D01*
X92052092Y-113376440D01*
X92177914Y-113141045D01*
X92255394Y-112885626D01*
X92281556Y-112620000D01*
X92255394Y-112354374D01*
X92177914Y-112098955D01*
X92052092Y-111863560D01*
X91882765Y-111657235D01*
X91676440Y-111487908D01*
X91441045Y-111362086D01*
X91401203Y-111350000D01*
X91441045Y-111337914D01*
X91676440Y-111212092D01*
X91882765Y-111042765D01*
X92052092Y-110836440D01*
X92177914Y-110601045D01*
X92255394Y-110345626D01*
X92281556Y-110080000D01*
X92255394Y-109814374D01*
X92177914Y-109558955D01*
X92052092Y-109323560D01*
X91882765Y-109117235D01*
X91676440Y-108947908D01*
X91441045Y-108822086D01*
X91401203Y-108810000D01*
X91441045Y-108797914D01*
X91676440Y-108672092D01*
X91882765Y-108502765D01*
X92052092Y-108296440D01*
X92177914Y-108061045D01*
X92255394Y-107805626D01*
X92281556Y-107540000D01*
X92255394Y-107274374D01*
X92177914Y-107018955D01*
X92052092Y-106783560D01*
X91882765Y-106577235D01*
X91676440Y-106407908D01*
X91441045Y-106282086D01*
X91401203Y-106270000D01*
X91441045Y-106257914D01*
X91676440Y-106132092D01*
X91882765Y-105962765D01*
X92052092Y-105756440D01*
X92177914Y-105521045D01*
X92255394Y-105265626D01*
X92281556Y-105000000D01*
X92255394Y-104734374D01*
X92177914Y-104478955D01*
X92052092Y-104243560D01*
X91882765Y-104037235D01*
X91676440Y-103867908D01*
X91441045Y-103742086D01*
X91401203Y-103730000D01*
X91441045Y-103717914D01*
X91676440Y-103592092D01*
X91882765Y-103422765D01*
X92052092Y-103216440D01*
X92177914Y-102981045D01*
X92255394Y-102725626D01*
X92281556Y-102460000D01*
X92255394Y-102194374D01*
X92177914Y-101938955D01*
X92052092Y-101703560D01*
X91882765Y-101497235D01*
X91676440Y-101327908D01*
X91441045Y-101202086D01*
X91401203Y-101190000D01*
X91441045Y-101177914D01*
X91676440Y-101052092D01*
X91882765Y-100882765D01*
X92052092Y-100676440D01*
X92177914Y-100441045D01*
X92255394Y-100185626D01*
X92281556Y-99920000D01*
X92255394Y-99654374D01*
X92177914Y-99398955D01*
X92052092Y-99163560D01*
X91882765Y-98957235D01*
X91676440Y-98787908D01*
X91441045Y-98662086D01*
X91401203Y-98650000D01*
X91441045Y-98637914D01*
X91676440Y-98512092D01*
X91882765Y-98342765D01*
X92052092Y-98136440D01*
X92177914Y-97901045D01*
X92255394Y-97645626D01*
X92281556Y-97380000D01*
X92255394Y-97114374D01*
X92177914Y-96858955D01*
X92052092Y-96623560D01*
X91882765Y-96417235D01*
X91676440Y-96247908D01*
X91441045Y-96122086D01*
X91401203Y-96110000D01*
X91441045Y-96097914D01*
X91676440Y-95972092D01*
X91882765Y-95802765D01*
X92052092Y-95596440D01*
X92177914Y-95361045D01*
X92255394Y-95105626D01*
X92281556Y-94840000D01*
X92255394Y-94574374D01*
X92177914Y-94318955D01*
X92052092Y-94083560D01*
X91882765Y-93877235D01*
X91676440Y-93707908D01*
X91441045Y-93582086D01*
X91401203Y-93570000D01*
X91441045Y-93557914D01*
X91676440Y-93432092D01*
X91882765Y-93262765D01*
X92052092Y-93056440D01*
X92177914Y-92821045D01*
X92255394Y-92565626D01*
X92281556Y-92300000D01*
X92255394Y-92034374D01*
X92177914Y-91778955D01*
X92052092Y-91543560D01*
X91882765Y-91337235D01*
X91676440Y-91167908D01*
X91441045Y-91042086D01*
X91185626Y-90964606D01*
X90986564Y-90945000D01*
X90293436Y-90945000D01*
X90094374Y-90964606D01*
X89838955Y-91042086D01*
X89603560Y-91167908D01*
X89397235Y-91337235D01*
X89227908Y-91543560D01*
X89102086Y-91778955D01*
X89024606Y-92034374D01*
X88998444Y-92300000D01*
X27107471Y-92300000D01*
X27095856Y-91580000D01*
X73761928Y-91580000D01*
X73765000Y-92014250D01*
X73923750Y-92173000D01*
X75273000Y-92173000D01*
X75273000Y-91103750D01*
X75527000Y-91103750D01*
X75527000Y-92173000D01*
X76876250Y-92173000D01*
X77035000Y-92014250D01*
X77038072Y-91580000D01*
X77025812Y-91455518D01*
X76989502Y-91335820D01*
X76930537Y-91225506D01*
X76851185Y-91128815D01*
X76754494Y-91049463D01*
X76644180Y-90990498D01*
X76524482Y-90954188D01*
X76400000Y-90941928D01*
X75685750Y-90945000D01*
X75527000Y-91103750D01*
X75273000Y-91103750D01*
X75114250Y-90945000D01*
X74400000Y-90941928D01*
X74275518Y-90954188D01*
X74155820Y-90990498D01*
X74045506Y-91049463D01*
X73948815Y-91128815D01*
X73869463Y-91225506D01*
X73810498Y-91335820D01*
X73774188Y-91455518D01*
X73761928Y-91580000D01*
X27095856Y-91580000D01*
X26756772Y-70560413D01*
X59459192Y-70560413D01*
X59554956Y-70824814D01*
X59844571Y-70965704D01*
X60156108Y-71047384D01*
X60477595Y-71066718D01*
X60796675Y-71022961D01*
X61101088Y-70917795D01*
X61275044Y-70824814D01*
X61370808Y-70560413D01*
X60415000Y-69604605D01*
X59459192Y-70560413D01*
X26756772Y-70560413D01*
X26739465Y-69487595D01*
X58773282Y-69487595D01*
X58817039Y-69806675D01*
X58922205Y-70111088D01*
X59015186Y-70285044D01*
X59279587Y-70380808D01*
X60235395Y-69425000D01*
X60594605Y-69425000D01*
X61550413Y-70380808D01*
X61814814Y-70285044D01*
X61955704Y-69995429D01*
X62037384Y-69683892D01*
X62056718Y-69362405D01*
X62043219Y-69263967D01*
X71900000Y-69263967D01*
X71900000Y-69586033D01*
X71962832Y-69901912D01*
X72086082Y-70199463D01*
X72265013Y-70467252D01*
X72492748Y-70694987D01*
X72760537Y-70873918D01*
X73058088Y-70997168D01*
X73373967Y-71060000D01*
X73696033Y-71060000D01*
X74011912Y-70997168D01*
X74309463Y-70873918D01*
X74577252Y-70694987D01*
X74804987Y-70467252D01*
X74983918Y-70199463D01*
X75107168Y-69901912D01*
X75170000Y-69586033D01*
X75170000Y-69263967D01*
X75107168Y-68948088D01*
X74983918Y-68650537D01*
X74804987Y-68382748D01*
X74577252Y-68155013D01*
X74309463Y-67976082D01*
X74011912Y-67852832D01*
X73696033Y-67790000D01*
X73373967Y-67790000D01*
X73058088Y-67852832D01*
X72760537Y-67976082D01*
X72492748Y-68155013D01*
X72265013Y-68382748D01*
X72086082Y-68650537D01*
X71962832Y-68948088D01*
X71900000Y-69263967D01*
X62043219Y-69263967D01*
X62012961Y-69043325D01*
X61907795Y-68738912D01*
X61814814Y-68564956D01*
X61550413Y-68469192D01*
X60594605Y-69425000D01*
X60235395Y-69425000D01*
X59279587Y-68469192D01*
X59015186Y-68564956D01*
X58874296Y-68854571D01*
X58792616Y-69166108D01*
X58773282Y-69487595D01*
X26739465Y-69487595D01*
X26720139Y-68289587D01*
X59459192Y-68289587D01*
X60415000Y-69245395D01*
X61370808Y-68289587D01*
X61275044Y-68025186D01*
X60985429Y-67884296D01*
X60673892Y-67802616D01*
X60352405Y-67783282D01*
X60033325Y-67827039D01*
X59728912Y-67932205D01*
X59554956Y-68025186D01*
X59459192Y-68289587D01*
X26720139Y-68289587D01*
X26618257Y-61974042D01*
X36540000Y-61974042D01*
X36540000Y-62305958D01*
X36604754Y-62631496D01*
X36731772Y-62938147D01*
X36916175Y-63214125D01*
X37150875Y-63448825D01*
X37426853Y-63633228D01*
X37733504Y-63760246D01*
X38059042Y-63825000D01*
X38390958Y-63825000D01*
X38716496Y-63760246D01*
X39023147Y-63633228D01*
X39299125Y-63448825D01*
X39533825Y-63214125D01*
X39718228Y-62938147D01*
X39845246Y-62631496D01*
X39910000Y-62305958D01*
X39910000Y-61974042D01*
X39845246Y-61648504D01*
X39718228Y-61341853D01*
X39596717Y-61160000D01*
X39623722Y-61160000D01*
X39915451Y-61101971D01*
X40190253Y-60988144D01*
X40437569Y-60822893D01*
X40647893Y-60612569D01*
X40813144Y-60365253D01*
X40926971Y-60090451D01*
X40985000Y-59798722D01*
X40985000Y-59501278D01*
X42465000Y-59501278D01*
X42465000Y-59798722D01*
X42523029Y-60090451D01*
X42636856Y-60365253D01*
X42802107Y-60612569D01*
X43012431Y-60822893D01*
X43259747Y-60988144D01*
X43534549Y-61101971D01*
X43826278Y-61160000D01*
X43863283Y-61160000D01*
X43741772Y-61341853D01*
X43614754Y-61648504D01*
X43550000Y-61974042D01*
X43550000Y-62305958D01*
X43614754Y-62631496D01*
X43741772Y-62938147D01*
X43926175Y-63214125D01*
X44160875Y-63448825D01*
X44436853Y-63633228D01*
X44743504Y-63760246D01*
X45069042Y-63825000D01*
X45400958Y-63825000D01*
X45726496Y-63760246D01*
X46033147Y-63633228D01*
X46309125Y-63448825D01*
X46543825Y-63214125D01*
X46728228Y-62938147D01*
X46855246Y-62631496D01*
X46920000Y-62305958D01*
X46920000Y-61974042D01*
X46855246Y-61648504D01*
X46728228Y-61341853D01*
X46543825Y-61065875D01*
X46309125Y-60831175D01*
X46033147Y-60646772D01*
X45726496Y-60519754D01*
X45400958Y-60455000D01*
X45253177Y-60455000D01*
X45313144Y-60365253D01*
X45426971Y-60090451D01*
X45485000Y-59798722D01*
X45485000Y-59501278D01*
X45426971Y-59209549D01*
X45313144Y-58934747D01*
X45147893Y-58687431D01*
X44937569Y-58477107D01*
X44690253Y-58311856D01*
X44415451Y-58198029D01*
X44123722Y-58140000D01*
X43826278Y-58140000D01*
X43534549Y-58198029D01*
X43259747Y-58311856D01*
X43012431Y-58477107D01*
X42802107Y-58687431D01*
X42636856Y-58934747D01*
X42523029Y-59209549D01*
X42465000Y-59501278D01*
X40985000Y-59501278D01*
X40926971Y-59209549D01*
X40813144Y-58934747D01*
X40647893Y-58687431D01*
X40437569Y-58477107D01*
X40190253Y-58311856D01*
X39915451Y-58198029D01*
X39623722Y-58140000D01*
X39326278Y-58140000D01*
X39034549Y-58198029D01*
X38759747Y-58311856D01*
X38512431Y-58477107D01*
X38302107Y-58687431D01*
X38136856Y-58934747D01*
X38023029Y-59209549D01*
X37965000Y-59501278D01*
X37965000Y-59798722D01*
X38023029Y-60090451D01*
X38136856Y-60365253D01*
X38196823Y-60455000D01*
X38059042Y-60455000D01*
X37733504Y-60519754D01*
X37426853Y-60646772D01*
X37150875Y-60831175D01*
X36916175Y-61065875D01*
X36731772Y-61341853D01*
X36604754Y-61648504D01*
X36540000Y-61974042D01*
X26618257Y-61974042D01*
X26325551Y-43829361D01*
X104086900Y-43829361D01*
X104086900Y-44033239D01*
X104126674Y-44233198D01*
X104204695Y-44421556D01*
X104317963Y-44591074D01*
X104361901Y-44635012D01*
X104361900Y-53212578D01*
X104358224Y-53249900D01*
X104361900Y-53287222D01*
X104361900Y-53287232D01*
X104372897Y-53398885D01*
X104416354Y-53542146D01*
X104486926Y-53674176D01*
X104526771Y-53722726D01*
X104581899Y-53789901D01*
X104610903Y-53813704D01*
X121064700Y-70267502D01*
X121064700Y-70329639D01*
X121104474Y-70529598D01*
X121182495Y-70717956D01*
X121295763Y-70887474D01*
X121339701Y-70931412D01*
X121339700Y-105732667D01*
X121336023Y-105770000D01*
X121350697Y-105918986D01*
X121394154Y-106062247D01*
X121464726Y-106194276D01*
X121536790Y-106282086D01*
X121559699Y-106310001D01*
X121675424Y-106404974D01*
X121807453Y-106475546D01*
X121863252Y-106492472D01*
X121887086Y-106571044D01*
X122012908Y-106806439D01*
X122182235Y-107012764D01*
X122388560Y-107182092D01*
X122623955Y-107307914D01*
X122879374Y-107385394D01*
X123145000Y-107411556D01*
X123410625Y-107385394D01*
X123666044Y-107307914D01*
X123901439Y-107182092D01*
X124107764Y-107012765D01*
X124277092Y-106806440D01*
X124402914Y-106571045D01*
X124415000Y-106531202D01*
X124427086Y-106571044D01*
X124552908Y-106806439D01*
X124722235Y-107012764D01*
X124928560Y-107182092D01*
X125163955Y-107307914D01*
X125419374Y-107385394D01*
X125685000Y-107411556D01*
X125950625Y-107385394D01*
X125970301Y-107379425D01*
X125970300Y-122172978D01*
X125966624Y-122210300D01*
X125970300Y-122247622D01*
X125970300Y-122247632D01*
X125981297Y-122359285D01*
X126024754Y-122502546D01*
X126095326Y-122634576D01*
X126135171Y-122683126D01*
X126190299Y-122750301D01*
X126219303Y-122774104D01*
X130984300Y-127539102D01*
X130984300Y-127601239D01*
X131024074Y-127801198D01*
X131102095Y-127989556D01*
X131215363Y-128159074D01*
X131359526Y-128303237D01*
X131529044Y-128416505D01*
X131717402Y-128494526D01*
X131917361Y-128534300D01*
X132121239Y-128534300D01*
X132321198Y-128494526D01*
X132509556Y-128416505D01*
X132679074Y-128303237D01*
X132823237Y-128159074D01*
X132936505Y-127989556D01*
X133014526Y-127801198D01*
X133054300Y-127601239D01*
X133054300Y-127397361D01*
X133014526Y-127197402D01*
X132936505Y-127009044D01*
X132823237Y-126839526D01*
X132679074Y-126695363D01*
X132509556Y-126582095D01*
X132321198Y-126504074D01*
X132121239Y-126464300D01*
X132059102Y-126464300D01*
X127490300Y-121895499D01*
X127490300Y-107193712D01*
X127703955Y-107307914D01*
X127959374Y-107385394D01*
X128225000Y-107411556D01*
X128490625Y-107385394D01*
X128746044Y-107307914D01*
X128981439Y-107182092D01*
X129187764Y-107012765D01*
X129357092Y-106806440D01*
X129482914Y-106571045D01*
X129495000Y-106531202D01*
X129507086Y-106571044D01*
X129632908Y-106806439D01*
X129802235Y-107012764D01*
X130008560Y-107182092D01*
X130243955Y-107307914D01*
X130499374Y-107385394D01*
X130765000Y-107411556D01*
X131030625Y-107385394D01*
X131286044Y-107307914D01*
X131521439Y-107182092D01*
X131727764Y-107012765D01*
X131897092Y-106806440D01*
X132022914Y-106571045D01*
X132036505Y-106526241D01*
X132101744Y-106685869D01*
X132248916Y-106908395D01*
X132436673Y-107097933D01*
X132657799Y-107247199D01*
X132903797Y-107350458D01*
X132968528Y-107362559D01*
X133178000Y-107239489D01*
X133178000Y-105897000D01*
X133158000Y-105897000D01*
X133158000Y-105643000D01*
X133178000Y-105643000D01*
X133178000Y-104300511D01*
X132968528Y-104177441D01*
X132903797Y-104189542D01*
X132657799Y-104292801D01*
X132436673Y-104442067D01*
X132248916Y-104631605D01*
X132101744Y-104854131D01*
X132036505Y-105013759D01*
X132022914Y-104968955D01*
X131897092Y-104733560D01*
X131727765Y-104527235D01*
X131521440Y-104357908D01*
X131286045Y-104232086D01*
X131030626Y-104154606D01*
X130765000Y-104128444D01*
X130499375Y-104154606D01*
X130243956Y-104232086D01*
X130008561Y-104357908D01*
X129802236Y-104527235D01*
X129632908Y-104733560D01*
X129507086Y-104968955D01*
X129495000Y-105008798D01*
X129482914Y-104968955D01*
X129357092Y-104733560D01*
X129187765Y-104527235D01*
X128981440Y-104357908D01*
X128794510Y-104257991D01*
X129798004Y-103254498D01*
X129827001Y-103230701D01*
X129921974Y-103114976D01*
X129992546Y-102982947D01*
X130036003Y-102839686D01*
X130047000Y-102728033D01*
X130047000Y-102728023D01*
X130050676Y-102690700D01*
X130047000Y-102653377D01*
X130047000Y-99582639D01*
X130243955Y-99687914D01*
X130499374Y-99765394D01*
X130765000Y-99791556D01*
X131030625Y-99765394D01*
X131286044Y-99687914D01*
X131521439Y-99562092D01*
X131727764Y-99392765D01*
X131897092Y-99186440D01*
X132022914Y-98951045D01*
X132035000Y-98911202D01*
X132047086Y-98951044D01*
X132172908Y-99186439D01*
X132342235Y-99392764D01*
X132548560Y-99562092D01*
X132783955Y-99687914D01*
X133039374Y-99765394D01*
X133305000Y-99791556D01*
X133570625Y-99765394D01*
X133826044Y-99687914D01*
X134061439Y-99562092D01*
X134267764Y-99392765D01*
X134437092Y-99186440D01*
X134562914Y-98951045D01*
X134575000Y-98911202D01*
X134587086Y-98951044D01*
X134712908Y-99186439D01*
X134882235Y-99392764D01*
X135088560Y-99562092D01*
X135323955Y-99687914D01*
X135579374Y-99765394D01*
X135845000Y-99791556D01*
X136110625Y-99765394D01*
X136366044Y-99687914D01*
X136601439Y-99562092D01*
X136807764Y-99392765D01*
X136977092Y-99186440D01*
X137102914Y-98951045D01*
X137115000Y-98911202D01*
X137127086Y-98951044D01*
X137252908Y-99186439D01*
X137422235Y-99392764D01*
X137628560Y-99562092D01*
X137863955Y-99687914D01*
X138119374Y-99765394D01*
X138385000Y-99791556D01*
X138650625Y-99765394D01*
X138906044Y-99687914D01*
X139141439Y-99562092D01*
X139347764Y-99392765D01*
X139517092Y-99186440D01*
X139566928Y-99093204D01*
X139566928Y-99150000D01*
X139579188Y-99274482D01*
X139615498Y-99394180D01*
X139674463Y-99504494D01*
X139753815Y-99601185D01*
X139850506Y-99680537D01*
X139960820Y-99739502D01*
X140080518Y-99775812D01*
X140205000Y-99788072D01*
X141274827Y-99788072D01*
X136658315Y-104404584D01*
X136601440Y-104357908D01*
X136366045Y-104232086D01*
X136110626Y-104154606D01*
X135845000Y-104128444D01*
X135579375Y-104154606D01*
X135323956Y-104232086D01*
X135088561Y-104357908D01*
X134882236Y-104527235D01*
X134712908Y-104733560D01*
X134587086Y-104968955D01*
X134573495Y-105013759D01*
X134508256Y-104854131D01*
X134361084Y-104631605D01*
X134173327Y-104442067D01*
X133952201Y-104292801D01*
X133706203Y-104189542D01*
X133641472Y-104177441D01*
X133432000Y-104300511D01*
X133432000Y-105643000D01*
X133452000Y-105643000D01*
X133452000Y-105897000D01*
X133432000Y-105897000D01*
X133432000Y-107239489D01*
X133641472Y-107362559D01*
X133706203Y-107350458D01*
X133952201Y-107247199D01*
X134173327Y-107097933D01*
X134361084Y-106908395D01*
X134508256Y-106685869D01*
X134573495Y-106526241D01*
X134587086Y-106571044D01*
X134712908Y-106806439D01*
X134882235Y-107012764D01*
X135088560Y-107182092D01*
X135323955Y-107307914D01*
X135579374Y-107385394D01*
X135607701Y-107388184D01*
X135607700Y-130304489D01*
X135563763Y-130348426D01*
X135450495Y-130517944D01*
X135372474Y-130706302D01*
X135332700Y-130906261D01*
X135332700Y-131110139D01*
X135372474Y-131310098D01*
X135450495Y-131498456D01*
X135563763Y-131667974D01*
X135627894Y-131732105D01*
X124949399Y-142410600D01*
X121994311Y-142410600D01*
X121950374Y-142366663D01*
X121780856Y-142253395D01*
X121592498Y-142175374D01*
X121392539Y-142135600D01*
X121188661Y-142135600D01*
X120988702Y-142175374D01*
X120800344Y-142253395D01*
X120630826Y-142366663D01*
X120486663Y-142510826D01*
X120373395Y-142680344D01*
X120295374Y-142868702D01*
X120255600Y-143068661D01*
X120255600Y-143272539D01*
X120295374Y-143472498D01*
X120373395Y-143660856D01*
X120486663Y-143830374D01*
X120630826Y-143974537D01*
X120800344Y-144087805D01*
X120988702Y-144165826D01*
X121188661Y-144205600D01*
X121392539Y-144205600D01*
X121592498Y-144165826D01*
X121780856Y-144087805D01*
X121950374Y-143974537D01*
X121994311Y-143930600D01*
X125226878Y-143930600D01*
X125264200Y-143934276D01*
X125301522Y-143930600D01*
X125301533Y-143930600D01*
X125413186Y-143919603D01*
X125556447Y-143876146D01*
X125688476Y-143805574D01*
X125804201Y-143710601D01*
X125828004Y-143681597D01*
X126559601Y-142950000D01*
X184211928Y-142950000D01*
X184215000Y-143564250D01*
X184373750Y-143723000D01*
X185623000Y-143723000D01*
X185623000Y-142473750D01*
X185877000Y-142473750D01*
X185877000Y-143723000D01*
X185897000Y-143723000D01*
X185897000Y-143977000D01*
X185877000Y-143977000D01*
X185877000Y-145226250D01*
X186035750Y-145385000D01*
X186650000Y-145388072D01*
X186774482Y-145375812D01*
X186894180Y-145339502D01*
X187004494Y-145280537D01*
X187101185Y-145201185D01*
X187180537Y-145104494D01*
X187239502Y-144994180D01*
X187245056Y-144975873D01*
X187311495Y-145042312D01*
X187562905Y-145210299D01*
X187842257Y-145326011D01*
X188138816Y-145385000D01*
X188441184Y-145385000D01*
X188737743Y-145326011D01*
X189017095Y-145210299D01*
X189268505Y-145042312D01*
X189482312Y-144828505D01*
X189650299Y-144577095D01*
X189766011Y-144297743D01*
X189825000Y-144001184D01*
X189825000Y-143698816D01*
X189766011Y-143402257D01*
X189650299Y-143122905D01*
X189482312Y-142871495D01*
X189268505Y-142657688D01*
X189017095Y-142489701D01*
X188737743Y-142373989D01*
X188441184Y-142315000D01*
X188138816Y-142315000D01*
X187842257Y-142373989D01*
X187562905Y-142489701D01*
X187311495Y-142657688D01*
X187245056Y-142724127D01*
X187239502Y-142705820D01*
X187180537Y-142595506D01*
X187101185Y-142498815D01*
X187004494Y-142419463D01*
X186894180Y-142360498D01*
X186774482Y-142324188D01*
X186650000Y-142311928D01*
X186035750Y-142315000D01*
X185877000Y-142473750D01*
X185623000Y-142473750D01*
X185464250Y-142315000D01*
X184850000Y-142311928D01*
X184725518Y-142324188D01*
X184605820Y-142360498D01*
X184495506Y-142419463D01*
X184398815Y-142498815D01*
X184319463Y-142595506D01*
X184260498Y-142705820D01*
X184224188Y-142825518D01*
X184211928Y-142950000D01*
X126559601Y-142950000D01*
X137809601Y-131700000D01*
X181686928Y-131700000D01*
X181699188Y-131824482D01*
X181735498Y-131944180D01*
X181794463Y-132054494D01*
X181873815Y-132151185D01*
X181970506Y-132230537D01*
X182080820Y-132289502D01*
X182200518Y-132325812D01*
X182325000Y-132338072D01*
X182939250Y-132335000D01*
X183098000Y-132176250D01*
X183098000Y-130927000D01*
X181848750Y-130927000D01*
X181690000Y-131085750D01*
X181686928Y-131700000D01*
X137809601Y-131700000D01*
X139609601Y-129900000D01*
X181686928Y-129900000D01*
X181690000Y-130514250D01*
X181848750Y-130673000D01*
X183098000Y-130673000D01*
X183098000Y-129423750D01*
X183352000Y-129423750D01*
X183352000Y-130673000D01*
X183372000Y-130673000D01*
X183372000Y-130927000D01*
X183352000Y-130927000D01*
X183352000Y-132176250D01*
X183510750Y-132335000D01*
X184125000Y-132338072D01*
X184249482Y-132325812D01*
X184369180Y-132289502D01*
X184479494Y-132230537D01*
X184576185Y-132151185D01*
X184655537Y-132054494D01*
X184714502Y-131944180D01*
X184720056Y-131925873D01*
X184786495Y-131992312D01*
X185037905Y-132160299D01*
X185317257Y-132276011D01*
X185613816Y-132335000D01*
X185916184Y-132335000D01*
X186212743Y-132276011D01*
X186492095Y-132160299D01*
X186743505Y-131992312D01*
X186957312Y-131778505D01*
X187125299Y-131527095D01*
X187241011Y-131247743D01*
X187300000Y-130951184D01*
X187300000Y-130648816D01*
X187241011Y-130352257D01*
X187125299Y-130072905D01*
X186957312Y-129821495D01*
X186743505Y-129607688D01*
X186492095Y-129439701D01*
X186212743Y-129323989D01*
X185916184Y-129265000D01*
X185613816Y-129265000D01*
X185317257Y-129323989D01*
X185037905Y-129439701D01*
X184786495Y-129607688D01*
X184720056Y-129674127D01*
X184714502Y-129655820D01*
X184655537Y-129545506D01*
X184576185Y-129448815D01*
X184479494Y-129369463D01*
X184369180Y-129310498D01*
X184249482Y-129274188D01*
X184125000Y-129261928D01*
X183510750Y-129265000D01*
X183352000Y-129423750D01*
X183098000Y-129423750D01*
X182939250Y-129265000D01*
X182325000Y-129261928D01*
X182200518Y-129274188D01*
X182080820Y-129310498D01*
X181970506Y-129369463D01*
X181873815Y-129448815D01*
X181794463Y-129545506D01*
X181735498Y-129655820D01*
X181699188Y-129775518D01*
X181686928Y-129900000D01*
X139609601Y-129900000D01*
X141436003Y-128073599D01*
X141465001Y-128049801D01*
X141559974Y-127934076D01*
X141630546Y-127802047D01*
X141674003Y-127658786D01*
X141685000Y-127547133D01*
X141685000Y-127547125D01*
X141688676Y-127509800D01*
X141685000Y-127472475D01*
X141685000Y-123375000D01*
X180861928Y-123375000D01*
X180874188Y-123499482D01*
X180910498Y-123619180D01*
X180969463Y-123729494D01*
X181048815Y-123826185D01*
X181145506Y-123905537D01*
X181255820Y-123964502D01*
X181375518Y-124000812D01*
X181500000Y-124013072D01*
X182114250Y-124010000D01*
X182273000Y-123851250D01*
X182273000Y-122602000D01*
X181023750Y-122602000D01*
X180865000Y-122760750D01*
X180861928Y-123375000D01*
X141685000Y-123375000D01*
X141685000Y-121575000D01*
X180861928Y-121575000D01*
X180865000Y-122189250D01*
X181023750Y-122348000D01*
X182273000Y-122348000D01*
X182273000Y-121098750D01*
X182527000Y-121098750D01*
X182527000Y-122348000D01*
X182547000Y-122348000D01*
X182547000Y-122602000D01*
X182527000Y-122602000D01*
X182527000Y-123851250D01*
X182685750Y-124010000D01*
X183300000Y-124013072D01*
X183424482Y-124000812D01*
X183544180Y-123964502D01*
X183654494Y-123905537D01*
X183751185Y-123826185D01*
X183830537Y-123729494D01*
X183889502Y-123619180D01*
X183895056Y-123600873D01*
X183961495Y-123667312D01*
X184212905Y-123835299D01*
X184492257Y-123951011D01*
X184788816Y-124010000D01*
X185091184Y-124010000D01*
X185387743Y-123951011D01*
X185667095Y-123835299D01*
X185918505Y-123667312D01*
X186132312Y-123453505D01*
X186300299Y-123202095D01*
X186416011Y-122922743D01*
X186475000Y-122626184D01*
X186475000Y-122323816D01*
X186416011Y-122027257D01*
X186300299Y-121747905D01*
X186132312Y-121496495D01*
X185918505Y-121282688D01*
X185667095Y-121114701D01*
X185387743Y-120998989D01*
X185091184Y-120940000D01*
X184788816Y-120940000D01*
X184492257Y-120998989D01*
X184212905Y-121114701D01*
X183961495Y-121282688D01*
X183895056Y-121349127D01*
X183889502Y-121330820D01*
X183830537Y-121220506D01*
X183751185Y-121123815D01*
X183654494Y-121044463D01*
X183544180Y-120985498D01*
X183424482Y-120949188D01*
X183300000Y-120936928D01*
X182685750Y-120940000D01*
X182527000Y-121098750D01*
X182273000Y-121098750D01*
X182114250Y-120940000D01*
X181500000Y-120936928D01*
X181375518Y-120949188D01*
X181255820Y-120985498D01*
X181145506Y-121044463D01*
X181048815Y-121123815D01*
X180969463Y-121220506D01*
X180910498Y-121330820D01*
X180874188Y-121450518D01*
X180861928Y-121575000D01*
X141685000Y-121575000D01*
X141685000Y-112200000D01*
X179371928Y-112200000D01*
X179384188Y-112324482D01*
X179420498Y-112444180D01*
X179479463Y-112554494D01*
X179558815Y-112651185D01*
X179655506Y-112730537D01*
X179765820Y-112789502D01*
X179885518Y-112825812D01*
X180010000Y-112838072D01*
X180624250Y-112835000D01*
X180783000Y-112676250D01*
X180783000Y-111427000D01*
X179533750Y-111427000D01*
X179375000Y-111585750D01*
X179371928Y-112200000D01*
X141685000Y-112200000D01*
X141685000Y-110400000D01*
X179371928Y-110400000D01*
X179375000Y-111014250D01*
X179533750Y-111173000D01*
X180783000Y-111173000D01*
X180783000Y-109923750D01*
X181037000Y-109923750D01*
X181037000Y-111173000D01*
X181057000Y-111173000D01*
X181057000Y-111427000D01*
X181037000Y-111427000D01*
X181037000Y-112676250D01*
X181195750Y-112835000D01*
X181810000Y-112838072D01*
X181934482Y-112825812D01*
X182054180Y-112789502D01*
X182164494Y-112730537D01*
X182261185Y-112651185D01*
X182340537Y-112554494D01*
X182399502Y-112444180D01*
X182405056Y-112425873D01*
X182471495Y-112492312D01*
X182722905Y-112660299D01*
X183002257Y-112776011D01*
X183298816Y-112835000D01*
X183601184Y-112835000D01*
X183897743Y-112776011D01*
X184177095Y-112660299D01*
X184428505Y-112492312D01*
X184642312Y-112278505D01*
X184810299Y-112027095D01*
X184926011Y-111747743D01*
X184985000Y-111451184D01*
X184985000Y-111148816D01*
X184926011Y-110852257D01*
X184810299Y-110572905D01*
X184642312Y-110321495D01*
X184428505Y-110107688D01*
X184177095Y-109939701D01*
X183897743Y-109823989D01*
X183601184Y-109765000D01*
X183298816Y-109765000D01*
X183002257Y-109823989D01*
X182722905Y-109939701D01*
X182471495Y-110107688D01*
X182405056Y-110174127D01*
X182399502Y-110155820D01*
X182340537Y-110045506D01*
X182261185Y-109948815D01*
X182164494Y-109869463D01*
X182054180Y-109810498D01*
X181934482Y-109774188D01*
X181810000Y-109761928D01*
X181195750Y-109765000D01*
X181037000Y-109923750D01*
X180783000Y-109923750D01*
X180624250Y-109765000D01*
X180010000Y-109761928D01*
X179885518Y-109774188D01*
X179765820Y-109810498D01*
X179655506Y-109869463D01*
X179558815Y-109948815D01*
X179479463Y-110045506D01*
X179420498Y-110155820D01*
X179384188Y-110275518D01*
X179371928Y-110400000D01*
X141685000Y-110400000D01*
X141685000Y-107179170D01*
X141887764Y-107012765D01*
X142057092Y-106806440D01*
X142182914Y-106571045D01*
X142260394Y-106315626D01*
X142280000Y-106116564D01*
X142280000Y-105423437D01*
X142260394Y-105224375D01*
X142182914Y-104968955D01*
X142057092Y-104733560D01*
X141887765Y-104527235D01*
X141681440Y-104357908D01*
X141446045Y-104232086D01*
X141190626Y-104154606D01*
X140925000Y-104128444D01*
X140659375Y-104154606D01*
X140403956Y-104232086D01*
X140190300Y-104346288D01*
X140190300Y-104287101D01*
X149752401Y-94725000D01*
X179561928Y-94725000D01*
X179574188Y-94849482D01*
X179610498Y-94969180D01*
X179669463Y-95079494D01*
X179748815Y-95176185D01*
X179845506Y-95255537D01*
X179955820Y-95314502D01*
X180075518Y-95350812D01*
X180200000Y-95363072D01*
X180814250Y-95360000D01*
X180973000Y-95201250D01*
X180973000Y-93952000D01*
X179723750Y-93952000D01*
X179565000Y-94110750D01*
X179561928Y-94725000D01*
X149752401Y-94725000D01*
X151552401Y-92925000D01*
X179561928Y-92925000D01*
X179565000Y-93539250D01*
X179723750Y-93698000D01*
X180973000Y-93698000D01*
X180973000Y-92448750D01*
X181227000Y-92448750D01*
X181227000Y-93698000D01*
X181247000Y-93698000D01*
X181247000Y-93952000D01*
X181227000Y-93952000D01*
X181227000Y-95201250D01*
X181385750Y-95360000D01*
X182000000Y-95363072D01*
X182124482Y-95350812D01*
X182244180Y-95314502D01*
X182354494Y-95255537D01*
X182451185Y-95176185D01*
X182530537Y-95079494D01*
X182589502Y-94969180D01*
X182595056Y-94950873D01*
X182661495Y-95017312D01*
X182912905Y-95185299D01*
X183192257Y-95301011D01*
X183488816Y-95360000D01*
X183791184Y-95360000D01*
X184087743Y-95301011D01*
X184367095Y-95185299D01*
X184618505Y-95017312D01*
X184832312Y-94803505D01*
X185000299Y-94552095D01*
X185116011Y-94272743D01*
X185175000Y-93976184D01*
X185175000Y-93673816D01*
X185116011Y-93377257D01*
X185000299Y-93097905D01*
X184832312Y-92846495D01*
X184618505Y-92632688D01*
X184367095Y-92464701D01*
X184087743Y-92348989D01*
X183791184Y-92290000D01*
X183488816Y-92290000D01*
X183192257Y-92348989D01*
X182912905Y-92464701D01*
X182661495Y-92632688D01*
X182595056Y-92699127D01*
X182589502Y-92680820D01*
X182530537Y-92570506D01*
X182451185Y-92473815D01*
X182354494Y-92394463D01*
X182244180Y-92335498D01*
X182124482Y-92299188D01*
X182000000Y-92286928D01*
X181385750Y-92290000D01*
X181227000Y-92448750D01*
X180973000Y-92448750D01*
X180814250Y-92290000D01*
X180200000Y-92286928D01*
X180075518Y-92299188D01*
X179955820Y-92335498D01*
X179845506Y-92394463D01*
X179748815Y-92473815D01*
X179669463Y-92570506D01*
X179610498Y-92680820D01*
X179574188Y-92800518D01*
X179561928Y-92925000D01*
X151552401Y-92925000D01*
X171227401Y-73250000D01*
X176986928Y-73250000D01*
X176999188Y-73374482D01*
X177035498Y-73494180D01*
X177094463Y-73604494D01*
X177173815Y-73701185D01*
X177270506Y-73780537D01*
X177380820Y-73839502D01*
X177500518Y-73875812D01*
X177625000Y-73888072D01*
X178239250Y-73885000D01*
X178398000Y-73726250D01*
X178398000Y-72477000D01*
X177148750Y-72477000D01*
X176990000Y-72635750D01*
X176986928Y-73250000D01*
X171227401Y-73250000D01*
X173027401Y-71450000D01*
X176986928Y-71450000D01*
X176990000Y-72064250D01*
X177148750Y-72223000D01*
X178398000Y-72223000D01*
X178398000Y-70973750D01*
X178652000Y-70973750D01*
X178652000Y-72223000D01*
X178672000Y-72223000D01*
X178672000Y-72477000D01*
X178652000Y-72477000D01*
X178652000Y-73726250D01*
X178810750Y-73885000D01*
X179425000Y-73888072D01*
X179549482Y-73875812D01*
X179669180Y-73839502D01*
X179779494Y-73780537D01*
X179876185Y-73701185D01*
X179955537Y-73604494D01*
X180014502Y-73494180D01*
X180020056Y-73475873D01*
X180086495Y-73542312D01*
X180337905Y-73710299D01*
X180617257Y-73826011D01*
X180913816Y-73885000D01*
X181216184Y-73885000D01*
X181512743Y-73826011D01*
X181792095Y-73710299D01*
X182043505Y-73542312D01*
X182257312Y-73328505D01*
X182425299Y-73077095D01*
X182541011Y-72797743D01*
X182600000Y-72501184D01*
X182600000Y-72198816D01*
X182541011Y-71902257D01*
X182425299Y-71622905D01*
X182257312Y-71371495D01*
X182043505Y-71157688D01*
X181792095Y-70989701D01*
X181512743Y-70873989D01*
X181216184Y-70815000D01*
X180913816Y-70815000D01*
X180617257Y-70873989D01*
X180337905Y-70989701D01*
X180086495Y-71157688D01*
X180020056Y-71224127D01*
X180014502Y-71205820D01*
X179955537Y-71095506D01*
X179876185Y-70998815D01*
X179779494Y-70919463D01*
X179669180Y-70860498D01*
X179549482Y-70824188D01*
X179425000Y-70811928D01*
X178810750Y-70815000D01*
X178652000Y-70973750D01*
X178398000Y-70973750D01*
X178239250Y-70815000D01*
X177625000Y-70811928D01*
X177500518Y-70824188D01*
X177380820Y-70860498D01*
X177270506Y-70919463D01*
X177173815Y-70998815D01*
X177094463Y-71095506D01*
X177035498Y-71205820D01*
X176999188Y-71325518D01*
X176986928Y-71450000D01*
X173027401Y-71450000D01*
X173214702Y-71262700D01*
X173276839Y-71262700D01*
X173476798Y-71222926D01*
X173665156Y-71144905D01*
X173834674Y-71031637D01*
X173978837Y-70887474D01*
X174092105Y-70717956D01*
X174170126Y-70529598D01*
X174209900Y-70329639D01*
X174209900Y-70125761D01*
X174170126Y-69925802D01*
X174092105Y-69737444D01*
X173978837Y-69567926D01*
X173834674Y-69423763D01*
X173665156Y-69310495D01*
X173476798Y-69232474D01*
X173276839Y-69192700D01*
X173072961Y-69192700D01*
X172873002Y-69232474D01*
X172684644Y-69310495D01*
X172515126Y-69423763D01*
X172370963Y-69567926D01*
X172257695Y-69737444D01*
X172179674Y-69925802D01*
X172139900Y-70125761D01*
X172139900Y-70187898D01*
X163221100Y-79106698D01*
X163221100Y-51775000D01*
X180721928Y-51775000D01*
X180734188Y-51899482D01*
X180770498Y-52019180D01*
X180829463Y-52129494D01*
X180908815Y-52226185D01*
X181005506Y-52305537D01*
X181115820Y-52364502D01*
X181235518Y-52400812D01*
X181360000Y-52413072D01*
X181974250Y-52410000D01*
X182133000Y-52251250D01*
X182133000Y-51002000D01*
X180883750Y-51002000D01*
X180725000Y-51160750D01*
X180721928Y-51775000D01*
X163221100Y-51775000D01*
X163221100Y-49975000D01*
X180721928Y-49975000D01*
X180725000Y-50589250D01*
X180883750Y-50748000D01*
X182133000Y-50748000D01*
X182133000Y-49498750D01*
X182387000Y-49498750D01*
X182387000Y-50748000D01*
X182407000Y-50748000D01*
X182407000Y-51002000D01*
X182387000Y-51002000D01*
X182387000Y-52251250D01*
X182545750Y-52410000D01*
X183160000Y-52413072D01*
X183284482Y-52400812D01*
X183404180Y-52364502D01*
X183514494Y-52305537D01*
X183611185Y-52226185D01*
X183690537Y-52129494D01*
X183749502Y-52019180D01*
X183755056Y-52000873D01*
X183821495Y-52067312D01*
X184072905Y-52235299D01*
X184352257Y-52351011D01*
X184648816Y-52410000D01*
X184951184Y-52410000D01*
X185247743Y-52351011D01*
X185527095Y-52235299D01*
X185778505Y-52067312D01*
X185992312Y-51853505D01*
X186160299Y-51602095D01*
X186276011Y-51322743D01*
X186335000Y-51026184D01*
X186335000Y-50723816D01*
X186276011Y-50427257D01*
X186160299Y-50147905D01*
X185992312Y-49896495D01*
X185778505Y-49682688D01*
X185527095Y-49514701D01*
X185247743Y-49398989D01*
X184951184Y-49340000D01*
X184648816Y-49340000D01*
X184352257Y-49398989D01*
X184072905Y-49514701D01*
X183821495Y-49682688D01*
X183755056Y-49749127D01*
X183749502Y-49730820D01*
X183690537Y-49620506D01*
X183611185Y-49523815D01*
X183514494Y-49444463D01*
X183404180Y-49385498D01*
X183284482Y-49349188D01*
X183160000Y-49336928D01*
X182545750Y-49340000D01*
X182387000Y-49498750D01*
X182133000Y-49498750D01*
X181974250Y-49340000D01*
X181360000Y-49336928D01*
X181235518Y-49349188D01*
X181115820Y-49385498D01*
X181005506Y-49444463D01*
X180908815Y-49523815D01*
X180829463Y-49620506D01*
X180770498Y-49730820D01*
X180734188Y-49850518D01*
X180721928Y-49975000D01*
X163221100Y-49975000D01*
X163221100Y-46920311D01*
X163265037Y-46876374D01*
X163378305Y-46706856D01*
X163456326Y-46518498D01*
X163496100Y-46318539D01*
X163496100Y-46114661D01*
X163456326Y-45914702D01*
X163378305Y-45726344D01*
X163265037Y-45556826D01*
X163120874Y-45412663D01*
X162951356Y-45299395D01*
X162762998Y-45221374D01*
X162563039Y-45181600D01*
X162359161Y-45181600D01*
X162159202Y-45221374D01*
X161970844Y-45299395D01*
X161801326Y-45412663D01*
X161657163Y-45556826D01*
X161543895Y-45726344D01*
X161465874Y-45914702D01*
X161426100Y-46114661D01*
X161426100Y-46318539D01*
X161465874Y-46518498D01*
X161543895Y-46706856D01*
X161657163Y-46876374D01*
X161701101Y-46920312D01*
X161701100Y-79361798D01*
X142283072Y-98779827D01*
X142283072Y-97150000D01*
X142270812Y-97025518D01*
X142234502Y-96905820D01*
X142175537Y-96795506D01*
X142096185Y-96698815D01*
X141999494Y-96619463D01*
X141889180Y-96560498D01*
X141769482Y-96524188D01*
X141645000Y-96511928D01*
X140205000Y-96511928D01*
X140080518Y-96524188D01*
X139960820Y-96560498D01*
X139850506Y-96619463D01*
X139753815Y-96698815D01*
X139674463Y-96795506D01*
X139615498Y-96905820D01*
X139579188Y-97025518D01*
X139566928Y-97150000D01*
X139566928Y-97206796D01*
X139517092Y-97113560D01*
X139347765Y-96907235D01*
X139141440Y-96737908D01*
X138906045Y-96612086D01*
X138650626Y-96534606D01*
X138385000Y-96508444D01*
X138119375Y-96534606D01*
X137863956Y-96612086D01*
X137628561Y-96737908D01*
X137422236Y-96907235D01*
X137252908Y-97113560D01*
X137127086Y-97348955D01*
X137115000Y-97388798D01*
X137102914Y-97348955D01*
X136977092Y-97113560D01*
X136807765Y-96907235D01*
X136601440Y-96737908D01*
X136366045Y-96612086D01*
X136110626Y-96534606D01*
X135845000Y-96508444D01*
X135579375Y-96534606D01*
X135323956Y-96612086D01*
X135088561Y-96737908D01*
X134882236Y-96907235D01*
X134712908Y-97113560D01*
X134587086Y-97348955D01*
X134575000Y-97388798D01*
X134562914Y-97348955D01*
X134437092Y-97113560D01*
X134267765Y-96907235D01*
X134061440Y-96737908D01*
X133826045Y-96612086D01*
X133570626Y-96534606D01*
X133305000Y-96508444D01*
X133039375Y-96534606D01*
X132783956Y-96612086D01*
X132548561Y-96737908D01*
X132342236Y-96907235D01*
X132172908Y-97113560D01*
X132047086Y-97348955D01*
X132035000Y-97388798D01*
X132022914Y-97348955D01*
X131897092Y-97113560D01*
X131727765Y-96907235D01*
X131521440Y-96737908D01*
X131286045Y-96612086D01*
X131030626Y-96534606D01*
X130765000Y-96508444D01*
X130499375Y-96534606D01*
X130243956Y-96612086D01*
X130047000Y-96717362D01*
X130047000Y-63312100D01*
X130198439Y-63312100D01*
X130398398Y-63272326D01*
X130586756Y-63194305D01*
X130756274Y-63081037D01*
X130900437Y-62936874D01*
X131013705Y-62767356D01*
X131091726Y-62578998D01*
X131131500Y-62379039D01*
X131131500Y-62175161D01*
X131091726Y-61975202D01*
X131013705Y-61786844D01*
X130900437Y-61617326D01*
X130756274Y-61473163D01*
X130586756Y-61359895D01*
X130398398Y-61281874D01*
X130198439Y-61242100D01*
X130047000Y-61242100D01*
X130047000Y-58344222D01*
X130050676Y-58306899D01*
X130047000Y-58269576D01*
X130047000Y-58269567D01*
X130036003Y-58157914D01*
X129992546Y-58014653D01*
X129921974Y-57882624D01*
X129827001Y-57766899D01*
X129798003Y-57743101D01*
X125407963Y-53353061D01*
X139865000Y-53353061D01*
X139865000Y-53556939D01*
X139904774Y-53756898D01*
X139982795Y-53945256D01*
X140096063Y-54114774D01*
X140240226Y-54258937D01*
X140409744Y-54372205D01*
X140598102Y-54450226D01*
X140798061Y-54490000D01*
X141001939Y-54490000D01*
X141201898Y-54450226D01*
X141390256Y-54372205D01*
X141559774Y-54258937D01*
X141703937Y-54114774D01*
X141817205Y-53945256D01*
X141895226Y-53756898D01*
X141935000Y-53556939D01*
X141935000Y-53353061D01*
X141895226Y-53153102D01*
X141817205Y-52964744D01*
X141703937Y-52795226D01*
X141559774Y-52651063D01*
X141390256Y-52537795D01*
X141201898Y-52459774D01*
X141001939Y-52420000D01*
X140798061Y-52420000D01*
X140598102Y-52459774D01*
X140409744Y-52537795D01*
X140240226Y-52651063D01*
X140096063Y-52795226D01*
X139982795Y-52964744D01*
X139904774Y-53153102D01*
X139865000Y-53353061D01*
X125407963Y-53353061D01*
X122325600Y-50270699D01*
X122325600Y-50208561D01*
X122285826Y-50008602D01*
X122207805Y-49820244D01*
X122094537Y-49650726D01*
X121950374Y-49506563D01*
X121780856Y-49393295D01*
X121592498Y-49315274D01*
X121392539Y-49275500D01*
X121188661Y-49275500D01*
X120988702Y-49315274D01*
X120800344Y-49393295D01*
X120630826Y-49506563D01*
X120486663Y-49650726D01*
X120373395Y-49820244D01*
X120295374Y-50008602D01*
X120255600Y-50208561D01*
X120255600Y-50412439D01*
X120295374Y-50612398D01*
X120373395Y-50800756D01*
X120486663Y-50970274D01*
X120630826Y-51114437D01*
X120800344Y-51227705D01*
X120988702Y-51305726D01*
X121188661Y-51345500D01*
X121250799Y-51345500D01*
X128527001Y-58621703D01*
X128527000Y-62239767D01*
X128523323Y-62277100D01*
X128527001Y-62314443D01*
X128527000Y-96545640D01*
X128490626Y-96534606D01*
X128225000Y-96508444D01*
X127959375Y-96534606D01*
X127703956Y-96612086D01*
X127468561Y-96737908D01*
X127262236Y-96907235D01*
X127092908Y-97113560D01*
X126967086Y-97348955D01*
X126955000Y-97388798D01*
X126942914Y-97348955D01*
X126817092Y-97113560D01*
X126647765Y-96907235D01*
X126441440Y-96737908D01*
X126206045Y-96612086D01*
X125950626Y-96534606D01*
X125685000Y-96508444D01*
X125419375Y-96534606D01*
X125163956Y-96612086D01*
X124928561Y-96737908D01*
X124722236Y-96907235D01*
X124552908Y-97113560D01*
X124427086Y-97348955D01*
X124413495Y-97393759D01*
X124348256Y-97234131D01*
X124201084Y-97011605D01*
X124013327Y-96822067D01*
X123792201Y-96672801D01*
X123546203Y-96569542D01*
X123481472Y-96557441D01*
X123272000Y-96680511D01*
X123272000Y-98023000D01*
X123292000Y-98023000D01*
X123292000Y-98277000D01*
X123272000Y-98277000D01*
X123272000Y-99619489D01*
X123481472Y-99742559D01*
X123546203Y-99730458D01*
X123792201Y-99627199D01*
X124013327Y-99477933D01*
X124201084Y-99288395D01*
X124348256Y-99065869D01*
X124413495Y-98906241D01*
X124427086Y-98951044D01*
X124552908Y-99186439D01*
X124722235Y-99392764D01*
X124928560Y-99562092D01*
X125163955Y-99687914D01*
X125419374Y-99765394D01*
X125685000Y-99791556D01*
X125950625Y-99765394D01*
X126206044Y-99687914D01*
X126441439Y-99562092D01*
X126647764Y-99392765D01*
X126817092Y-99186440D01*
X126942914Y-98951045D01*
X126955000Y-98911202D01*
X126967086Y-98951044D01*
X127092908Y-99186439D01*
X127262235Y-99392764D01*
X127468560Y-99562092D01*
X127703955Y-99687914D01*
X127959374Y-99765394D01*
X128225000Y-99791556D01*
X128490625Y-99765394D01*
X128527000Y-99754360D01*
X128527000Y-102375898D01*
X126498315Y-104404584D01*
X126441440Y-104357908D01*
X126206045Y-104232086D01*
X125950626Y-104154606D01*
X125685000Y-104128444D01*
X125419375Y-104154606D01*
X125163956Y-104232086D01*
X124928561Y-104357908D01*
X124722236Y-104527235D01*
X124552908Y-104733560D01*
X124427086Y-104968955D01*
X124415000Y-105008798D01*
X124402914Y-104968955D01*
X124277092Y-104733560D01*
X124107765Y-104527235D01*
X123901440Y-104357908D01*
X123666045Y-104232086D01*
X123410626Y-104154606D01*
X123145000Y-104128444D01*
X122879375Y-104154606D01*
X122859700Y-104160574D01*
X122859700Y-99712494D01*
X123018000Y-99619489D01*
X123018000Y-98277000D01*
X122998000Y-98277000D01*
X122998000Y-98023000D01*
X123018000Y-98023000D01*
X123018000Y-96680511D01*
X122859700Y-96587506D01*
X122859700Y-70931411D01*
X122903637Y-70887474D01*
X123016905Y-70717956D01*
X123094926Y-70529598D01*
X123134700Y-70329639D01*
X123134700Y-70125761D01*
X123094926Y-69925802D01*
X123016905Y-69737444D01*
X122903637Y-69567926D01*
X122759474Y-69423763D01*
X122589956Y-69310495D01*
X122401598Y-69232474D01*
X122201639Y-69192700D01*
X122139502Y-69192700D01*
X106424863Y-53478061D01*
X120415000Y-53478061D01*
X120415000Y-53681939D01*
X120454774Y-53881898D01*
X120532795Y-54070256D01*
X120646063Y-54239774D01*
X120790226Y-54383937D01*
X120959744Y-54497205D01*
X121148102Y-54575226D01*
X121348061Y-54615000D01*
X121551939Y-54615000D01*
X121751898Y-54575226D01*
X121940256Y-54497205D01*
X122109774Y-54383937D01*
X122253937Y-54239774D01*
X122367205Y-54070256D01*
X122445226Y-53881898D01*
X122485000Y-53681939D01*
X122485000Y-53478061D01*
X122445226Y-53278102D01*
X122367205Y-53089744D01*
X122253937Y-52920226D01*
X122109774Y-52776063D01*
X121940256Y-52662795D01*
X121751898Y-52584774D01*
X121551939Y-52545000D01*
X121348061Y-52545000D01*
X121148102Y-52584774D01*
X120959744Y-52662795D01*
X120790226Y-52776063D01*
X120646063Y-52920226D01*
X120532795Y-53089744D01*
X120454774Y-53278102D01*
X120415000Y-53478061D01*
X106424863Y-53478061D01*
X105881900Y-52935099D01*
X105881900Y-46428061D01*
X158540000Y-46428061D01*
X158540000Y-46631939D01*
X158579774Y-46831898D01*
X158657795Y-47020256D01*
X158771063Y-47189774D01*
X158915226Y-47333937D01*
X159084744Y-47447205D01*
X159273102Y-47525226D01*
X159473061Y-47565000D01*
X159676939Y-47565000D01*
X159876898Y-47525226D01*
X160065256Y-47447205D01*
X160234774Y-47333937D01*
X160378937Y-47189774D01*
X160492205Y-47020256D01*
X160570226Y-46831898D01*
X160610000Y-46631939D01*
X160610000Y-46428061D01*
X160570226Y-46228102D01*
X160492205Y-46039744D01*
X160378937Y-45870226D01*
X160234774Y-45726063D01*
X160065256Y-45612795D01*
X159876898Y-45534774D01*
X159676939Y-45495000D01*
X159473061Y-45495000D01*
X159273102Y-45534774D01*
X159084744Y-45612795D01*
X158915226Y-45726063D01*
X158771063Y-45870226D01*
X158657795Y-46039744D01*
X158579774Y-46228102D01*
X158540000Y-46428061D01*
X105881900Y-46428061D01*
X105881900Y-44635011D01*
X105925837Y-44591074D01*
X106039105Y-44421556D01*
X106117126Y-44233198D01*
X106156900Y-44033239D01*
X106156900Y-43829361D01*
X106117126Y-43629402D01*
X106039105Y-43441044D01*
X105925837Y-43271526D01*
X105781674Y-43127363D01*
X105612156Y-43014095D01*
X105423798Y-42936074D01*
X105223839Y-42896300D01*
X105019961Y-42896300D01*
X104820002Y-42936074D01*
X104631644Y-43014095D01*
X104462126Y-43127363D01*
X104317963Y-43271526D01*
X104204695Y-43441044D01*
X104126674Y-43629402D01*
X104086900Y-43829361D01*
X26325551Y-43829361D01*
X26255760Y-39503061D01*
X121065000Y-39503061D01*
X121065000Y-39706939D01*
X121104774Y-39906898D01*
X121182795Y-40095256D01*
X121296063Y-40264774D01*
X121440226Y-40408937D01*
X121609744Y-40522205D01*
X121798102Y-40600226D01*
X121998061Y-40640000D01*
X122201939Y-40640000D01*
X122401898Y-40600226D01*
X122590256Y-40522205D01*
X122759774Y-40408937D01*
X122903937Y-40264774D01*
X123017205Y-40095256D01*
X123095226Y-39906898D01*
X123135000Y-39706939D01*
X123135000Y-39503061D01*
X123095226Y-39303102D01*
X123064143Y-39228061D01*
X140265000Y-39228061D01*
X140265000Y-39431939D01*
X140304774Y-39631898D01*
X140382795Y-39820256D01*
X140496063Y-39989774D01*
X140640226Y-40133937D01*
X140809744Y-40247205D01*
X140998102Y-40325226D01*
X141198061Y-40365000D01*
X141401939Y-40365000D01*
X141601898Y-40325226D01*
X141790256Y-40247205D01*
X141959774Y-40133937D01*
X142103937Y-39989774D01*
X142217205Y-39820256D01*
X142295226Y-39631898D01*
X142335000Y-39431939D01*
X142335000Y-39228061D01*
X142295226Y-39028102D01*
X142288726Y-39012408D01*
X202703000Y-39012408D01*
X202703000Y-39287592D01*
X202756686Y-39557490D01*
X202861995Y-39811727D01*
X203014880Y-40040535D01*
X203209465Y-40235120D01*
X203438273Y-40388005D01*
X203692510Y-40493314D01*
X203962408Y-40547000D01*
X204237592Y-40547000D01*
X204507490Y-40493314D01*
X204761727Y-40388005D01*
X204990535Y-40235120D01*
X205185120Y-40040535D01*
X205338005Y-39811727D01*
X205443314Y-39557490D01*
X205497000Y-39287592D01*
X205497000Y-39012408D01*
X209703000Y-39012408D01*
X209703000Y-39287592D01*
X209756686Y-39557490D01*
X209861995Y-39811727D01*
X210014880Y-40040535D01*
X210209465Y-40235120D01*
X210438273Y-40388005D01*
X210692510Y-40493314D01*
X210962408Y-40547000D01*
X211237592Y-40547000D01*
X211507490Y-40493314D01*
X211761727Y-40388005D01*
X211990535Y-40235120D01*
X212185120Y-40040535D01*
X212338005Y-39811727D01*
X212443314Y-39557490D01*
X212497000Y-39287592D01*
X212497000Y-39012408D01*
X212466372Y-38858429D01*
X226139802Y-25185000D01*
X226627659Y-25185000D01*
X226714880Y-25315535D01*
X226909465Y-25510120D01*
X227138273Y-25663005D01*
X227392510Y-25768314D01*
X227662408Y-25822000D01*
X227937592Y-25822000D01*
X228207490Y-25768314D01*
X228461727Y-25663005D01*
X228690535Y-25510120D01*
X228885120Y-25315535D01*
X229038005Y-25086727D01*
X229143314Y-24832490D01*
X229197000Y-24562592D01*
X229197000Y-24287408D01*
X229143314Y-24017510D01*
X229038005Y-23763273D01*
X228885120Y-23534465D01*
X228690535Y-23339880D01*
X228560000Y-23252659D01*
X228560000Y-18597341D01*
X228690535Y-18510120D01*
X228885120Y-18315535D01*
X229038005Y-18086727D01*
X229143314Y-17832490D01*
X229197000Y-17562592D01*
X229197000Y-17287408D01*
X229143314Y-17017510D01*
X229038005Y-16763273D01*
X228885120Y-16534465D01*
X228690535Y-16339880D01*
X228461727Y-16186995D01*
X228207490Y-16081686D01*
X227937592Y-16028000D01*
X227662408Y-16028000D01*
X227392510Y-16081686D01*
X227138273Y-16186995D01*
X226909465Y-16339880D01*
X226714880Y-16534465D01*
X226561995Y-16763273D01*
X226456686Y-17017510D01*
X226403000Y-17287408D01*
X226403000Y-17562592D01*
X226456686Y-17832490D01*
X226561995Y-18086727D01*
X226714880Y-18315535D01*
X226909465Y-18510120D01*
X227040000Y-18597341D01*
X227040001Y-23252659D01*
X226909465Y-23339880D01*
X226714880Y-23534465D01*
X226627659Y-23665000D01*
X225862325Y-23665000D01*
X225825000Y-23661324D01*
X225787675Y-23665000D01*
X225787667Y-23665000D01*
X225676014Y-23675997D01*
X225532753Y-23719454D01*
X225400724Y-23790026D01*
X225284999Y-23884999D01*
X225261201Y-23913997D01*
X224697000Y-24478198D01*
X224697000Y-24287408D01*
X224643314Y-24017510D01*
X224538005Y-23763273D01*
X224385120Y-23534465D01*
X224190535Y-23339880D01*
X224060000Y-23252659D01*
X224060000Y-18597341D01*
X224190535Y-18510120D01*
X224385120Y-18315535D01*
X224538005Y-18086727D01*
X224643314Y-17832490D01*
X224697000Y-17562592D01*
X224697000Y-17287408D01*
X224643314Y-17017510D01*
X224538005Y-16763273D01*
X224385120Y-16534465D01*
X224190535Y-16339880D01*
X223961727Y-16186995D01*
X223707490Y-16081686D01*
X223437592Y-16028000D01*
X223162408Y-16028000D01*
X222892510Y-16081686D01*
X222638273Y-16186995D01*
X222409465Y-16339880D01*
X222214880Y-16534465D01*
X222061995Y-16763273D01*
X221956686Y-17017510D01*
X221903000Y-17287408D01*
X221903000Y-17562592D01*
X221956686Y-17832490D01*
X222061995Y-18086727D01*
X222214880Y-18315535D01*
X222409465Y-18510120D01*
X222540001Y-18597341D01*
X222540000Y-23252659D01*
X222409465Y-23339880D01*
X222214880Y-23534465D01*
X222061995Y-23763273D01*
X221956686Y-24017510D01*
X221903000Y-24287408D01*
X221903000Y-24562592D01*
X221956686Y-24832490D01*
X222061995Y-25086727D01*
X222214880Y-25315535D01*
X222409465Y-25510120D01*
X222638273Y-25663005D01*
X222892510Y-25768314D01*
X223162408Y-25822000D01*
X223353198Y-25822000D01*
X211391571Y-37783628D01*
X211237592Y-37753000D01*
X210962408Y-37753000D01*
X210692510Y-37806686D01*
X210438273Y-37911995D01*
X210209465Y-38064880D01*
X210014880Y-38259465D01*
X209861995Y-38488273D01*
X209756686Y-38742510D01*
X209703000Y-39012408D01*
X205497000Y-39012408D01*
X205443314Y-38742510D01*
X205338005Y-38488273D01*
X205185120Y-38259465D01*
X204990535Y-38064880D01*
X204761727Y-37911995D01*
X204507490Y-37806686D01*
X204237592Y-37753000D01*
X203962408Y-37753000D01*
X203692510Y-37806686D01*
X203438273Y-37911995D01*
X203209465Y-38064880D01*
X203014880Y-38259465D01*
X202861995Y-38488273D01*
X202756686Y-38742510D01*
X202703000Y-39012408D01*
X142288726Y-39012408D01*
X142217205Y-38839744D01*
X142103937Y-38670226D01*
X141959774Y-38526063D01*
X141790256Y-38412795D01*
X141601898Y-38334774D01*
X141401939Y-38295000D01*
X141198061Y-38295000D01*
X140998102Y-38334774D01*
X140809744Y-38412795D01*
X140640226Y-38526063D01*
X140496063Y-38670226D01*
X140382795Y-38839744D01*
X140304774Y-39028102D01*
X140265000Y-39228061D01*
X123064143Y-39228061D01*
X123017205Y-39114744D01*
X122903937Y-38945226D01*
X122759774Y-38801063D01*
X122590256Y-38687795D01*
X122401898Y-38609774D01*
X122201939Y-38570000D01*
X121998061Y-38570000D01*
X121798102Y-38609774D01*
X121609744Y-38687795D01*
X121440226Y-38801063D01*
X121296063Y-38945226D01*
X121182795Y-39114744D01*
X121104774Y-39303102D01*
X121065000Y-39503061D01*
X26255760Y-39503061D01*
X26193049Y-35615565D01*
X203314040Y-35615565D01*
X203381020Y-35855656D01*
X203630048Y-35972756D01*
X203897135Y-36039023D01*
X204172017Y-36051910D01*
X204444133Y-36010922D01*
X204703023Y-35917636D01*
X204818980Y-35855656D01*
X204885960Y-35615565D01*
X210314040Y-35615565D01*
X210381020Y-35855656D01*
X210630048Y-35972756D01*
X210897135Y-36039023D01*
X211172017Y-36051910D01*
X211444133Y-36010922D01*
X211703023Y-35917636D01*
X211818980Y-35855656D01*
X211885960Y-35615565D01*
X211100000Y-34829605D01*
X210314040Y-35615565D01*
X204885960Y-35615565D01*
X204100000Y-34829605D01*
X203314040Y-35615565D01*
X26193049Y-35615565D01*
X26178634Y-34722017D01*
X202698090Y-34722017D01*
X202739078Y-34994133D01*
X202832364Y-35253023D01*
X202894344Y-35368980D01*
X203134435Y-35435960D01*
X203920395Y-34650000D01*
X204279605Y-34650000D01*
X205065565Y-35435960D01*
X205305656Y-35368980D01*
X205422756Y-35119952D01*
X205489023Y-34852865D01*
X205495157Y-34722017D01*
X209698090Y-34722017D01*
X209739078Y-34994133D01*
X209832364Y-35253023D01*
X209894344Y-35368980D01*
X210134435Y-35435960D01*
X210920395Y-34650000D01*
X211279605Y-34650000D01*
X212065565Y-35435960D01*
X212305656Y-35368980D01*
X212422756Y-35119952D01*
X212489023Y-34852865D01*
X212501910Y-34577983D01*
X212460922Y-34305867D01*
X212367636Y-34046977D01*
X212305656Y-33931020D01*
X212065565Y-33864040D01*
X211279605Y-34650000D01*
X210920395Y-34650000D01*
X210134435Y-33864040D01*
X209894344Y-33931020D01*
X209777244Y-34180048D01*
X209710977Y-34447135D01*
X209698090Y-34722017D01*
X205495157Y-34722017D01*
X205501910Y-34577983D01*
X205460922Y-34305867D01*
X205367636Y-34046977D01*
X205305656Y-33931020D01*
X205065565Y-33864040D01*
X204279605Y-34650000D01*
X203920395Y-34650000D01*
X203134435Y-33864040D01*
X202894344Y-33931020D01*
X202777244Y-34180048D01*
X202710977Y-34447135D01*
X202698090Y-34722017D01*
X26178634Y-34722017D01*
X26161896Y-33684435D01*
X203314040Y-33684435D01*
X204100000Y-34470395D01*
X204885960Y-33684435D01*
X210314040Y-33684435D01*
X211100000Y-34470395D01*
X211885960Y-33684435D01*
X211818980Y-33444344D01*
X211569952Y-33327244D01*
X211302865Y-33260977D01*
X211027983Y-33248090D01*
X210755867Y-33289078D01*
X210496977Y-33382364D01*
X210381020Y-33444344D01*
X210314040Y-33684435D01*
X204885960Y-33684435D01*
X204818980Y-33444344D01*
X204569952Y-33327244D01*
X204302865Y-33260977D01*
X204027983Y-33248090D01*
X203755867Y-33289078D01*
X203496977Y-33382364D01*
X203381020Y-33444344D01*
X203314040Y-33684435D01*
X26161896Y-33684435D01*
X25876983Y-16022952D01*
X25874101Y-15998021D01*
X25532393Y-14426164D01*
X241395336Y-13277691D01*
X238300615Y-163122079D01*
G37*
X238300615Y-163122079D02*
X28224982Y-161573917D01*
X28137889Y-156175000D01*
X184911928Y-156175000D01*
X184924188Y-156299482D01*
X184960498Y-156419180D01*
X185019463Y-156529494D01*
X185098815Y-156626185D01*
X185195506Y-156705537D01*
X185305820Y-156764502D01*
X185425518Y-156800812D01*
X185550000Y-156813072D01*
X186164250Y-156810000D01*
X186323000Y-156651250D01*
X186323000Y-155402000D01*
X185073750Y-155402000D01*
X184915000Y-155560750D01*
X184911928Y-156175000D01*
X28137889Y-156175000D01*
X28108852Y-154375000D01*
X184911928Y-154375000D01*
X184915000Y-154989250D01*
X185073750Y-155148000D01*
X186323000Y-155148000D01*
X186323000Y-153898750D01*
X186577000Y-153898750D01*
X186577000Y-155148000D01*
X186597000Y-155148000D01*
X186597000Y-155402000D01*
X186577000Y-155402000D01*
X186577000Y-156651250D01*
X186735750Y-156810000D01*
X187350000Y-156813072D01*
X187474482Y-156800812D01*
X187594180Y-156764502D01*
X187704494Y-156705537D01*
X187801185Y-156626185D01*
X187880537Y-156529494D01*
X187939502Y-156419180D01*
X187945056Y-156400873D01*
X188011495Y-156467312D01*
X188262905Y-156635299D01*
X188542257Y-156751011D01*
X188838816Y-156810000D01*
X189141184Y-156810000D01*
X189437743Y-156751011D01*
X189717095Y-156635299D01*
X189968505Y-156467312D01*
X190182312Y-156253505D01*
X190350299Y-156002095D01*
X190466011Y-155722743D01*
X190525000Y-155426184D01*
X190525000Y-155123816D01*
X190466011Y-154827257D01*
X190350299Y-154547905D01*
X190182312Y-154296495D01*
X189968505Y-154082688D01*
X189717095Y-153914701D01*
X189437743Y-153798989D01*
X189141184Y-153740000D01*
X188838816Y-153740000D01*
X188542257Y-153798989D01*
X188262905Y-153914701D01*
X188011495Y-154082688D01*
X187945056Y-154149127D01*
X187939502Y-154130820D01*
X187880537Y-154020506D01*
X187801185Y-153923815D01*
X187704494Y-153844463D01*
X187594180Y-153785498D01*
X187474482Y-153749188D01*
X187350000Y-153736928D01*
X186735750Y-153740000D01*
X186577000Y-153898750D01*
X186323000Y-153898750D01*
X186164250Y-153740000D01*
X185550000Y-153736928D01*
X185425518Y-153749188D01*
X185305820Y-153785498D01*
X185195506Y-153844463D01*
X185098815Y-153923815D01*
X185019463Y-154020506D01*
X184960498Y-154130820D01*
X184924188Y-154250518D01*
X184911928Y-154375000D01*
X28108852Y-154375000D01*
X27953583Y-144750000D01*
X184211928Y-144750000D01*
X184224188Y-144874482D01*
X184260498Y-144994180D01*
X184319463Y-145104494D01*
X184398815Y-145201185D01*
X184495506Y-145280537D01*
X184605820Y-145339502D01*
X184725518Y-145375812D01*
X184850000Y-145388072D01*
X185464250Y-145385000D01*
X185623000Y-145226250D01*
X185623000Y-143977000D01*
X184373750Y-143977000D01*
X184215000Y-144135750D01*
X184211928Y-144750000D01*
X27953583Y-144750000D01*
X27182053Y-96923300D01*
X73304324Y-96923300D01*
X73308001Y-96960632D01*
X73308000Y-102879377D01*
X73304324Y-102916700D01*
X73308000Y-102954022D01*
X73308000Y-102954032D01*
X73318997Y-103065685D01*
X73357017Y-103191023D01*
X73362454Y-103208946D01*
X73433026Y-103340976D01*
X73472871Y-103389526D01*
X73527999Y-103456701D01*
X73557002Y-103480504D01*
X74137626Y-104061128D01*
X73987908Y-104243560D01*
X73862086Y-104478955D01*
X73784606Y-104734374D01*
X73758444Y-105000000D01*
X73784606Y-105265626D01*
X73862086Y-105521045D01*
X73987908Y-105756440D01*
X74157235Y-105962765D01*
X74363560Y-106132092D01*
X74598955Y-106257914D01*
X74638797Y-106270000D01*
X74598955Y-106282086D01*
X74363560Y-106407908D01*
X74157235Y-106577235D01*
X73987908Y-106783560D01*
X73862086Y-107018955D01*
X73784606Y-107274374D01*
X73758444Y-107540000D01*
X73784606Y-107805626D01*
X73862086Y-108061045D01*
X73987908Y-108296440D01*
X74157235Y-108502765D01*
X74363560Y-108672092D01*
X74598955Y-108797914D01*
X74638797Y-108810000D01*
X74598955Y-108822086D01*
X74363560Y-108947908D01*
X74157235Y-109117235D01*
X73987908Y-109323560D01*
X73862086Y-109558955D01*
X73784606Y-109814374D01*
X73758444Y-110080000D01*
X73784606Y-110345626D01*
X73862086Y-110601045D01*
X73987908Y-110836440D01*
X74157235Y-111042765D01*
X74363560Y-111212092D01*
X74598955Y-111337914D01*
X74638797Y-111350000D01*
X74598955Y-111362086D01*
X74363560Y-111487908D01*
X74157235Y-111657235D01*
X73987908Y-111863560D01*
X73862086Y-112098955D01*
X73784606Y-112354374D01*
X73758444Y-112620000D01*
X73784606Y-112885626D01*
X73862086Y-113141045D01*
X73987908Y-113376440D01*
X74157235Y-113582765D01*
X74363560Y-113752092D01*
X74598955Y-113877914D01*
X74638797Y-113890000D01*
X74598955Y-113902086D01*
X74363560Y-114027908D01*
X74157235Y-114197235D01*
X73987908Y-114403560D01*
X73862086Y-114638955D01*
X73784606Y-114894374D01*
X73758444Y-115160000D01*
X73784606Y-115425626D01*
X73862086Y-115681045D01*
X73987908Y-115916440D01*
X74157235Y-116122765D01*
X74363560Y-116292092D01*
X74598955Y-116417914D01*
X74638797Y-116430000D01*
X74598955Y-116442086D01*
X74363560Y-116567908D01*
X74157235Y-116737235D01*
X73987908Y-116943560D01*
X73862086Y-117178955D01*
X73784606Y-117434374D01*
X73758444Y-117700000D01*
X73784606Y-117965626D01*
X73862086Y-118221045D01*
X73987908Y-118456440D01*
X74157235Y-118662765D01*
X74363560Y-118832092D01*
X74598955Y-118957914D01*
X74638797Y-118970000D01*
X74598955Y-118982086D01*
X74363560Y-119107908D01*
X74157235Y-119277235D01*
X73987908Y-119483560D01*
X73862086Y-119718955D01*
X73784606Y-119974374D01*
X73758444Y-120240000D01*
X73784606Y-120505626D01*
X73862086Y-120761045D01*
X73987908Y-120996440D01*
X74157235Y-121202765D01*
X74363560Y-121372092D01*
X74598955Y-121497914D01*
X74638797Y-121510000D01*
X74598955Y-121522086D01*
X74363560Y-121647908D01*
X74157235Y-121817235D01*
X73987908Y-122023560D01*
X73862086Y-122258955D01*
X73784606Y-122514374D01*
X73758444Y-122780000D01*
X73784606Y-123045626D01*
X73862086Y-123301045D01*
X73987908Y-123536440D01*
X74157235Y-123742765D01*
X74363560Y-123912092D01*
X74598955Y-124037914D01*
X74638797Y-124050000D01*
X74598955Y-124062086D01*
X74363560Y-124187908D01*
X74157235Y-124357235D01*
X73987908Y-124563560D01*
X73862086Y-124798955D01*
X73784606Y-125054374D01*
X73758444Y-125320000D01*
X73784606Y-125585626D01*
X73862086Y-125841045D01*
X73987908Y-126076440D01*
X74157235Y-126282765D01*
X74363560Y-126452092D01*
X74598955Y-126577914D01*
X74638797Y-126590000D01*
X74598955Y-126602086D01*
X74363560Y-126727908D01*
X74157235Y-126897235D01*
X73987908Y-127103560D01*
X73862086Y-127338955D01*
X73784606Y-127594374D01*
X73758444Y-127860000D01*
X73784606Y-128125626D01*
X73862086Y-128381045D01*
X73987908Y-128616440D01*
X74157235Y-128822765D01*
X74363560Y-128992092D01*
X74598955Y-129117914D01*
X74638797Y-129130000D01*
X74598955Y-129142086D01*
X74363560Y-129267908D01*
X74157235Y-129437235D01*
X73987908Y-129643560D01*
X73862086Y-129878955D01*
X73784606Y-130134374D01*
X73758444Y-130400000D01*
X73784606Y-130665626D01*
X73862086Y-130921045D01*
X73987908Y-131156440D01*
X74157235Y-131362765D01*
X74363560Y-131532092D01*
X74598955Y-131657914D01*
X74638797Y-131670000D01*
X74598955Y-131682086D01*
X74363560Y-131807908D01*
X74157235Y-131977235D01*
X73987908Y-132183560D01*
X73862086Y-132418955D01*
X73784606Y-132674374D01*
X73758444Y-132940000D01*
X73784606Y-133205626D01*
X73862086Y-133461045D01*
X73987908Y-133696440D01*
X74157235Y-133902765D01*
X74363560Y-134072092D01*
X74598955Y-134197914D01*
X74638797Y-134210000D01*
X74598955Y-134222086D01*
X74363560Y-134347908D01*
X74157235Y-134517235D01*
X73987908Y-134723560D01*
X73862086Y-134958955D01*
X73784606Y-135214374D01*
X73758444Y-135480000D01*
X73784606Y-135745626D01*
X73862086Y-136001045D01*
X73987908Y-136236440D01*
X74157235Y-136442765D01*
X74363560Y-136612092D01*
X74598955Y-136737914D01*
X74638797Y-136750000D01*
X74598955Y-136762086D01*
X74363560Y-136887908D01*
X74157235Y-137057235D01*
X73987908Y-137263560D01*
X73862086Y-137498955D01*
X73784606Y-137754374D01*
X73758444Y-138020000D01*
X73784606Y-138285626D01*
X73862086Y-138541045D01*
X73987908Y-138776440D01*
X74157235Y-138982765D01*
X74363560Y-139152092D01*
X74598955Y-139277914D01*
X74638797Y-139290000D01*
X74598955Y-139302086D01*
X74363560Y-139427908D01*
X74157235Y-139597235D01*
X73987908Y-139803560D01*
X73862086Y-140038955D01*
X73784606Y-140294374D01*
X73758444Y-140560000D01*
X73784606Y-140825626D01*
X73862086Y-141081045D01*
X73987908Y-141316440D01*
X74157235Y-141522765D01*
X74363560Y-141692092D01*
X74598955Y-141817914D01*
X74854374Y-141895394D01*
X75053436Y-141915000D01*
X75746564Y-141915000D01*
X75945626Y-141895394D01*
X76201045Y-141817914D01*
X76436440Y-141692092D01*
X76642765Y-141522765D01*
X76812092Y-141316440D01*
X76937914Y-141081045D01*
X77015394Y-140825626D01*
X77041556Y-140560000D01*
X77015394Y-140294374D01*
X76937914Y-140038955D01*
X76812092Y-139803560D01*
X76642765Y-139597235D01*
X76436440Y-139427908D01*
X76201045Y-139302086D01*
X76161203Y-139290000D01*
X76201045Y-139277914D01*
X76436440Y-139152092D01*
X76642765Y-138982765D01*
X76812092Y-138776440D01*
X76937914Y-138541045D01*
X77015394Y-138285626D01*
X77041556Y-138020000D01*
X77015394Y-137754374D01*
X76937914Y-137498955D01*
X76812092Y-137263560D01*
X76642765Y-137057235D01*
X76436440Y-136887908D01*
X76201045Y-136762086D01*
X76161203Y-136750000D01*
X76201045Y-136737914D01*
X76436440Y-136612092D01*
X76642765Y-136442765D01*
X76812092Y-136236440D01*
X76937914Y-136001045D01*
X77015394Y-135745626D01*
X77041556Y-135480000D01*
X77015394Y-135214374D01*
X76937914Y-134958955D01*
X76812092Y-134723560D01*
X76642765Y-134517235D01*
X76436440Y-134347908D01*
X76201045Y-134222086D01*
X76161203Y-134210000D01*
X76201045Y-134197914D01*
X76436440Y-134072092D01*
X76642765Y-133902765D01*
X76812092Y-133696440D01*
X76937914Y-133461045D01*
X77015394Y-133205626D01*
X77041556Y-132940000D01*
X77015394Y-132674374D01*
X76937914Y-132418955D01*
X76812092Y-132183560D01*
X76642765Y-131977235D01*
X76436440Y-131807908D01*
X76201045Y-131682086D01*
X76161203Y-131670000D01*
X76201045Y-131657914D01*
X76436440Y-131532092D01*
X76642765Y-131362765D01*
X76812092Y-131156440D01*
X76937914Y-130921045D01*
X77015394Y-130665626D01*
X77041556Y-130400000D01*
X77015394Y-130134374D01*
X76937914Y-129878955D01*
X76812092Y-129643560D01*
X76642765Y-129437235D01*
X76436440Y-129267908D01*
X76201045Y-129142086D01*
X76161203Y-129130000D01*
X76201045Y-129117914D01*
X76436440Y-128992092D01*
X76642765Y-128822765D01*
X76812092Y-128616440D01*
X76937914Y-128381045D01*
X77015394Y-128125626D01*
X77041556Y-127860000D01*
X77015394Y-127594374D01*
X76937914Y-127338955D01*
X76812092Y-127103560D01*
X76642765Y-126897235D01*
X76436440Y-126727908D01*
X76201045Y-126602086D01*
X76161203Y-126590000D01*
X76201045Y-126577914D01*
X76436440Y-126452092D01*
X76642765Y-126282765D01*
X76812092Y-126076440D01*
X76937914Y-125841045D01*
X77015394Y-125585626D01*
X77041556Y-125320000D01*
X77015394Y-125054374D01*
X76937914Y-124798955D01*
X76812092Y-124563560D01*
X76642765Y-124357235D01*
X76436440Y-124187908D01*
X76201045Y-124062086D01*
X76161203Y-124050000D01*
X76201045Y-124037914D01*
X76436440Y-123912092D01*
X76642765Y-123742765D01*
X76812092Y-123536440D01*
X76937914Y-123301045D01*
X77015394Y-123045626D01*
X77041556Y-122780000D01*
X77015394Y-122514374D01*
X76937914Y-122258955D01*
X76812092Y-122023560D01*
X76642765Y-121817235D01*
X76436440Y-121647908D01*
X76201045Y-121522086D01*
X76161203Y-121510000D01*
X76201045Y-121497914D01*
X76436440Y-121372092D01*
X76642765Y-121202765D01*
X76812092Y-120996440D01*
X76937914Y-120761045D01*
X77015394Y-120505626D01*
X77041556Y-120240000D01*
X77015394Y-119974374D01*
X76937914Y-119718955D01*
X76812092Y-119483560D01*
X76642765Y-119277235D01*
X76436440Y-119107908D01*
X76201045Y-118982086D01*
X76161203Y-118970000D01*
X76201045Y-118957914D01*
X76436440Y-118832092D01*
X76642765Y-118662765D01*
X76812092Y-118456440D01*
X76937914Y-118221045D01*
X77015394Y-117965626D01*
X77041556Y-117700000D01*
X77015394Y-117434374D01*
X76937914Y-117178955D01*
X76812092Y-116943560D01*
X76642765Y-116737235D01*
X76436440Y-116567908D01*
X76201045Y-116442086D01*
X76161203Y-116430000D01*
X76201045Y-116417914D01*
X76436440Y-116292092D01*
X76642765Y-116122765D01*
X76812092Y-115916440D01*
X76937914Y-115681045D01*
X77015394Y-115425626D01*
X77041556Y-115160000D01*
X77015394Y-114894374D01*
X76937914Y-114638955D01*
X76812092Y-114403560D01*
X76642765Y-114197235D01*
X76436440Y-114027908D01*
X76201045Y-113902086D01*
X76161203Y-113890000D01*
X76201045Y-113877914D01*
X76436440Y-113752092D01*
X76642765Y-113582765D01*
X76812092Y-113376440D01*
X76937914Y-113141045D01*
X77015394Y-112885626D01*
X77041556Y-112620000D01*
X77015394Y-112354374D01*
X76937914Y-112098955D01*
X76812092Y-111863560D01*
X76642765Y-111657235D01*
X76436440Y-111487908D01*
X76201045Y-111362086D01*
X76161203Y-111350000D01*
X76201045Y-111337914D01*
X76436440Y-111212092D01*
X76642765Y-111042765D01*
X76812092Y-110836440D01*
X76937914Y-110601045D01*
X77015394Y-110345626D01*
X77041556Y-110080000D01*
X77015394Y-109814374D01*
X76937914Y-109558955D01*
X76812092Y-109323560D01*
X76642765Y-109117235D01*
X76436440Y-108947908D01*
X76201045Y-108822086D01*
X76161203Y-108810000D01*
X76201045Y-108797914D01*
X76436440Y-108672092D01*
X76642765Y-108502765D01*
X76812092Y-108296440D01*
X76937914Y-108061045D01*
X77015394Y-107805626D01*
X77041556Y-107540000D01*
X77015394Y-107274374D01*
X76937914Y-107018955D01*
X76812092Y-106783560D01*
X76642765Y-106577235D01*
X76436440Y-106407908D01*
X76201045Y-106282086D01*
X76161203Y-106270000D01*
X76201045Y-106257914D01*
X76436440Y-106132092D01*
X76642765Y-105962765D01*
X76812092Y-105756440D01*
X76937914Y-105521045D01*
X77015394Y-105265626D01*
X77041556Y-105000000D01*
X77015394Y-104734374D01*
X76937914Y-104478955D01*
X76812092Y-104243560D01*
X76642765Y-104037235D01*
X76436440Y-103867908D01*
X76201045Y-103742086D01*
X76161203Y-103730000D01*
X76201045Y-103717914D01*
X76436440Y-103592092D01*
X76642765Y-103422765D01*
X76812092Y-103216440D01*
X76937914Y-102981045D01*
X77015394Y-102725626D01*
X77041556Y-102460000D01*
X77015394Y-102194374D01*
X76937914Y-101938955D01*
X76812092Y-101703560D01*
X76642765Y-101497235D01*
X76436440Y-101327908D01*
X76201045Y-101202086D01*
X76161203Y-101190000D01*
X76201045Y-101177914D01*
X76436440Y-101052092D01*
X76642765Y-100882765D01*
X76812092Y-100676440D01*
X76937914Y-100441045D01*
X77015394Y-100185626D01*
X77041556Y-99920000D01*
X77015394Y-99654374D01*
X76937914Y-99398955D01*
X76812092Y-99163560D01*
X76642765Y-98957235D01*
X76436440Y-98787908D01*
X76201045Y-98662086D01*
X76161203Y-98650000D01*
X76201045Y-98637914D01*
X76436440Y-98512092D01*
X76642765Y-98342765D01*
X76812092Y-98136440D01*
X76937914Y-97901045D01*
X77015394Y-97645626D01*
X77041556Y-97380000D01*
X77015394Y-97114374D01*
X76937914Y-96858955D01*
X76812092Y-96623560D01*
X76642765Y-96417235D01*
X76436440Y-96247908D01*
X76201045Y-96122086D01*
X76161203Y-96110000D01*
X76201045Y-96097914D01*
X76436440Y-95972092D01*
X76642765Y-95802765D01*
X76812092Y-95596440D01*
X76937914Y-95361045D01*
X77015394Y-95105626D01*
X77041556Y-94840000D01*
X77015394Y-94574374D01*
X76937914Y-94318955D01*
X76812092Y-94083560D01*
X76642765Y-93877235D01*
X76436440Y-93707908D01*
X76342743Y-93657826D01*
X76400000Y-93658072D01*
X76524482Y-93645812D01*
X76644180Y-93609502D01*
X76754494Y-93550537D01*
X76851185Y-93471185D01*
X76930537Y-93374494D01*
X76989502Y-93264180D01*
X77025812Y-93144482D01*
X77038072Y-93020000D01*
X77035000Y-92585750D01*
X76876250Y-92427000D01*
X75527000Y-92427000D01*
X75527000Y-92447000D01*
X75273000Y-92447000D01*
X75273000Y-92427000D01*
X73923750Y-92427000D01*
X73765000Y-92585750D01*
X73761928Y-93020000D01*
X73774188Y-93144482D01*
X73810498Y-93264180D01*
X73869463Y-93374494D01*
X73948815Y-93471185D01*
X74045506Y-93550537D01*
X74155820Y-93609502D01*
X74275518Y-93645812D01*
X74400000Y-93658072D01*
X74457257Y-93657826D01*
X74363560Y-93707908D01*
X74157235Y-93877235D01*
X73987908Y-94083560D01*
X73862086Y-94318955D01*
X73784606Y-94574374D01*
X73758444Y-94840000D01*
X73784606Y-95105626D01*
X73862086Y-95361045D01*
X73987908Y-95596440D01*
X74137626Y-95778872D01*
X73556998Y-96359501D01*
X73528000Y-96383299D01*
X73504202Y-96412297D01*
X73504201Y-96412298D01*
X73433026Y-96499024D01*
X73362454Y-96631054D01*
X73349791Y-96672801D01*
X73318998Y-96774314D01*
X73308001Y-96885967D01*
X73304324Y-96923300D01*
X27182053Y-96923300D01*
X27107471Y-92300000D01*
X88998444Y-92300000D01*
X89024606Y-92565626D01*
X89102086Y-92821045D01*
X89227908Y-93056440D01*
X89397235Y-93262765D01*
X89603560Y-93432092D01*
X89838955Y-93557914D01*
X89878797Y-93570000D01*
X89838955Y-93582086D01*
X89603560Y-93707908D01*
X89397235Y-93877235D01*
X89227908Y-94083560D01*
X89102086Y-94318955D01*
X89024606Y-94574374D01*
X88998444Y-94840000D01*
X89024606Y-95105626D01*
X89102086Y-95361045D01*
X89227908Y-95596440D01*
X89397235Y-95802765D01*
X89603560Y-95972092D01*
X89838955Y-96097914D01*
X89878797Y-96110000D01*
X89838955Y-96122086D01*
X89603560Y-96247908D01*
X89397235Y-96417235D01*
X89227908Y-96623560D01*
X89102086Y-96858955D01*
X89024606Y-97114374D01*
X88998444Y-97380000D01*
X89024606Y-97645626D01*
X89102086Y-97901045D01*
X89227908Y-98136440D01*
X89397235Y-98342765D01*
X89603560Y-98512092D01*
X89838955Y-98637914D01*
X89878797Y-98650000D01*
X89838955Y-98662086D01*
X89603560Y-98787908D01*
X89397235Y-98957235D01*
X89227908Y-99163560D01*
X89102086Y-99398955D01*
X89024606Y-99654374D01*
X88998444Y-99920000D01*
X89024606Y-100185626D01*
X89102086Y-100441045D01*
X89227908Y-100676440D01*
X89397235Y-100882765D01*
X89603560Y-101052092D01*
X89838955Y-101177914D01*
X89878797Y-101190000D01*
X89838955Y-101202086D01*
X89603560Y-101327908D01*
X89397235Y-101497235D01*
X89227908Y-101703560D01*
X89102086Y-101938955D01*
X89024606Y-102194374D01*
X88998444Y-102460000D01*
X89024606Y-102725626D01*
X89102086Y-102981045D01*
X89227908Y-103216440D01*
X89397235Y-103422765D01*
X89603560Y-103592092D01*
X89838955Y-103717914D01*
X89878797Y-103730000D01*
X89838955Y-103742086D01*
X89603560Y-103867908D01*
X89397235Y-104037235D01*
X89227908Y-104243560D01*
X89102086Y-104478955D01*
X89024606Y-104734374D01*
X88998444Y-105000000D01*
X89024606Y-105265626D01*
X89102086Y-105521045D01*
X89227908Y-105756440D01*
X89397235Y-105962765D01*
X89603560Y-106132092D01*
X89838955Y-106257914D01*
X89878797Y-106270000D01*
X89838955Y-106282086D01*
X89603560Y-106407908D01*
X89397235Y-106577235D01*
X89227908Y-106783560D01*
X89102086Y-107018955D01*
X89024606Y-107274374D01*
X88998444Y-107540000D01*
X89024606Y-107805626D01*
X89102086Y-108061045D01*
X89227908Y-108296440D01*
X89397235Y-108502765D01*
X89603560Y-108672092D01*
X89838955Y-108797914D01*
X89878797Y-108810000D01*
X89838955Y-108822086D01*
X89603560Y-108947908D01*
X89397235Y-109117235D01*
X89227908Y-109323560D01*
X89102086Y-109558955D01*
X89024606Y-109814374D01*
X88998444Y-110080000D01*
X89024606Y-110345626D01*
X89102086Y-110601045D01*
X89227908Y-110836440D01*
X89397235Y-111042765D01*
X89603560Y-111212092D01*
X89838955Y-111337914D01*
X89878797Y-111350000D01*
X89838955Y-111362086D01*
X89603560Y-111487908D01*
X89397235Y-111657235D01*
X89227908Y-111863560D01*
X89102086Y-112098955D01*
X89024606Y-112354374D01*
X88998444Y-112620000D01*
X89024606Y-112885626D01*
X89102086Y-113141045D01*
X89227908Y-113376440D01*
X89397235Y-113582765D01*
X89603560Y-113752092D01*
X89838955Y-113877914D01*
X89878797Y-113890000D01*
X89838955Y-113902086D01*
X89603560Y-114027908D01*
X89397235Y-114197235D01*
X89227908Y-114403560D01*
X89102086Y-114638955D01*
X89024606Y-114894374D01*
X88998444Y-115160000D01*
X89024606Y-115425626D01*
X89102086Y-115681045D01*
X89227908Y-115916440D01*
X89397235Y-116122765D01*
X89603560Y-116292092D01*
X89838955Y-116417914D01*
X89878797Y-116430000D01*
X89838955Y-116442086D01*
X89603560Y-116567908D01*
X89397235Y-116737235D01*
X89227908Y-116943560D01*
X89102086Y-117178955D01*
X89024606Y-117434374D01*
X88998444Y-117700000D01*
X89024606Y-117965626D01*
X89102086Y-118221045D01*
X89227908Y-118456440D01*
X89397235Y-118662765D01*
X89603560Y-118832092D01*
X89838955Y-118957914D01*
X89878797Y-118970000D01*
X89838955Y-118982086D01*
X89603560Y-119107908D01*
X89397235Y-119277235D01*
X89227908Y-119483560D01*
X89102086Y-119718955D01*
X89024606Y-119974374D01*
X88998444Y-120240000D01*
X89024606Y-120505626D01*
X89102086Y-120761045D01*
X89227908Y-120996440D01*
X89397235Y-121202765D01*
X89603560Y-121372092D01*
X89838955Y-121497914D01*
X89878797Y-121510000D01*
X89838955Y-121522086D01*
X89603560Y-121647908D01*
X89397235Y-121817235D01*
X89227908Y-122023560D01*
X89102086Y-122258955D01*
X89024606Y-122514374D01*
X88998444Y-122780000D01*
X89024606Y-123045626D01*
X89102086Y-123301045D01*
X89227908Y-123536440D01*
X89397235Y-123742765D01*
X89603560Y-123912092D01*
X89838955Y-124037914D01*
X89878797Y-124050000D01*
X89838955Y-124062086D01*
X89603560Y-124187908D01*
X89397235Y-124357235D01*
X89227908Y-124563560D01*
X89102086Y-124798955D01*
X89024606Y-125054374D01*
X88998444Y-125320000D01*
X89024606Y-125585626D01*
X89102086Y-125841045D01*
X89227908Y-126076440D01*
X89397235Y-126282765D01*
X89603560Y-126452092D01*
X89838955Y-126577914D01*
X89878797Y-126590000D01*
X89838955Y-126602086D01*
X89603560Y-126727908D01*
X89397235Y-126897235D01*
X89227908Y-127103560D01*
X89102086Y-127338955D01*
X89024606Y-127594374D01*
X88998444Y-127860000D01*
X89024606Y-128125626D01*
X89102086Y-128381045D01*
X89227908Y-128616440D01*
X89397235Y-128822765D01*
X89603560Y-128992092D01*
X89838955Y-129117914D01*
X89878797Y-129130000D01*
X89838955Y-129142086D01*
X89603560Y-129267908D01*
X89397235Y-129437235D01*
X89227908Y-129643560D01*
X89102086Y-129878955D01*
X89024606Y-130134374D01*
X88998444Y-130400000D01*
X89024606Y-130665626D01*
X89102086Y-130921045D01*
X89227908Y-131156440D01*
X89397235Y-131362765D01*
X89603560Y-131532092D01*
X89838955Y-131657914D01*
X89878797Y-131670000D01*
X89838955Y-131682086D01*
X89603560Y-131807908D01*
X89397235Y-131977235D01*
X89227908Y-132183560D01*
X89102086Y-132418955D01*
X89024606Y-132674374D01*
X88998444Y-132940000D01*
X89024606Y-133205626D01*
X89102086Y-133461045D01*
X89227908Y-133696440D01*
X89397235Y-133902765D01*
X89603560Y-134072092D01*
X89838955Y-134197914D01*
X89878797Y-134210000D01*
X89838955Y-134222086D01*
X89603560Y-134347908D01*
X89397235Y-134517235D01*
X89227908Y-134723560D01*
X89102086Y-134958955D01*
X89024606Y-135214374D01*
X88998444Y-135480000D01*
X89024606Y-135745626D01*
X89102086Y-136001045D01*
X89227908Y-136236440D01*
X89397235Y-136442765D01*
X89603560Y-136612092D01*
X89838955Y-136737914D01*
X89878797Y-136750000D01*
X89838955Y-136762086D01*
X89603560Y-136887908D01*
X89397235Y-137057235D01*
X89227908Y-137263560D01*
X89102086Y-137498955D01*
X89024606Y-137754374D01*
X88998444Y-138020000D01*
X89024606Y-138285626D01*
X89102086Y-138541045D01*
X89227908Y-138776440D01*
X89397235Y-138982765D01*
X89603560Y-139152092D01*
X89838955Y-139277914D01*
X89878797Y-139290000D01*
X89838955Y-139302086D01*
X89603560Y-139427908D01*
X89397235Y-139597235D01*
X89227908Y-139803560D01*
X89102086Y-140038955D01*
X89024606Y-140294374D01*
X88998444Y-140560000D01*
X89024606Y-140825626D01*
X89102086Y-141081045D01*
X89227908Y-141316440D01*
X89397235Y-141522765D01*
X89603560Y-141692092D01*
X89838955Y-141817914D01*
X90094374Y-141895394D01*
X90293436Y-141915000D01*
X90986564Y-141915000D01*
X91185626Y-141895394D01*
X91441045Y-141817914D01*
X91676440Y-141692092D01*
X91882765Y-141522765D01*
X92052092Y-141316440D01*
X92177914Y-141081045D01*
X92255394Y-140825626D01*
X92281556Y-140560000D01*
X92255394Y-140294374D01*
X92177914Y-140038955D01*
X92052092Y-139803560D01*
X91882765Y-139597235D01*
X91676440Y-139427908D01*
X91441045Y-139302086D01*
X91401203Y-139290000D01*
X91441045Y-139277914D01*
X91676440Y-139152092D01*
X91882765Y-138982765D01*
X92052092Y-138776440D01*
X92177914Y-138541045D01*
X92255394Y-138285626D01*
X92281556Y-138020000D01*
X92255394Y-137754374D01*
X92177914Y-137498955D01*
X92052092Y-137263560D01*
X91882765Y-137057235D01*
X91676440Y-136887908D01*
X91441045Y-136762086D01*
X91401203Y-136750000D01*
X91441045Y-136737914D01*
X91676440Y-136612092D01*
X91882765Y-136442765D01*
X92052092Y-136236440D01*
X92177914Y-136001045D01*
X92255394Y-135745626D01*
X92281556Y-135480000D01*
X92255394Y-135214374D01*
X92177914Y-134958955D01*
X92052092Y-134723560D01*
X91882765Y-134517235D01*
X91676440Y-134347908D01*
X91441045Y-134222086D01*
X91401203Y-134210000D01*
X91441045Y-134197914D01*
X91676440Y-134072092D01*
X91882765Y-133902765D01*
X92052092Y-133696440D01*
X92177914Y-133461045D01*
X92255394Y-133205626D01*
X92281556Y-132940000D01*
X92255394Y-132674374D01*
X92177914Y-132418955D01*
X92052092Y-132183560D01*
X91882765Y-131977235D01*
X91676440Y-131807908D01*
X91441045Y-131682086D01*
X91401203Y-131670000D01*
X91441045Y-131657914D01*
X91676440Y-131532092D01*
X91882765Y-131362765D01*
X92052092Y-131156440D01*
X92177914Y-130921045D01*
X92255394Y-130665626D01*
X92281556Y-130400000D01*
X92255394Y-130134374D01*
X92177914Y-129878955D01*
X92052092Y-129643560D01*
X91882765Y-129437235D01*
X91676440Y-129267908D01*
X91441045Y-129142086D01*
X91401203Y-129130000D01*
X91441045Y-129117914D01*
X91676440Y-128992092D01*
X91882765Y-128822765D01*
X92052092Y-128616440D01*
X92177914Y-128381045D01*
X92255394Y-128125626D01*
X92281556Y-127860000D01*
X92255394Y-127594374D01*
X92177914Y-127338955D01*
X92052092Y-127103560D01*
X91882765Y-126897235D01*
X91676440Y-126727908D01*
X91441045Y-126602086D01*
X91401203Y-126590000D01*
X91441045Y-126577914D01*
X91676440Y-126452092D01*
X91882765Y-126282765D01*
X92052092Y-126076440D01*
X92177914Y-125841045D01*
X92255394Y-125585626D01*
X92281556Y-125320000D01*
X92255394Y-125054374D01*
X92177914Y-124798955D01*
X92052092Y-124563560D01*
X91882765Y-124357235D01*
X91676440Y-124187908D01*
X91441045Y-124062086D01*
X91401203Y-124050000D01*
X91441045Y-124037914D01*
X91676440Y-123912092D01*
X91882765Y-123742765D01*
X92052092Y-123536440D01*
X92177914Y-123301045D01*
X92255394Y-123045626D01*
X92281556Y-122780000D01*
X92255394Y-122514374D01*
X92177914Y-122258955D01*
X92052092Y-122023560D01*
X91882765Y-121817235D01*
X91676440Y-121647908D01*
X91441045Y-121522086D01*
X91401203Y-121510000D01*
X91441045Y-121497914D01*
X91676440Y-121372092D01*
X91882765Y-121202765D01*
X92052092Y-120996440D01*
X92177914Y-120761045D01*
X92255394Y-120505626D01*
X92281556Y-120240000D01*
X92255394Y-119974374D01*
X92177914Y-119718955D01*
X92052092Y-119483560D01*
X91882765Y-119277235D01*
X91676440Y-119107908D01*
X91441045Y-118982086D01*
X91401203Y-118970000D01*
X91441045Y-118957914D01*
X91676440Y-118832092D01*
X91882765Y-118662765D01*
X92052092Y-118456440D01*
X92177914Y-118221045D01*
X92255394Y-117965626D01*
X92281556Y-117700000D01*
X92255394Y-117434374D01*
X92177914Y-117178955D01*
X92052092Y-116943560D01*
X91882765Y-116737235D01*
X91676440Y-116567908D01*
X91441045Y-116442086D01*
X91401203Y-116430000D01*
X91441045Y-116417914D01*
X91676440Y-116292092D01*
X91882765Y-116122765D01*
X92052092Y-115916440D01*
X92177914Y-115681045D01*
X92255394Y-115425626D01*
X92281556Y-115160000D01*
X92255394Y-114894374D01*
X92177914Y-114638955D01*
X92052092Y-114403560D01*
X91882765Y-114197235D01*
X91676440Y-114027908D01*
X91441045Y-113902086D01*
X91401203Y-113890000D01*
X91441045Y-113877914D01*
X91676440Y-113752092D01*
X91882765Y-113582765D01*
X92052092Y-113376440D01*
X92177914Y-113141045D01*
X92255394Y-112885626D01*
X92281556Y-112620000D01*
X92255394Y-112354374D01*
X92177914Y-112098955D01*
X92052092Y-111863560D01*
X91882765Y-111657235D01*
X91676440Y-111487908D01*
X91441045Y-111362086D01*
X91401203Y-111350000D01*
X91441045Y-111337914D01*
X91676440Y-111212092D01*
X91882765Y-111042765D01*
X92052092Y-110836440D01*
X92177914Y-110601045D01*
X92255394Y-110345626D01*
X92281556Y-110080000D01*
X92255394Y-109814374D01*
X92177914Y-109558955D01*
X92052092Y-109323560D01*
X91882765Y-109117235D01*
X91676440Y-108947908D01*
X91441045Y-108822086D01*
X91401203Y-108810000D01*
X91441045Y-108797914D01*
X91676440Y-108672092D01*
X91882765Y-108502765D01*
X92052092Y-108296440D01*
X92177914Y-108061045D01*
X92255394Y-107805626D01*
X92281556Y-107540000D01*
X92255394Y-107274374D01*
X92177914Y-107018955D01*
X92052092Y-106783560D01*
X91882765Y-106577235D01*
X91676440Y-106407908D01*
X91441045Y-106282086D01*
X91401203Y-106270000D01*
X91441045Y-106257914D01*
X91676440Y-106132092D01*
X91882765Y-105962765D01*
X92052092Y-105756440D01*
X92177914Y-105521045D01*
X92255394Y-105265626D01*
X92281556Y-105000000D01*
X92255394Y-104734374D01*
X92177914Y-104478955D01*
X92052092Y-104243560D01*
X91882765Y-104037235D01*
X91676440Y-103867908D01*
X91441045Y-103742086D01*
X91401203Y-103730000D01*
X91441045Y-103717914D01*
X91676440Y-103592092D01*
X91882765Y-103422765D01*
X92052092Y-103216440D01*
X92177914Y-102981045D01*
X92255394Y-102725626D01*
X92281556Y-102460000D01*
X92255394Y-102194374D01*
X92177914Y-101938955D01*
X92052092Y-101703560D01*
X91882765Y-101497235D01*
X91676440Y-101327908D01*
X91441045Y-101202086D01*
X91401203Y-101190000D01*
X91441045Y-101177914D01*
X91676440Y-101052092D01*
X91882765Y-100882765D01*
X92052092Y-100676440D01*
X92177914Y-100441045D01*
X92255394Y-100185626D01*
X92281556Y-99920000D01*
X92255394Y-99654374D01*
X92177914Y-99398955D01*
X92052092Y-99163560D01*
X91882765Y-98957235D01*
X91676440Y-98787908D01*
X91441045Y-98662086D01*
X91401203Y-98650000D01*
X91441045Y-98637914D01*
X91676440Y-98512092D01*
X91882765Y-98342765D01*
X92052092Y-98136440D01*
X92177914Y-97901045D01*
X92255394Y-97645626D01*
X92281556Y-97380000D01*
X92255394Y-97114374D01*
X92177914Y-96858955D01*
X92052092Y-96623560D01*
X91882765Y-96417235D01*
X91676440Y-96247908D01*
X91441045Y-96122086D01*
X91401203Y-96110000D01*
X91441045Y-96097914D01*
X91676440Y-95972092D01*
X91882765Y-95802765D01*
X92052092Y-95596440D01*
X92177914Y-95361045D01*
X92255394Y-95105626D01*
X92281556Y-94840000D01*
X92255394Y-94574374D01*
X92177914Y-94318955D01*
X92052092Y-94083560D01*
X91882765Y-93877235D01*
X91676440Y-93707908D01*
X91441045Y-93582086D01*
X91401203Y-93570000D01*
X91441045Y-93557914D01*
X91676440Y-93432092D01*
X91882765Y-93262765D01*
X92052092Y-93056440D01*
X92177914Y-92821045D01*
X92255394Y-92565626D01*
X92281556Y-92300000D01*
X92255394Y-92034374D01*
X92177914Y-91778955D01*
X92052092Y-91543560D01*
X91882765Y-91337235D01*
X91676440Y-91167908D01*
X91441045Y-91042086D01*
X91185626Y-90964606D01*
X90986564Y-90945000D01*
X90293436Y-90945000D01*
X90094374Y-90964606D01*
X89838955Y-91042086D01*
X89603560Y-91167908D01*
X89397235Y-91337235D01*
X89227908Y-91543560D01*
X89102086Y-91778955D01*
X89024606Y-92034374D01*
X88998444Y-92300000D01*
X27107471Y-92300000D01*
X27095856Y-91580000D01*
X73761928Y-91580000D01*
X73765000Y-92014250D01*
X73923750Y-92173000D01*
X75273000Y-92173000D01*
X75273000Y-91103750D01*
X75527000Y-91103750D01*
X75527000Y-92173000D01*
X76876250Y-92173000D01*
X77035000Y-92014250D01*
X77038072Y-91580000D01*
X77025812Y-91455518D01*
X76989502Y-91335820D01*
X76930537Y-91225506D01*
X76851185Y-91128815D01*
X76754494Y-91049463D01*
X76644180Y-90990498D01*
X76524482Y-90954188D01*
X76400000Y-90941928D01*
X75685750Y-90945000D01*
X75527000Y-91103750D01*
X75273000Y-91103750D01*
X75114250Y-90945000D01*
X74400000Y-90941928D01*
X74275518Y-90954188D01*
X74155820Y-90990498D01*
X74045506Y-91049463D01*
X73948815Y-91128815D01*
X73869463Y-91225506D01*
X73810498Y-91335820D01*
X73774188Y-91455518D01*
X73761928Y-91580000D01*
X27095856Y-91580000D01*
X26756772Y-70560413D01*
X59459192Y-70560413D01*
X59554956Y-70824814D01*
X59844571Y-70965704D01*
X60156108Y-71047384D01*
X60477595Y-71066718D01*
X60796675Y-71022961D01*
X61101088Y-70917795D01*
X61275044Y-70824814D01*
X61370808Y-70560413D01*
X60415000Y-69604605D01*
X59459192Y-70560413D01*
X26756772Y-70560413D01*
X26739465Y-69487595D01*
X58773282Y-69487595D01*
X58817039Y-69806675D01*
X58922205Y-70111088D01*
X59015186Y-70285044D01*
X59279587Y-70380808D01*
X60235395Y-69425000D01*
X60594605Y-69425000D01*
X61550413Y-70380808D01*
X61814814Y-70285044D01*
X61955704Y-69995429D01*
X62037384Y-69683892D01*
X62056718Y-69362405D01*
X62043219Y-69263967D01*
X71900000Y-69263967D01*
X71900000Y-69586033D01*
X71962832Y-69901912D01*
X72086082Y-70199463D01*
X72265013Y-70467252D01*
X72492748Y-70694987D01*
X72760537Y-70873918D01*
X73058088Y-70997168D01*
X73373967Y-71060000D01*
X73696033Y-71060000D01*
X74011912Y-70997168D01*
X74309463Y-70873918D01*
X74577252Y-70694987D01*
X74804987Y-70467252D01*
X74983918Y-70199463D01*
X75107168Y-69901912D01*
X75170000Y-69586033D01*
X75170000Y-69263967D01*
X75107168Y-68948088D01*
X74983918Y-68650537D01*
X74804987Y-68382748D01*
X74577252Y-68155013D01*
X74309463Y-67976082D01*
X74011912Y-67852832D01*
X73696033Y-67790000D01*
X73373967Y-67790000D01*
X73058088Y-67852832D01*
X72760537Y-67976082D01*
X72492748Y-68155013D01*
X72265013Y-68382748D01*
X72086082Y-68650537D01*
X71962832Y-68948088D01*
X71900000Y-69263967D01*
X62043219Y-69263967D01*
X62012961Y-69043325D01*
X61907795Y-68738912D01*
X61814814Y-68564956D01*
X61550413Y-68469192D01*
X60594605Y-69425000D01*
X60235395Y-69425000D01*
X59279587Y-68469192D01*
X59015186Y-68564956D01*
X58874296Y-68854571D01*
X58792616Y-69166108D01*
X58773282Y-69487595D01*
X26739465Y-69487595D01*
X26720139Y-68289587D01*
X59459192Y-68289587D01*
X60415000Y-69245395D01*
X61370808Y-68289587D01*
X61275044Y-68025186D01*
X60985429Y-67884296D01*
X60673892Y-67802616D01*
X60352405Y-67783282D01*
X60033325Y-67827039D01*
X59728912Y-67932205D01*
X59554956Y-68025186D01*
X59459192Y-68289587D01*
X26720139Y-68289587D01*
X26618257Y-61974042D01*
X36540000Y-61974042D01*
X36540000Y-62305958D01*
X36604754Y-62631496D01*
X36731772Y-62938147D01*
X36916175Y-63214125D01*
X37150875Y-63448825D01*
X37426853Y-63633228D01*
X37733504Y-63760246D01*
X38059042Y-63825000D01*
X38390958Y-63825000D01*
X38716496Y-63760246D01*
X39023147Y-63633228D01*
X39299125Y-63448825D01*
X39533825Y-63214125D01*
X39718228Y-62938147D01*
X39845246Y-62631496D01*
X39910000Y-62305958D01*
X39910000Y-61974042D01*
X39845246Y-61648504D01*
X39718228Y-61341853D01*
X39596717Y-61160000D01*
X39623722Y-61160000D01*
X39915451Y-61101971D01*
X40190253Y-60988144D01*
X40437569Y-60822893D01*
X40647893Y-60612569D01*
X40813144Y-60365253D01*
X40926971Y-60090451D01*
X40985000Y-59798722D01*
X40985000Y-59501278D01*
X42465000Y-59501278D01*
X42465000Y-59798722D01*
X42523029Y-60090451D01*
X42636856Y-60365253D01*
X42802107Y-60612569D01*
X43012431Y-60822893D01*
X43259747Y-60988144D01*
X43534549Y-61101971D01*
X43826278Y-61160000D01*
X43863283Y-61160000D01*
X43741772Y-61341853D01*
X43614754Y-61648504D01*
X43550000Y-61974042D01*
X43550000Y-62305958D01*
X43614754Y-62631496D01*
X43741772Y-62938147D01*
X43926175Y-63214125D01*
X44160875Y-63448825D01*
X44436853Y-63633228D01*
X44743504Y-63760246D01*
X45069042Y-63825000D01*
X45400958Y-63825000D01*
X45726496Y-63760246D01*
X46033147Y-63633228D01*
X46309125Y-63448825D01*
X46543825Y-63214125D01*
X46728228Y-62938147D01*
X46855246Y-62631496D01*
X46920000Y-62305958D01*
X46920000Y-61974042D01*
X46855246Y-61648504D01*
X46728228Y-61341853D01*
X46543825Y-61065875D01*
X46309125Y-60831175D01*
X46033147Y-60646772D01*
X45726496Y-60519754D01*
X45400958Y-60455000D01*
X45253177Y-60455000D01*
X45313144Y-60365253D01*
X45426971Y-60090451D01*
X45485000Y-59798722D01*
X45485000Y-59501278D01*
X45426971Y-59209549D01*
X45313144Y-58934747D01*
X45147893Y-58687431D01*
X44937569Y-58477107D01*
X44690253Y-58311856D01*
X44415451Y-58198029D01*
X44123722Y-58140000D01*
X43826278Y-58140000D01*
X43534549Y-58198029D01*
X43259747Y-58311856D01*
X43012431Y-58477107D01*
X42802107Y-58687431D01*
X42636856Y-58934747D01*
X42523029Y-59209549D01*
X42465000Y-59501278D01*
X40985000Y-59501278D01*
X40926971Y-59209549D01*
X40813144Y-58934747D01*
X40647893Y-58687431D01*
X40437569Y-58477107D01*
X40190253Y-58311856D01*
X39915451Y-58198029D01*
X39623722Y-58140000D01*
X39326278Y-58140000D01*
X39034549Y-58198029D01*
X38759747Y-58311856D01*
X38512431Y-58477107D01*
X38302107Y-58687431D01*
X38136856Y-58934747D01*
X38023029Y-59209549D01*
X37965000Y-59501278D01*
X37965000Y-59798722D01*
X38023029Y-60090451D01*
X38136856Y-60365253D01*
X38196823Y-60455000D01*
X38059042Y-60455000D01*
X37733504Y-60519754D01*
X37426853Y-60646772D01*
X37150875Y-60831175D01*
X36916175Y-61065875D01*
X36731772Y-61341853D01*
X36604754Y-61648504D01*
X36540000Y-61974042D01*
X26618257Y-61974042D01*
X26325551Y-43829361D01*
X104086900Y-43829361D01*
X104086900Y-44033239D01*
X104126674Y-44233198D01*
X104204695Y-44421556D01*
X104317963Y-44591074D01*
X104361901Y-44635012D01*
X104361900Y-53212578D01*
X104358224Y-53249900D01*
X104361900Y-53287222D01*
X104361900Y-53287232D01*
X104372897Y-53398885D01*
X104416354Y-53542146D01*
X104486926Y-53674176D01*
X104526771Y-53722726D01*
X104581899Y-53789901D01*
X104610903Y-53813704D01*
X121064700Y-70267502D01*
X121064700Y-70329639D01*
X121104474Y-70529598D01*
X121182495Y-70717956D01*
X121295763Y-70887474D01*
X121339701Y-70931412D01*
X121339700Y-105732667D01*
X121336023Y-105770000D01*
X121350697Y-105918986D01*
X121394154Y-106062247D01*
X121464726Y-106194276D01*
X121536790Y-106282086D01*
X121559699Y-106310001D01*
X121675424Y-106404974D01*
X121807453Y-106475546D01*
X121863252Y-106492472D01*
X121887086Y-106571044D01*
X122012908Y-106806439D01*
X122182235Y-107012764D01*
X122388560Y-107182092D01*
X122623955Y-107307914D01*
X122879374Y-107385394D01*
X123145000Y-107411556D01*
X123410625Y-107385394D01*
X123666044Y-107307914D01*
X123901439Y-107182092D01*
X124107764Y-107012765D01*
X124277092Y-106806440D01*
X124402914Y-106571045D01*
X124415000Y-106531202D01*
X124427086Y-106571044D01*
X124552908Y-106806439D01*
X124722235Y-107012764D01*
X124928560Y-107182092D01*
X125163955Y-107307914D01*
X125419374Y-107385394D01*
X125685000Y-107411556D01*
X125950625Y-107385394D01*
X125970301Y-107379425D01*
X125970300Y-122172978D01*
X125966624Y-122210300D01*
X125970300Y-122247622D01*
X125970300Y-122247632D01*
X125981297Y-122359285D01*
X126024754Y-122502546D01*
X126095326Y-122634576D01*
X126135171Y-122683126D01*
X126190299Y-122750301D01*
X126219303Y-122774104D01*
X130984300Y-127539102D01*
X130984300Y-127601239D01*
X131024074Y-127801198D01*
X131102095Y-127989556D01*
X131215363Y-128159074D01*
X131359526Y-128303237D01*
X131529044Y-128416505D01*
X131717402Y-128494526D01*
X131917361Y-128534300D01*
X132121239Y-128534300D01*
X132321198Y-128494526D01*
X132509556Y-128416505D01*
X132679074Y-128303237D01*
X132823237Y-128159074D01*
X132936505Y-127989556D01*
X133014526Y-127801198D01*
X133054300Y-127601239D01*
X133054300Y-127397361D01*
X133014526Y-127197402D01*
X132936505Y-127009044D01*
X132823237Y-126839526D01*
X132679074Y-126695363D01*
X132509556Y-126582095D01*
X132321198Y-126504074D01*
X132121239Y-126464300D01*
X132059102Y-126464300D01*
X127490300Y-121895499D01*
X127490300Y-107193712D01*
X127703955Y-107307914D01*
X127959374Y-107385394D01*
X128225000Y-107411556D01*
X128490625Y-107385394D01*
X128746044Y-107307914D01*
X128981439Y-107182092D01*
X129187764Y-107012765D01*
X129357092Y-106806440D01*
X129482914Y-106571045D01*
X129495000Y-106531202D01*
X129507086Y-106571044D01*
X129632908Y-106806439D01*
X129802235Y-107012764D01*
X130008560Y-107182092D01*
X130243955Y-107307914D01*
X130499374Y-107385394D01*
X130765000Y-107411556D01*
X131030625Y-107385394D01*
X131286044Y-107307914D01*
X131521439Y-107182092D01*
X131727764Y-107012765D01*
X131897092Y-106806440D01*
X132022914Y-106571045D01*
X132036505Y-106526241D01*
X132101744Y-106685869D01*
X132248916Y-106908395D01*
X132436673Y-107097933D01*
X132657799Y-107247199D01*
X132903797Y-107350458D01*
X132968528Y-107362559D01*
X133178000Y-107239489D01*
X133178000Y-105897000D01*
X133158000Y-105897000D01*
X133158000Y-105643000D01*
X133178000Y-105643000D01*
X133178000Y-104300511D01*
X132968528Y-104177441D01*
X132903797Y-104189542D01*
X132657799Y-104292801D01*
X132436673Y-104442067D01*
X132248916Y-104631605D01*
X132101744Y-104854131D01*
X132036505Y-105013759D01*
X132022914Y-104968955D01*
X131897092Y-104733560D01*
X131727765Y-104527235D01*
X131521440Y-104357908D01*
X131286045Y-104232086D01*
X131030626Y-104154606D01*
X130765000Y-104128444D01*
X130499375Y-104154606D01*
X130243956Y-104232086D01*
X130008561Y-104357908D01*
X129802236Y-104527235D01*
X129632908Y-104733560D01*
X129507086Y-104968955D01*
X129495000Y-105008798D01*
X129482914Y-104968955D01*
X129357092Y-104733560D01*
X129187765Y-104527235D01*
X128981440Y-104357908D01*
X128794510Y-104257991D01*
X129798004Y-103254498D01*
X129827001Y-103230701D01*
X129921974Y-103114976D01*
X129992546Y-102982947D01*
X130036003Y-102839686D01*
X130047000Y-102728033D01*
X130047000Y-102728023D01*
X130050676Y-102690700D01*
X130047000Y-102653377D01*
X130047000Y-99582639D01*
X130243955Y-99687914D01*
X130499374Y-99765394D01*
X130765000Y-99791556D01*
X131030625Y-99765394D01*
X131286044Y-99687914D01*
X131521439Y-99562092D01*
X131727764Y-99392765D01*
X131897092Y-99186440D01*
X132022914Y-98951045D01*
X132035000Y-98911202D01*
X132047086Y-98951044D01*
X132172908Y-99186439D01*
X132342235Y-99392764D01*
X132548560Y-99562092D01*
X132783955Y-99687914D01*
X133039374Y-99765394D01*
X133305000Y-99791556D01*
X133570625Y-99765394D01*
X133826044Y-99687914D01*
X134061439Y-99562092D01*
X134267764Y-99392765D01*
X134437092Y-99186440D01*
X134562914Y-98951045D01*
X134575000Y-98911202D01*
X134587086Y-98951044D01*
X134712908Y-99186439D01*
X134882235Y-99392764D01*
X135088560Y-99562092D01*
X135323955Y-99687914D01*
X135579374Y-99765394D01*
X135845000Y-99791556D01*
X136110625Y-99765394D01*
X136366044Y-99687914D01*
X136601439Y-99562092D01*
X136807764Y-99392765D01*
X136977092Y-99186440D01*
X137102914Y-98951045D01*
X137115000Y-98911202D01*
X137127086Y-98951044D01*
X137252908Y-99186439D01*
X137422235Y-99392764D01*
X137628560Y-99562092D01*
X137863955Y-99687914D01*
X138119374Y-99765394D01*
X138385000Y-99791556D01*
X138650625Y-99765394D01*
X138906044Y-99687914D01*
X139141439Y-99562092D01*
X139347764Y-99392765D01*
X139517092Y-99186440D01*
X139566928Y-99093204D01*
X139566928Y-99150000D01*
X139579188Y-99274482D01*
X139615498Y-99394180D01*
X139674463Y-99504494D01*
X139753815Y-99601185D01*
X139850506Y-99680537D01*
X139960820Y-99739502D01*
X140080518Y-99775812D01*
X140205000Y-99788072D01*
X141274827Y-99788072D01*
X136658315Y-104404584D01*
X136601440Y-104357908D01*
X136366045Y-104232086D01*
X136110626Y-104154606D01*
X135845000Y-104128444D01*
X135579375Y-104154606D01*
X135323956Y-104232086D01*
X135088561Y-104357908D01*
X134882236Y-104527235D01*
X134712908Y-104733560D01*
X134587086Y-104968955D01*
X134573495Y-105013759D01*
X134508256Y-104854131D01*
X134361084Y-104631605D01*
X134173327Y-104442067D01*
X133952201Y-104292801D01*
X133706203Y-104189542D01*
X133641472Y-104177441D01*
X133432000Y-104300511D01*
X133432000Y-105643000D01*
X133452000Y-105643000D01*
X133452000Y-105897000D01*
X133432000Y-105897000D01*
X133432000Y-107239489D01*
X133641472Y-107362559D01*
X133706203Y-107350458D01*
X133952201Y-107247199D01*
X134173327Y-107097933D01*
X134361084Y-106908395D01*
X134508256Y-106685869D01*
X134573495Y-106526241D01*
X134587086Y-106571044D01*
X134712908Y-106806439D01*
X134882235Y-107012764D01*
X135088560Y-107182092D01*
X135323955Y-107307914D01*
X135579374Y-107385394D01*
X135607701Y-107388184D01*
X135607700Y-130304489D01*
X135563763Y-130348426D01*
X135450495Y-130517944D01*
X135372474Y-130706302D01*
X135332700Y-130906261D01*
X135332700Y-131110139D01*
X135372474Y-131310098D01*
X135450495Y-131498456D01*
X135563763Y-131667974D01*
X135627894Y-131732105D01*
X124949399Y-142410600D01*
X121994311Y-142410600D01*
X121950374Y-142366663D01*
X121780856Y-142253395D01*
X121592498Y-142175374D01*
X121392539Y-142135600D01*
X121188661Y-142135600D01*
X120988702Y-142175374D01*
X120800344Y-142253395D01*
X120630826Y-142366663D01*
X120486663Y-142510826D01*
X120373395Y-142680344D01*
X120295374Y-142868702D01*
X120255600Y-143068661D01*
X120255600Y-143272539D01*
X120295374Y-143472498D01*
X120373395Y-143660856D01*
X120486663Y-143830374D01*
X120630826Y-143974537D01*
X120800344Y-144087805D01*
X120988702Y-144165826D01*
X121188661Y-144205600D01*
X121392539Y-144205600D01*
X121592498Y-144165826D01*
X121780856Y-144087805D01*
X121950374Y-143974537D01*
X121994311Y-143930600D01*
X125226878Y-143930600D01*
X125264200Y-143934276D01*
X125301522Y-143930600D01*
X125301533Y-143930600D01*
X125413186Y-143919603D01*
X125556447Y-143876146D01*
X125688476Y-143805574D01*
X125804201Y-143710601D01*
X125828004Y-143681597D01*
X126559601Y-142950000D01*
X184211928Y-142950000D01*
X184215000Y-143564250D01*
X184373750Y-143723000D01*
X185623000Y-143723000D01*
X185623000Y-142473750D01*
X185877000Y-142473750D01*
X185877000Y-143723000D01*
X185897000Y-143723000D01*
X185897000Y-143977000D01*
X185877000Y-143977000D01*
X185877000Y-145226250D01*
X186035750Y-145385000D01*
X186650000Y-145388072D01*
X186774482Y-145375812D01*
X186894180Y-145339502D01*
X187004494Y-145280537D01*
X187101185Y-145201185D01*
X187180537Y-145104494D01*
X187239502Y-144994180D01*
X187245056Y-144975873D01*
X187311495Y-145042312D01*
X187562905Y-145210299D01*
X187842257Y-145326011D01*
X188138816Y-145385000D01*
X188441184Y-145385000D01*
X188737743Y-145326011D01*
X189017095Y-145210299D01*
X189268505Y-145042312D01*
X189482312Y-144828505D01*
X189650299Y-144577095D01*
X189766011Y-144297743D01*
X189825000Y-144001184D01*
X189825000Y-143698816D01*
X189766011Y-143402257D01*
X189650299Y-143122905D01*
X189482312Y-142871495D01*
X189268505Y-142657688D01*
X189017095Y-142489701D01*
X188737743Y-142373989D01*
X188441184Y-142315000D01*
X188138816Y-142315000D01*
X187842257Y-142373989D01*
X187562905Y-142489701D01*
X187311495Y-142657688D01*
X187245056Y-142724127D01*
X187239502Y-142705820D01*
X187180537Y-142595506D01*
X187101185Y-142498815D01*
X187004494Y-142419463D01*
X186894180Y-142360498D01*
X186774482Y-142324188D01*
X186650000Y-142311928D01*
X186035750Y-142315000D01*
X185877000Y-142473750D01*
X185623000Y-142473750D01*
X185464250Y-142315000D01*
X184850000Y-142311928D01*
X184725518Y-142324188D01*
X184605820Y-142360498D01*
X184495506Y-142419463D01*
X184398815Y-142498815D01*
X184319463Y-142595506D01*
X184260498Y-142705820D01*
X184224188Y-142825518D01*
X184211928Y-142950000D01*
X126559601Y-142950000D01*
X137809601Y-131700000D01*
X181686928Y-131700000D01*
X181699188Y-131824482D01*
X181735498Y-131944180D01*
X181794463Y-132054494D01*
X181873815Y-132151185D01*
X181970506Y-132230537D01*
X182080820Y-132289502D01*
X182200518Y-132325812D01*
X182325000Y-132338072D01*
X182939250Y-132335000D01*
X183098000Y-132176250D01*
X183098000Y-130927000D01*
X181848750Y-130927000D01*
X181690000Y-131085750D01*
X181686928Y-131700000D01*
X137809601Y-131700000D01*
X139609601Y-129900000D01*
X181686928Y-129900000D01*
X181690000Y-130514250D01*
X181848750Y-130673000D01*
X183098000Y-130673000D01*
X183098000Y-129423750D01*
X183352000Y-129423750D01*
X183352000Y-130673000D01*
X183372000Y-130673000D01*
X183372000Y-130927000D01*
X183352000Y-130927000D01*
X183352000Y-132176250D01*
X183510750Y-132335000D01*
X184125000Y-132338072D01*
X184249482Y-132325812D01*
X184369180Y-132289502D01*
X184479494Y-132230537D01*
X184576185Y-132151185D01*
X184655537Y-132054494D01*
X184714502Y-131944180D01*
X184720056Y-131925873D01*
X184786495Y-131992312D01*
X185037905Y-132160299D01*
X185317257Y-132276011D01*
X185613816Y-132335000D01*
X185916184Y-132335000D01*
X186212743Y-132276011D01*
X186492095Y-132160299D01*
X186743505Y-131992312D01*
X186957312Y-131778505D01*
X187125299Y-131527095D01*
X187241011Y-131247743D01*
X187300000Y-130951184D01*
X187300000Y-130648816D01*
X187241011Y-130352257D01*
X187125299Y-130072905D01*
X186957312Y-129821495D01*
X186743505Y-129607688D01*
X186492095Y-129439701D01*
X186212743Y-129323989D01*
X185916184Y-129265000D01*
X185613816Y-129265000D01*
X185317257Y-129323989D01*
X185037905Y-129439701D01*
X184786495Y-129607688D01*
X184720056Y-129674127D01*
X184714502Y-129655820D01*
X184655537Y-129545506D01*
X184576185Y-129448815D01*
X184479494Y-129369463D01*
X184369180Y-129310498D01*
X184249482Y-129274188D01*
X184125000Y-129261928D01*
X183510750Y-129265000D01*
X183352000Y-129423750D01*
X183098000Y-129423750D01*
X182939250Y-129265000D01*
X182325000Y-129261928D01*
X182200518Y-129274188D01*
X182080820Y-129310498D01*
X181970506Y-129369463D01*
X181873815Y-129448815D01*
X181794463Y-129545506D01*
X181735498Y-129655820D01*
X181699188Y-129775518D01*
X181686928Y-129900000D01*
X139609601Y-129900000D01*
X141436003Y-128073599D01*
X141465001Y-128049801D01*
X141559974Y-127934076D01*
X141630546Y-127802047D01*
X141674003Y-127658786D01*
X141685000Y-127547133D01*
X141685000Y-127547125D01*
X141688676Y-127509800D01*
X141685000Y-127472475D01*
X141685000Y-123375000D01*
X180861928Y-123375000D01*
X180874188Y-123499482D01*
X180910498Y-123619180D01*
X180969463Y-123729494D01*
X181048815Y-123826185D01*
X181145506Y-123905537D01*
X181255820Y-123964502D01*
X181375518Y-124000812D01*
X181500000Y-124013072D01*
X182114250Y-124010000D01*
X182273000Y-123851250D01*
X182273000Y-122602000D01*
X181023750Y-122602000D01*
X180865000Y-122760750D01*
X180861928Y-123375000D01*
X141685000Y-123375000D01*
X141685000Y-121575000D01*
X180861928Y-121575000D01*
X180865000Y-122189250D01*
X181023750Y-122348000D01*
X182273000Y-122348000D01*
X182273000Y-121098750D01*
X182527000Y-121098750D01*
X182527000Y-122348000D01*
X182547000Y-122348000D01*
X182547000Y-122602000D01*
X182527000Y-122602000D01*
X182527000Y-123851250D01*
X182685750Y-124010000D01*
X183300000Y-124013072D01*
X183424482Y-124000812D01*
X183544180Y-123964502D01*
X183654494Y-123905537D01*
X183751185Y-123826185D01*
X183830537Y-123729494D01*
X183889502Y-123619180D01*
X183895056Y-123600873D01*
X183961495Y-123667312D01*
X184212905Y-123835299D01*
X184492257Y-123951011D01*
X184788816Y-124010000D01*
X185091184Y-124010000D01*
X185387743Y-123951011D01*
X185667095Y-123835299D01*
X185918505Y-123667312D01*
X186132312Y-123453505D01*
X186300299Y-123202095D01*
X186416011Y-122922743D01*
X186475000Y-122626184D01*
X186475000Y-122323816D01*
X186416011Y-122027257D01*
X186300299Y-121747905D01*
X186132312Y-121496495D01*
X185918505Y-121282688D01*
X185667095Y-121114701D01*
X185387743Y-120998989D01*
X185091184Y-120940000D01*
X184788816Y-120940000D01*
X184492257Y-120998989D01*
X184212905Y-121114701D01*
X183961495Y-121282688D01*
X183895056Y-121349127D01*
X183889502Y-121330820D01*
X183830537Y-121220506D01*
X183751185Y-121123815D01*
X183654494Y-121044463D01*
X183544180Y-120985498D01*
X183424482Y-120949188D01*
X183300000Y-120936928D01*
X182685750Y-120940000D01*
X182527000Y-121098750D01*
X182273000Y-121098750D01*
X182114250Y-120940000D01*
X181500000Y-120936928D01*
X181375518Y-120949188D01*
X181255820Y-120985498D01*
X181145506Y-121044463D01*
X181048815Y-121123815D01*
X180969463Y-121220506D01*
X180910498Y-121330820D01*
X180874188Y-121450518D01*
X180861928Y-121575000D01*
X141685000Y-121575000D01*
X141685000Y-112200000D01*
X179371928Y-112200000D01*
X179384188Y-112324482D01*
X179420498Y-112444180D01*
X179479463Y-112554494D01*
X179558815Y-112651185D01*
X179655506Y-112730537D01*
X179765820Y-112789502D01*
X179885518Y-112825812D01*
X180010000Y-112838072D01*
X180624250Y-112835000D01*
X180783000Y-112676250D01*
X180783000Y-111427000D01*
X179533750Y-111427000D01*
X179375000Y-111585750D01*
X179371928Y-112200000D01*
X141685000Y-112200000D01*
X141685000Y-110400000D01*
X179371928Y-110400000D01*
X179375000Y-111014250D01*
X179533750Y-111173000D01*
X180783000Y-111173000D01*
X180783000Y-109923750D01*
X181037000Y-109923750D01*
X181037000Y-111173000D01*
X181057000Y-111173000D01*
X181057000Y-111427000D01*
X181037000Y-111427000D01*
X181037000Y-112676250D01*
X181195750Y-112835000D01*
X181810000Y-112838072D01*
X181934482Y-112825812D01*
X182054180Y-112789502D01*
X182164494Y-112730537D01*
X182261185Y-112651185D01*
X182340537Y-112554494D01*
X182399502Y-112444180D01*
X182405056Y-112425873D01*
X182471495Y-112492312D01*
X182722905Y-112660299D01*
X183002257Y-112776011D01*
X183298816Y-112835000D01*
X183601184Y-112835000D01*
X183897743Y-112776011D01*
X184177095Y-112660299D01*
X184428505Y-112492312D01*
X184642312Y-112278505D01*
X184810299Y-112027095D01*
X184926011Y-111747743D01*
X184985000Y-111451184D01*
X184985000Y-111148816D01*
X184926011Y-110852257D01*
X184810299Y-110572905D01*
X184642312Y-110321495D01*
X184428505Y-110107688D01*
X184177095Y-109939701D01*
X183897743Y-109823989D01*
X183601184Y-109765000D01*
X183298816Y-109765000D01*
X183002257Y-109823989D01*
X182722905Y-109939701D01*
X182471495Y-110107688D01*
X182405056Y-110174127D01*
X182399502Y-110155820D01*
X182340537Y-110045506D01*
X182261185Y-109948815D01*
X182164494Y-109869463D01*
X182054180Y-109810498D01*
X181934482Y-109774188D01*
X181810000Y-109761928D01*
X181195750Y-109765000D01*
X181037000Y-109923750D01*
X180783000Y-109923750D01*
X180624250Y-109765000D01*
X180010000Y-109761928D01*
X179885518Y-109774188D01*
X179765820Y-109810498D01*
X179655506Y-109869463D01*
X179558815Y-109948815D01*
X179479463Y-110045506D01*
X179420498Y-110155820D01*
X179384188Y-110275518D01*
X179371928Y-110400000D01*
X141685000Y-110400000D01*
X141685000Y-107179170D01*
X141887764Y-107012765D01*
X142057092Y-106806440D01*
X142182914Y-106571045D01*
X142260394Y-106315626D01*
X142280000Y-106116564D01*
X142280000Y-105423437D01*
X142260394Y-105224375D01*
X142182914Y-104968955D01*
X142057092Y-104733560D01*
X141887765Y-104527235D01*
X141681440Y-104357908D01*
X141446045Y-104232086D01*
X141190626Y-104154606D01*
X140925000Y-104128444D01*
X140659375Y-104154606D01*
X140403956Y-104232086D01*
X140190300Y-104346288D01*
X140190300Y-104287101D01*
X149752401Y-94725000D01*
X179561928Y-94725000D01*
X179574188Y-94849482D01*
X179610498Y-94969180D01*
X179669463Y-95079494D01*
X179748815Y-95176185D01*
X179845506Y-95255537D01*
X179955820Y-95314502D01*
X180075518Y-95350812D01*
X180200000Y-95363072D01*
X180814250Y-95360000D01*
X180973000Y-95201250D01*
X180973000Y-93952000D01*
X179723750Y-93952000D01*
X179565000Y-94110750D01*
X179561928Y-94725000D01*
X149752401Y-94725000D01*
X151552401Y-92925000D01*
X179561928Y-92925000D01*
X179565000Y-93539250D01*
X179723750Y-93698000D01*
X180973000Y-93698000D01*
X180973000Y-92448750D01*
X181227000Y-92448750D01*
X181227000Y-93698000D01*
X181247000Y-93698000D01*
X181247000Y-93952000D01*
X181227000Y-93952000D01*
X181227000Y-95201250D01*
X181385750Y-95360000D01*
X182000000Y-95363072D01*
X182124482Y-95350812D01*
X182244180Y-95314502D01*
X182354494Y-95255537D01*
X182451185Y-95176185D01*
X182530537Y-95079494D01*
X182589502Y-94969180D01*
X182595056Y-94950873D01*
X182661495Y-95017312D01*
X182912905Y-95185299D01*
X183192257Y-95301011D01*
X183488816Y-95360000D01*
X183791184Y-95360000D01*
X184087743Y-95301011D01*
X184367095Y-95185299D01*
X184618505Y-95017312D01*
X184832312Y-94803505D01*
X185000299Y-94552095D01*
X185116011Y-94272743D01*
X185175000Y-93976184D01*
X185175000Y-93673816D01*
X185116011Y-93377257D01*
X185000299Y-93097905D01*
X184832312Y-92846495D01*
X184618505Y-92632688D01*
X184367095Y-92464701D01*
X184087743Y-92348989D01*
X183791184Y-92290000D01*
X183488816Y-92290000D01*
X183192257Y-92348989D01*
X182912905Y-92464701D01*
X182661495Y-92632688D01*
X182595056Y-92699127D01*
X182589502Y-92680820D01*
X182530537Y-92570506D01*
X182451185Y-92473815D01*
X182354494Y-92394463D01*
X182244180Y-92335498D01*
X182124482Y-92299188D01*
X182000000Y-92286928D01*
X181385750Y-92290000D01*
X181227000Y-92448750D01*
X180973000Y-92448750D01*
X180814250Y-92290000D01*
X180200000Y-92286928D01*
X180075518Y-92299188D01*
X179955820Y-92335498D01*
X179845506Y-92394463D01*
X179748815Y-92473815D01*
X179669463Y-92570506D01*
X179610498Y-92680820D01*
X179574188Y-92800518D01*
X179561928Y-92925000D01*
X151552401Y-92925000D01*
X171227401Y-73250000D01*
X176986928Y-73250000D01*
X176999188Y-73374482D01*
X177035498Y-73494180D01*
X177094463Y-73604494D01*
X177173815Y-73701185D01*
X177270506Y-73780537D01*
X177380820Y-73839502D01*
X177500518Y-73875812D01*
X177625000Y-73888072D01*
X178239250Y-73885000D01*
X178398000Y-73726250D01*
X178398000Y-72477000D01*
X177148750Y-72477000D01*
X176990000Y-72635750D01*
X176986928Y-73250000D01*
X171227401Y-73250000D01*
X173027401Y-71450000D01*
X176986928Y-71450000D01*
X176990000Y-72064250D01*
X177148750Y-72223000D01*
X178398000Y-72223000D01*
X178398000Y-70973750D01*
X178652000Y-70973750D01*
X178652000Y-72223000D01*
X178672000Y-72223000D01*
X178672000Y-72477000D01*
X178652000Y-72477000D01*
X178652000Y-73726250D01*
X178810750Y-73885000D01*
X179425000Y-73888072D01*
X179549482Y-73875812D01*
X179669180Y-73839502D01*
X179779494Y-73780537D01*
X179876185Y-73701185D01*
X179955537Y-73604494D01*
X180014502Y-73494180D01*
X180020056Y-73475873D01*
X180086495Y-73542312D01*
X180337905Y-73710299D01*
X180617257Y-73826011D01*
X180913816Y-73885000D01*
X181216184Y-73885000D01*
X181512743Y-73826011D01*
X181792095Y-73710299D01*
X182043505Y-73542312D01*
X182257312Y-73328505D01*
X182425299Y-73077095D01*
X182541011Y-72797743D01*
X182600000Y-72501184D01*
X182600000Y-72198816D01*
X182541011Y-71902257D01*
X182425299Y-71622905D01*
X182257312Y-71371495D01*
X182043505Y-71157688D01*
X181792095Y-70989701D01*
X181512743Y-70873989D01*
X181216184Y-70815000D01*
X180913816Y-70815000D01*
X180617257Y-70873989D01*
X180337905Y-70989701D01*
X180086495Y-71157688D01*
X180020056Y-71224127D01*
X180014502Y-71205820D01*
X179955537Y-71095506D01*
X179876185Y-70998815D01*
X179779494Y-70919463D01*
X179669180Y-70860498D01*
X179549482Y-70824188D01*
X179425000Y-70811928D01*
X178810750Y-70815000D01*
X178652000Y-70973750D01*
X178398000Y-70973750D01*
X178239250Y-70815000D01*
X177625000Y-70811928D01*
X177500518Y-70824188D01*
X177380820Y-70860498D01*
X177270506Y-70919463D01*
X177173815Y-70998815D01*
X177094463Y-71095506D01*
X177035498Y-71205820D01*
X176999188Y-71325518D01*
X176986928Y-71450000D01*
X173027401Y-71450000D01*
X173214702Y-71262700D01*
X173276839Y-71262700D01*
X173476798Y-71222926D01*
X173665156Y-71144905D01*
X173834674Y-71031637D01*
X173978837Y-70887474D01*
X174092105Y-70717956D01*
X174170126Y-70529598D01*
X174209900Y-70329639D01*
X174209900Y-70125761D01*
X174170126Y-69925802D01*
X174092105Y-69737444D01*
X173978837Y-69567926D01*
X173834674Y-69423763D01*
X173665156Y-69310495D01*
X173476798Y-69232474D01*
X173276839Y-69192700D01*
X173072961Y-69192700D01*
X172873002Y-69232474D01*
X172684644Y-69310495D01*
X172515126Y-69423763D01*
X172370963Y-69567926D01*
X172257695Y-69737444D01*
X172179674Y-69925802D01*
X172139900Y-70125761D01*
X172139900Y-70187898D01*
X163221100Y-79106698D01*
X163221100Y-51775000D01*
X180721928Y-51775000D01*
X180734188Y-51899482D01*
X180770498Y-52019180D01*
X180829463Y-52129494D01*
X180908815Y-52226185D01*
X181005506Y-52305537D01*
X181115820Y-52364502D01*
X181235518Y-52400812D01*
X181360000Y-52413072D01*
X181974250Y-52410000D01*
X182133000Y-52251250D01*
X182133000Y-51002000D01*
X180883750Y-51002000D01*
X180725000Y-51160750D01*
X180721928Y-51775000D01*
X163221100Y-51775000D01*
X163221100Y-49975000D01*
X180721928Y-49975000D01*
X180725000Y-50589250D01*
X180883750Y-50748000D01*
X182133000Y-50748000D01*
X182133000Y-49498750D01*
X182387000Y-49498750D01*
X182387000Y-50748000D01*
X182407000Y-50748000D01*
X182407000Y-51002000D01*
X182387000Y-51002000D01*
X182387000Y-52251250D01*
X182545750Y-52410000D01*
X183160000Y-52413072D01*
X183284482Y-52400812D01*
X183404180Y-52364502D01*
X183514494Y-52305537D01*
X183611185Y-52226185D01*
X183690537Y-52129494D01*
X183749502Y-52019180D01*
X183755056Y-52000873D01*
X183821495Y-52067312D01*
X184072905Y-52235299D01*
X184352257Y-52351011D01*
X184648816Y-52410000D01*
X184951184Y-52410000D01*
X185247743Y-52351011D01*
X185527095Y-52235299D01*
X185778505Y-52067312D01*
X185992312Y-51853505D01*
X186160299Y-51602095D01*
X186276011Y-51322743D01*
X186335000Y-51026184D01*
X186335000Y-50723816D01*
X186276011Y-50427257D01*
X186160299Y-50147905D01*
X185992312Y-49896495D01*
X185778505Y-49682688D01*
X185527095Y-49514701D01*
X185247743Y-49398989D01*
X184951184Y-49340000D01*
X184648816Y-49340000D01*
X184352257Y-49398989D01*
X184072905Y-49514701D01*
X183821495Y-49682688D01*
X183755056Y-49749127D01*
X183749502Y-49730820D01*
X183690537Y-49620506D01*
X183611185Y-49523815D01*
X183514494Y-49444463D01*
X183404180Y-49385498D01*
X183284482Y-49349188D01*
X183160000Y-49336928D01*
X182545750Y-49340000D01*
X182387000Y-49498750D01*
X182133000Y-49498750D01*
X181974250Y-49340000D01*
X181360000Y-49336928D01*
X181235518Y-49349188D01*
X181115820Y-49385498D01*
X181005506Y-49444463D01*
X180908815Y-49523815D01*
X180829463Y-49620506D01*
X180770498Y-49730820D01*
X180734188Y-49850518D01*
X180721928Y-49975000D01*
X163221100Y-49975000D01*
X163221100Y-46920311D01*
X163265037Y-46876374D01*
X163378305Y-46706856D01*
X163456326Y-46518498D01*
X163496100Y-46318539D01*
X163496100Y-46114661D01*
X163456326Y-45914702D01*
X163378305Y-45726344D01*
X163265037Y-45556826D01*
X163120874Y-45412663D01*
X162951356Y-45299395D01*
X162762998Y-45221374D01*
X162563039Y-45181600D01*
X162359161Y-45181600D01*
X162159202Y-45221374D01*
X161970844Y-45299395D01*
X161801326Y-45412663D01*
X161657163Y-45556826D01*
X161543895Y-45726344D01*
X161465874Y-45914702D01*
X161426100Y-46114661D01*
X161426100Y-46318539D01*
X161465874Y-46518498D01*
X161543895Y-46706856D01*
X161657163Y-46876374D01*
X161701101Y-46920312D01*
X161701100Y-79361798D01*
X142283072Y-98779827D01*
X142283072Y-97150000D01*
X142270812Y-97025518D01*
X142234502Y-96905820D01*
X142175537Y-96795506D01*
X142096185Y-96698815D01*
X141999494Y-96619463D01*
X141889180Y-96560498D01*
X141769482Y-96524188D01*
X141645000Y-96511928D01*
X140205000Y-96511928D01*
X140080518Y-96524188D01*
X139960820Y-96560498D01*
X139850506Y-96619463D01*
X139753815Y-96698815D01*
X139674463Y-96795506D01*
X139615498Y-96905820D01*
X139579188Y-97025518D01*
X139566928Y-97150000D01*
X139566928Y-97206796D01*
X139517092Y-97113560D01*
X139347765Y-96907235D01*
X139141440Y-96737908D01*
X138906045Y-96612086D01*
X138650626Y-96534606D01*
X138385000Y-96508444D01*
X138119375Y-96534606D01*
X137863956Y-96612086D01*
X137628561Y-96737908D01*
X137422236Y-96907235D01*
X137252908Y-97113560D01*
X137127086Y-97348955D01*
X137115000Y-97388798D01*
X137102914Y-97348955D01*
X136977092Y-97113560D01*
X136807765Y-96907235D01*
X136601440Y-96737908D01*
X136366045Y-96612086D01*
X136110626Y-96534606D01*
X135845000Y-96508444D01*
X135579375Y-96534606D01*
X135323956Y-96612086D01*
X135088561Y-96737908D01*
X134882236Y-96907235D01*
X134712908Y-97113560D01*
X134587086Y-97348955D01*
X134575000Y-97388798D01*
X134562914Y-97348955D01*
X134437092Y-97113560D01*
X134267765Y-96907235D01*
X134061440Y-96737908D01*
X133826045Y-96612086D01*
X133570626Y-96534606D01*
X133305000Y-96508444D01*
X133039375Y-96534606D01*
X132783956Y-96612086D01*
X132548561Y-96737908D01*
X132342236Y-96907235D01*
X132172908Y-97113560D01*
X132047086Y-97348955D01*
X132035000Y-97388798D01*
X132022914Y-97348955D01*
X131897092Y-97113560D01*
X131727765Y-96907235D01*
X131521440Y-96737908D01*
X131286045Y-96612086D01*
X131030626Y-96534606D01*
X130765000Y-96508444D01*
X130499375Y-96534606D01*
X130243956Y-96612086D01*
X130047000Y-96717362D01*
X130047000Y-63312100D01*
X130198439Y-63312100D01*
X130398398Y-63272326D01*
X130586756Y-63194305D01*
X130756274Y-63081037D01*
X130900437Y-62936874D01*
X131013705Y-62767356D01*
X131091726Y-62578998D01*
X131131500Y-62379039D01*
X131131500Y-62175161D01*
X131091726Y-61975202D01*
X131013705Y-61786844D01*
X130900437Y-61617326D01*
X130756274Y-61473163D01*
X130586756Y-61359895D01*
X130398398Y-61281874D01*
X130198439Y-61242100D01*
X130047000Y-61242100D01*
X130047000Y-58344222D01*
X130050676Y-58306899D01*
X130047000Y-58269576D01*
X130047000Y-58269567D01*
X130036003Y-58157914D01*
X129992546Y-58014653D01*
X129921974Y-57882624D01*
X129827001Y-57766899D01*
X129798003Y-57743101D01*
X125407963Y-53353061D01*
X139865000Y-53353061D01*
X139865000Y-53556939D01*
X139904774Y-53756898D01*
X139982795Y-53945256D01*
X140096063Y-54114774D01*
X140240226Y-54258937D01*
X140409744Y-54372205D01*
X140598102Y-54450226D01*
X140798061Y-54490000D01*
X141001939Y-54490000D01*
X141201898Y-54450226D01*
X141390256Y-54372205D01*
X141559774Y-54258937D01*
X141703937Y-54114774D01*
X141817205Y-53945256D01*
X141895226Y-53756898D01*
X141935000Y-53556939D01*
X141935000Y-53353061D01*
X141895226Y-53153102D01*
X141817205Y-52964744D01*
X141703937Y-52795226D01*
X141559774Y-52651063D01*
X141390256Y-52537795D01*
X141201898Y-52459774D01*
X141001939Y-52420000D01*
X140798061Y-52420000D01*
X140598102Y-52459774D01*
X140409744Y-52537795D01*
X140240226Y-52651063D01*
X140096063Y-52795226D01*
X139982795Y-52964744D01*
X139904774Y-53153102D01*
X139865000Y-53353061D01*
X125407963Y-53353061D01*
X122325600Y-50270699D01*
X122325600Y-50208561D01*
X122285826Y-50008602D01*
X122207805Y-49820244D01*
X122094537Y-49650726D01*
X121950374Y-49506563D01*
X121780856Y-49393295D01*
X121592498Y-49315274D01*
X121392539Y-49275500D01*
X121188661Y-49275500D01*
X120988702Y-49315274D01*
X120800344Y-49393295D01*
X120630826Y-49506563D01*
X120486663Y-49650726D01*
X120373395Y-49820244D01*
X120295374Y-50008602D01*
X120255600Y-50208561D01*
X120255600Y-50412439D01*
X120295374Y-50612398D01*
X120373395Y-50800756D01*
X120486663Y-50970274D01*
X120630826Y-51114437D01*
X120800344Y-51227705D01*
X120988702Y-51305726D01*
X121188661Y-51345500D01*
X121250799Y-51345500D01*
X128527001Y-58621703D01*
X128527000Y-62239767D01*
X128523323Y-62277100D01*
X128527001Y-62314443D01*
X128527000Y-96545640D01*
X128490626Y-96534606D01*
X128225000Y-96508444D01*
X127959375Y-96534606D01*
X127703956Y-96612086D01*
X127468561Y-96737908D01*
X127262236Y-96907235D01*
X127092908Y-97113560D01*
X126967086Y-97348955D01*
X126955000Y-97388798D01*
X126942914Y-97348955D01*
X126817092Y-97113560D01*
X126647765Y-96907235D01*
X126441440Y-96737908D01*
X126206045Y-96612086D01*
X125950626Y-96534606D01*
X125685000Y-96508444D01*
X125419375Y-96534606D01*
X125163956Y-96612086D01*
X124928561Y-96737908D01*
X124722236Y-96907235D01*
X124552908Y-97113560D01*
X124427086Y-97348955D01*
X124413495Y-97393759D01*
X124348256Y-97234131D01*
X124201084Y-97011605D01*
X124013327Y-96822067D01*
X123792201Y-96672801D01*
X123546203Y-96569542D01*
X123481472Y-96557441D01*
X123272000Y-96680511D01*
X123272000Y-98023000D01*
X123292000Y-98023000D01*
X123292000Y-98277000D01*
X123272000Y-98277000D01*
X123272000Y-99619489D01*
X123481472Y-99742559D01*
X123546203Y-99730458D01*
X123792201Y-99627199D01*
X124013327Y-99477933D01*
X124201084Y-99288395D01*
X124348256Y-99065869D01*
X124413495Y-98906241D01*
X124427086Y-98951044D01*
X124552908Y-99186439D01*
X124722235Y-99392764D01*
X124928560Y-99562092D01*
X125163955Y-99687914D01*
X125419374Y-99765394D01*
X125685000Y-99791556D01*
X125950625Y-99765394D01*
X126206044Y-99687914D01*
X126441439Y-99562092D01*
X126647764Y-99392765D01*
X126817092Y-99186440D01*
X126942914Y-98951045D01*
X126955000Y-98911202D01*
X126967086Y-98951044D01*
X127092908Y-99186439D01*
X127262235Y-99392764D01*
X127468560Y-99562092D01*
X127703955Y-99687914D01*
X127959374Y-99765394D01*
X128225000Y-99791556D01*
X128490625Y-99765394D01*
X128527000Y-99754360D01*
X128527000Y-102375898D01*
X126498315Y-104404584D01*
X126441440Y-104357908D01*
X126206045Y-104232086D01*
X125950626Y-104154606D01*
X125685000Y-104128444D01*
X125419375Y-104154606D01*
X125163956Y-104232086D01*
X124928561Y-104357908D01*
X124722236Y-104527235D01*
X124552908Y-104733560D01*
X124427086Y-104968955D01*
X124415000Y-105008798D01*
X124402914Y-104968955D01*
X124277092Y-104733560D01*
X124107765Y-104527235D01*
X123901440Y-104357908D01*
X123666045Y-104232086D01*
X123410626Y-104154606D01*
X123145000Y-104128444D01*
X122879375Y-104154606D01*
X122859700Y-104160574D01*
X122859700Y-99712494D01*
X123018000Y-99619489D01*
X123018000Y-98277000D01*
X122998000Y-98277000D01*
X122998000Y-98023000D01*
X123018000Y-98023000D01*
X123018000Y-96680511D01*
X122859700Y-96587506D01*
X122859700Y-70931411D01*
X122903637Y-70887474D01*
X123016905Y-70717956D01*
X123094926Y-70529598D01*
X123134700Y-70329639D01*
X123134700Y-70125761D01*
X123094926Y-69925802D01*
X123016905Y-69737444D01*
X122903637Y-69567926D01*
X122759474Y-69423763D01*
X122589956Y-69310495D01*
X122401598Y-69232474D01*
X122201639Y-69192700D01*
X122139502Y-69192700D01*
X106424863Y-53478061D01*
X120415000Y-53478061D01*
X120415000Y-53681939D01*
X120454774Y-53881898D01*
X120532795Y-54070256D01*
X120646063Y-54239774D01*
X120790226Y-54383937D01*
X120959744Y-54497205D01*
X121148102Y-54575226D01*
X121348061Y-54615000D01*
X121551939Y-54615000D01*
X121751898Y-54575226D01*
X121940256Y-54497205D01*
X122109774Y-54383937D01*
X122253937Y-54239774D01*
X122367205Y-54070256D01*
X122445226Y-53881898D01*
X122485000Y-53681939D01*
X122485000Y-53478061D01*
X122445226Y-53278102D01*
X122367205Y-53089744D01*
X122253937Y-52920226D01*
X122109774Y-52776063D01*
X121940256Y-52662795D01*
X121751898Y-52584774D01*
X121551939Y-52545000D01*
X121348061Y-52545000D01*
X121148102Y-52584774D01*
X120959744Y-52662795D01*
X120790226Y-52776063D01*
X120646063Y-52920226D01*
X120532795Y-53089744D01*
X120454774Y-53278102D01*
X120415000Y-53478061D01*
X106424863Y-53478061D01*
X105881900Y-52935099D01*
X105881900Y-46428061D01*
X158540000Y-46428061D01*
X158540000Y-46631939D01*
X158579774Y-46831898D01*
X158657795Y-47020256D01*
X158771063Y-47189774D01*
X158915226Y-47333937D01*
X159084744Y-47447205D01*
X159273102Y-47525226D01*
X159473061Y-47565000D01*
X159676939Y-47565000D01*
X159876898Y-47525226D01*
X160065256Y-47447205D01*
X160234774Y-47333937D01*
X160378937Y-47189774D01*
X160492205Y-47020256D01*
X160570226Y-46831898D01*
X160610000Y-46631939D01*
X160610000Y-46428061D01*
X160570226Y-46228102D01*
X160492205Y-46039744D01*
X160378937Y-45870226D01*
X160234774Y-45726063D01*
X160065256Y-45612795D01*
X159876898Y-45534774D01*
X159676939Y-45495000D01*
X159473061Y-45495000D01*
X159273102Y-45534774D01*
X159084744Y-45612795D01*
X158915226Y-45726063D01*
X158771063Y-45870226D01*
X158657795Y-46039744D01*
X158579774Y-46228102D01*
X158540000Y-46428061D01*
X105881900Y-46428061D01*
X105881900Y-44635011D01*
X105925837Y-44591074D01*
X106039105Y-44421556D01*
X106117126Y-44233198D01*
X106156900Y-44033239D01*
X106156900Y-43829361D01*
X106117126Y-43629402D01*
X106039105Y-43441044D01*
X105925837Y-43271526D01*
X105781674Y-43127363D01*
X105612156Y-43014095D01*
X105423798Y-42936074D01*
X105223839Y-42896300D01*
X105019961Y-42896300D01*
X104820002Y-42936074D01*
X104631644Y-43014095D01*
X104462126Y-43127363D01*
X104317963Y-43271526D01*
X104204695Y-43441044D01*
X104126674Y-43629402D01*
X104086900Y-43829361D01*
X26325551Y-43829361D01*
X26255760Y-39503061D01*
X121065000Y-39503061D01*
X121065000Y-39706939D01*
X121104774Y-39906898D01*
X121182795Y-40095256D01*
X121296063Y-40264774D01*
X121440226Y-40408937D01*
X121609744Y-40522205D01*
X121798102Y-40600226D01*
X121998061Y-40640000D01*
X122201939Y-40640000D01*
X122401898Y-40600226D01*
X122590256Y-40522205D01*
X122759774Y-40408937D01*
X122903937Y-40264774D01*
X123017205Y-40095256D01*
X123095226Y-39906898D01*
X123135000Y-39706939D01*
X123135000Y-39503061D01*
X123095226Y-39303102D01*
X123064143Y-39228061D01*
X140265000Y-39228061D01*
X140265000Y-39431939D01*
X140304774Y-39631898D01*
X140382795Y-39820256D01*
X140496063Y-39989774D01*
X140640226Y-40133937D01*
X140809744Y-40247205D01*
X140998102Y-40325226D01*
X141198061Y-40365000D01*
X141401939Y-40365000D01*
X141601898Y-40325226D01*
X141790256Y-40247205D01*
X141959774Y-40133937D01*
X142103937Y-39989774D01*
X142217205Y-39820256D01*
X142295226Y-39631898D01*
X142335000Y-39431939D01*
X142335000Y-39228061D01*
X142295226Y-39028102D01*
X142288726Y-39012408D01*
X202703000Y-39012408D01*
X202703000Y-39287592D01*
X202756686Y-39557490D01*
X202861995Y-39811727D01*
X203014880Y-40040535D01*
X203209465Y-40235120D01*
X203438273Y-40388005D01*
X203692510Y-40493314D01*
X203962408Y-40547000D01*
X204237592Y-40547000D01*
X204507490Y-40493314D01*
X204761727Y-40388005D01*
X204990535Y-40235120D01*
X205185120Y-40040535D01*
X205338005Y-39811727D01*
X205443314Y-39557490D01*
X205497000Y-39287592D01*
X205497000Y-39012408D01*
X209703000Y-39012408D01*
X209703000Y-39287592D01*
X209756686Y-39557490D01*
X209861995Y-39811727D01*
X210014880Y-40040535D01*
X210209465Y-40235120D01*
X210438273Y-40388005D01*
X210692510Y-40493314D01*
X210962408Y-40547000D01*
X211237592Y-40547000D01*
X211507490Y-40493314D01*
X211761727Y-40388005D01*
X211990535Y-40235120D01*
X212185120Y-40040535D01*
X212338005Y-39811727D01*
X212443314Y-39557490D01*
X212497000Y-39287592D01*
X212497000Y-39012408D01*
X212466372Y-38858429D01*
X226139802Y-25185000D01*
X226627659Y-25185000D01*
X226714880Y-25315535D01*
X226909465Y-25510120D01*
X227138273Y-25663005D01*
X227392510Y-25768314D01*
X227662408Y-25822000D01*
X227937592Y-25822000D01*
X228207490Y-25768314D01*
X228461727Y-25663005D01*
X228690535Y-25510120D01*
X228885120Y-25315535D01*
X229038005Y-25086727D01*
X229143314Y-24832490D01*
X229197000Y-24562592D01*
X229197000Y-24287408D01*
X229143314Y-24017510D01*
X229038005Y-23763273D01*
X228885120Y-23534465D01*
X228690535Y-23339880D01*
X228560000Y-23252659D01*
X228560000Y-18597341D01*
X228690535Y-18510120D01*
X228885120Y-18315535D01*
X229038005Y-18086727D01*
X229143314Y-17832490D01*
X229197000Y-17562592D01*
X229197000Y-17287408D01*
X229143314Y-17017510D01*
X229038005Y-16763273D01*
X228885120Y-16534465D01*
X228690535Y-16339880D01*
X228461727Y-16186995D01*
X228207490Y-16081686D01*
X227937592Y-16028000D01*
X227662408Y-16028000D01*
X227392510Y-16081686D01*
X227138273Y-16186995D01*
X226909465Y-16339880D01*
X226714880Y-16534465D01*
X226561995Y-16763273D01*
X226456686Y-17017510D01*
X226403000Y-17287408D01*
X226403000Y-17562592D01*
X226456686Y-17832490D01*
X226561995Y-18086727D01*
X226714880Y-18315535D01*
X226909465Y-18510120D01*
X227040000Y-18597341D01*
X227040001Y-23252659D01*
X226909465Y-23339880D01*
X226714880Y-23534465D01*
X226627659Y-23665000D01*
X225862325Y-23665000D01*
X225825000Y-23661324D01*
X225787675Y-23665000D01*
X225787667Y-23665000D01*
X225676014Y-23675997D01*
X225532753Y-23719454D01*
X225400724Y-23790026D01*
X225284999Y-23884999D01*
X225261201Y-23913997D01*
X224697000Y-24478198D01*
X224697000Y-24287408D01*
X224643314Y-24017510D01*
X224538005Y-23763273D01*
X224385120Y-23534465D01*
X224190535Y-23339880D01*
X224060000Y-23252659D01*
X224060000Y-18597341D01*
X224190535Y-18510120D01*
X224385120Y-18315535D01*
X224538005Y-18086727D01*
X224643314Y-17832490D01*
X224697000Y-17562592D01*
X224697000Y-17287408D01*
X224643314Y-17017510D01*
X224538005Y-16763273D01*
X224385120Y-16534465D01*
X224190535Y-16339880D01*
X223961727Y-16186995D01*
X223707490Y-16081686D01*
X223437592Y-16028000D01*
X223162408Y-16028000D01*
X222892510Y-16081686D01*
X222638273Y-16186995D01*
X222409465Y-16339880D01*
X222214880Y-16534465D01*
X222061995Y-16763273D01*
X221956686Y-17017510D01*
X221903000Y-17287408D01*
X221903000Y-17562592D01*
X221956686Y-17832490D01*
X222061995Y-18086727D01*
X222214880Y-18315535D01*
X222409465Y-18510120D01*
X222540001Y-18597341D01*
X222540000Y-23252659D01*
X222409465Y-23339880D01*
X222214880Y-23534465D01*
X222061995Y-23763273D01*
X221956686Y-24017510D01*
X221903000Y-24287408D01*
X221903000Y-24562592D01*
X221956686Y-24832490D01*
X222061995Y-25086727D01*
X222214880Y-25315535D01*
X222409465Y-25510120D01*
X222638273Y-25663005D01*
X222892510Y-25768314D01*
X223162408Y-25822000D01*
X223353198Y-25822000D01*
X211391571Y-37783628D01*
X211237592Y-37753000D01*
X210962408Y-37753000D01*
X210692510Y-37806686D01*
X210438273Y-37911995D01*
X210209465Y-38064880D01*
X210014880Y-38259465D01*
X209861995Y-38488273D01*
X209756686Y-38742510D01*
X209703000Y-39012408D01*
X205497000Y-39012408D01*
X205443314Y-38742510D01*
X205338005Y-38488273D01*
X205185120Y-38259465D01*
X204990535Y-38064880D01*
X204761727Y-37911995D01*
X204507490Y-37806686D01*
X204237592Y-37753000D01*
X203962408Y-37753000D01*
X203692510Y-37806686D01*
X203438273Y-37911995D01*
X203209465Y-38064880D01*
X203014880Y-38259465D01*
X202861995Y-38488273D01*
X202756686Y-38742510D01*
X202703000Y-39012408D01*
X142288726Y-39012408D01*
X142217205Y-38839744D01*
X142103937Y-38670226D01*
X141959774Y-38526063D01*
X141790256Y-38412795D01*
X141601898Y-38334774D01*
X141401939Y-38295000D01*
X141198061Y-38295000D01*
X140998102Y-38334774D01*
X140809744Y-38412795D01*
X140640226Y-38526063D01*
X140496063Y-38670226D01*
X140382795Y-38839744D01*
X140304774Y-39028102D01*
X140265000Y-39228061D01*
X123064143Y-39228061D01*
X123017205Y-39114744D01*
X122903937Y-38945226D01*
X122759774Y-38801063D01*
X122590256Y-38687795D01*
X122401898Y-38609774D01*
X122201939Y-38570000D01*
X121998061Y-38570000D01*
X121798102Y-38609774D01*
X121609744Y-38687795D01*
X121440226Y-38801063D01*
X121296063Y-38945226D01*
X121182795Y-39114744D01*
X121104774Y-39303102D01*
X121065000Y-39503061D01*
X26255760Y-39503061D01*
X26193049Y-35615565D01*
X203314040Y-35615565D01*
X203381020Y-35855656D01*
X203630048Y-35972756D01*
X203897135Y-36039023D01*
X204172017Y-36051910D01*
X204444133Y-36010922D01*
X204703023Y-35917636D01*
X204818980Y-35855656D01*
X204885960Y-35615565D01*
X210314040Y-35615565D01*
X210381020Y-35855656D01*
X210630048Y-35972756D01*
X210897135Y-36039023D01*
X211172017Y-36051910D01*
X211444133Y-36010922D01*
X211703023Y-35917636D01*
X211818980Y-35855656D01*
X211885960Y-35615565D01*
X211100000Y-34829605D01*
X210314040Y-35615565D01*
X204885960Y-35615565D01*
X204100000Y-34829605D01*
X203314040Y-35615565D01*
X26193049Y-35615565D01*
X26178634Y-34722017D01*
X202698090Y-34722017D01*
X202739078Y-34994133D01*
X202832364Y-35253023D01*
X202894344Y-35368980D01*
X203134435Y-35435960D01*
X203920395Y-34650000D01*
X204279605Y-34650000D01*
X205065565Y-35435960D01*
X205305656Y-35368980D01*
X205422756Y-35119952D01*
X205489023Y-34852865D01*
X205495157Y-34722017D01*
X209698090Y-34722017D01*
X209739078Y-34994133D01*
X209832364Y-35253023D01*
X209894344Y-35368980D01*
X210134435Y-35435960D01*
X210920395Y-34650000D01*
X211279605Y-34650000D01*
X212065565Y-35435960D01*
X212305656Y-35368980D01*
X212422756Y-35119952D01*
X212489023Y-34852865D01*
X212501910Y-34577983D01*
X212460922Y-34305867D01*
X212367636Y-34046977D01*
X212305656Y-33931020D01*
X212065565Y-33864040D01*
X211279605Y-34650000D01*
X210920395Y-34650000D01*
X210134435Y-33864040D01*
X209894344Y-33931020D01*
X209777244Y-34180048D01*
X209710977Y-34447135D01*
X209698090Y-34722017D01*
X205495157Y-34722017D01*
X205501910Y-34577983D01*
X205460922Y-34305867D01*
X205367636Y-34046977D01*
X205305656Y-33931020D01*
X205065565Y-33864040D01*
X204279605Y-34650000D01*
X203920395Y-34650000D01*
X203134435Y-33864040D01*
X202894344Y-33931020D01*
X202777244Y-34180048D01*
X202710977Y-34447135D01*
X202698090Y-34722017D01*
X26178634Y-34722017D01*
X26161896Y-33684435D01*
X203314040Y-33684435D01*
X204100000Y-34470395D01*
X204885960Y-33684435D01*
X210314040Y-33684435D01*
X211100000Y-34470395D01*
X211885960Y-33684435D01*
X211818980Y-33444344D01*
X211569952Y-33327244D01*
X211302865Y-33260977D01*
X211027983Y-33248090D01*
X210755867Y-33289078D01*
X210496977Y-33382364D01*
X210381020Y-33444344D01*
X210314040Y-33684435D01*
X204885960Y-33684435D01*
X204818980Y-33444344D01*
X204569952Y-33327244D01*
X204302865Y-33260977D01*
X204027983Y-33248090D01*
X203755867Y-33289078D01*
X203496977Y-33382364D01*
X203381020Y-33444344D01*
X203314040Y-33684435D01*
X26161896Y-33684435D01*
X25876983Y-16022952D01*
X25874101Y-15998021D01*
X25532393Y-14426164D01*
X241395336Y-13277691D01*
X238300615Y-163122079D01*
%TD*%
M02*
