%TF.GenerationSoftware,KiCad,Pcbnew,5.1.6-c6e7f7d~87~ubuntu18.04.1*%
%TF.CreationDate,2020-08-19T22:56:15-04:00*%
%TF.ProjectId,tutorial1,7475746f-7269-4616-9c31-2e6b69636164,rev?*%
%TF.SameCoordinates,Original*%
%TF.FileFunction,Legend,Top*%
%TF.FilePolarity,Positive*%
%FSLAX46Y46*%
G04 Gerber Fmt 4.6, Leading zero omitted, Abs format (unit mm)*
G04 Created by KiCad (PCBNEW 5.1.6-c6e7f7d~87~ubuntu18.04.1) date 2020-08-19 22:56:15*
%MOMM*%
%LPD*%
G01*
G04 APERTURE LIST*
%ADD10C,0.120000*%
%ADD11C,0.150000*%
G04 APERTURE END LIST*
D10*
%TO.C,U1*%
X107890000Y-74820000D02*
X107890000Y-76470000D01*
X118170000Y-74820000D02*
X107890000Y-74820000D01*
X118170000Y-80120000D02*
X118170000Y-74820000D01*
X107890000Y-80120000D02*
X118170000Y-80120000D01*
X107890000Y-78470000D02*
X107890000Y-80120000D01*
X107890000Y-76470000D02*
G75*
G02*
X107890000Y-78470000I0J-1000000D01*
G01*
%TO.C,R2*%
X129640000Y-88900000D02*
X129710000Y-88900000D01*
X129640000Y-88900000D02*
G75*
G03*
X129640000Y-88900000I-1370000J0D01*
G01*
%TO.C,R1*%
X100430000Y-90170000D02*
X100500000Y-90170000D01*
X100430000Y-90170000D02*
G75*
G03*
X100430000Y-90170000I-1370000J0D01*
G01*
%TO.C,J1*%
X132870000Y-101430000D02*
X102870000Y-101430000D01*
X102870000Y-111930000D02*
X132870000Y-111930000D01*
X102870000Y-101430000D02*
G75*
G03*
X102870000Y-111930000I0J-5250000D01*
G01*
X132870000Y-111930000D02*
G75*
G03*
X132870000Y-101430000I0J5250000D01*
G01*
%TO.C,D1*%
X96540000Y-73935000D02*
X96540000Y-70845000D01*
X96480000Y-72390000D02*
G75*
G03*
X96480000Y-72390000I-2500000J0D01*
G01*
X90990000Y-72390462D02*
G75*
G02*
X96540000Y-70845170I2990000J462D01*
G01*
X90990000Y-72389538D02*
G75*
G03*
X96540000Y-73934830I2990000J-462D01*
G01*
%TO.C,U1*%
D11*
X106342380Y-78231904D02*
X107151904Y-78231904D01*
X107247142Y-78184285D01*
X107294761Y-78136666D01*
X107342380Y-78041428D01*
X107342380Y-77850952D01*
X107294761Y-77755714D01*
X107247142Y-77708095D01*
X107151904Y-77660476D01*
X106342380Y-77660476D01*
X107342380Y-76660476D02*
X107342380Y-77231904D01*
X107342380Y-76946190D02*
X106342380Y-76946190D01*
X106485238Y-77041428D01*
X106580476Y-77136666D01*
X106628095Y-77231904D01*
%TO.C,R2*%
X129373333Y-86982380D02*
X129040000Y-86506190D01*
X128801904Y-86982380D02*
X128801904Y-85982380D01*
X129182857Y-85982380D01*
X129278095Y-86030000D01*
X129325714Y-86077619D01*
X129373333Y-86172857D01*
X129373333Y-86315714D01*
X129325714Y-86410952D01*
X129278095Y-86458571D01*
X129182857Y-86506190D01*
X128801904Y-86506190D01*
X129754285Y-86077619D02*
X129801904Y-86030000D01*
X129897142Y-85982380D01*
X130135238Y-85982380D01*
X130230476Y-86030000D01*
X130278095Y-86077619D01*
X130325714Y-86172857D01*
X130325714Y-86268095D01*
X130278095Y-86410952D01*
X129706666Y-86982380D01*
X130325714Y-86982380D01*
%TO.C,R1*%
X100163333Y-88252380D02*
X99830000Y-87776190D01*
X99591904Y-88252380D02*
X99591904Y-87252380D01*
X99972857Y-87252380D01*
X100068095Y-87300000D01*
X100115714Y-87347619D01*
X100163333Y-87442857D01*
X100163333Y-87585714D01*
X100115714Y-87680952D01*
X100068095Y-87728571D01*
X99972857Y-87776190D01*
X99591904Y-87776190D01*
X101115714Y-88252380D02*
X100544285Y-88252380D01*
X100830000Y-88252380D02*
X100830000Y-87252380D01*
X100734761Y-87395238D01*
X100639523Y-87490476D01*
X100544285Y-87538095D01*
%TO.C,J1*%
X110286666Y-99882380D02*
X110286666Y-100596666D01*
X110239047Y-100739523D01*
X110143809Y-100834761D01*
X110000952Y-100882380D01*
X109905714Y-100882380D01*
X111286666Y-100882380D02*
X110715238Y-100882380D01*
X111000952Y-100882380D02*
X111000952Y-99882380D01*
X110905714Y-100025238D01*
X110810476Y-100120476D01*
X110715238Y-100168095D01*
%TO.C,D1*%
X93241904Y-76802380D02*
X93241904Y-75802380D01*
X93480000Y-75802380D01*
X93622857Y-75850000D01*
X93718095Y-75945238D01*
X93765714Y-76040476D01*
X93813333Y-76230952D01*
X93813333Y-76373809D01*
X93765714Y-76564285D01*
X93718095Y-76659523D01*
X93622857Y-76754761D01*
X93480000Y-76802380D01*
X93241904Y-76802380D01*
X94765714Y-76802380D02*
X94194285Y-76802380D01*
X94480000Y-76802380D02*
X94480000Y-75802380D01*
X94384761Y-75945238D01*
X94289523Y-76040476D01*
X94194285Y-76088095D01*
%TD*%
M02*
