%TF.GenerationSoftware,KiCad,Pcbnew,5.1.6-c6e7f7d~87~ubuntu18.04.1*%
%TF.CreationDate,2020-08-19T22:56:15-04:00*%
%TF.ProjectId,tutorial1,7475746f-7269-4616-9c31-2e6b69636164,rev?*%
%TF.SameCoordinates,Original*%
%TF.FileFunction,Copper,L4,Bot*%
%TF.FilePolarity,Positive*%
%FSLAX46Y46*%
G04 Gerber Fmt 4.6, Leading zero omitted, Abs format (unit mm)*
G04 Created by KiCad (PCBNEW 5.1.6-c6e7f7d~87~ubuntu18.04.1) date 2020-08-19 22:56:15*
%MOMM*%
%LPD*%
G01*
G04 APERTURE LIST*
%TA.AperFunction,ComponentPad*%
%ADD10O,1.600000X1.600000*%
%TD*%
%TA.AperFunction,ComponentPad*%
%ADD11R,1.600000X1.600000*%
%TD*%
%TA.AperFunction,ComponentPad*%
%ADD12C,1.600000*%
%TD*%
%TA.AperFunction,ComponentPad*%
%ADD13C,10.160000*%
%TD*%
%TA.AperFunction,ComponentPad*%
%ADD14C,1.800000*%
%TD*%
%TA.AperFunction,ComponentPad*%
%ADD15R,1.800000X1.800000*%
%TD*%
%TA.AperFunction,Conductor*%
%ADD16C,0.609600*%
%TD*%
%TA.AperFunction,NonConductor*%
%ADD17C,0.254000*%
%TD*%
G04 APERTURE END LIST*
D10*
%TO.P,U1,8*%
%TO.N,GND*%
X109220000Y-73660000D03*
%TO.P,U1,4*%
%TO.N,Net-(U1-Pad4)*%
X116840000Y-81280000D03*
%TO.P,U1,7*%
%TO.N,Net-(D1-Pad1)*%
X111760000Y-73660000D03*
%TO.P,U1,3*%
%TO.N,Net-(U1-Pad3)*%
X114300000Y-81280000D03*
%TO.P,U1,6*%
%TO.N,/INPUT*%
X114300000Y-73660000D03*
%TO.P,U1,2*%
%TO.N,Net-(U1-Pad2)*%
X111760000Y-81280000D03*
%TO.P,U1,5*%
%TO.N,Net-(U1-Pad5)*%
X116840000Y-73660000D03*
D11*
%TO.P,U1,1*%
%TO.N,VCC*%
X109220000Y-81280000D03*
%TD*%
D10*
%TO.P,R2,2*%
%TO.N,Net-(J1-Pad2)*%
X130810000Y-88900000D03*
D12*
%TO.P,R2,1*%
%TO.N,/INPUT*%
X128270000Y-88900000D03*
%TD*%
D10*
%TO.P,R1,2*%
%TO.N,VCC*%
X101600000Y-90170000D03*
D12*
%TO.P,R1,1*%
%TO.N,Net-(D1-Pad2)*%
X99060000Y-90170000D03*
%TD*%
D13*
%TO.P,J1,2*%
%TO.N,Net-(J1-Pad2)*%
X117860000Y-106680000D03*
%TO.P,J1,3*%
%TO.N,GND*%
X132840000Y-106680000D03*
%TO.P,J1,1*%
%TO.N,VCC*%
X102870000Y-106680000D03*
%TD*%
D14*
%TO.P,D1,2*%
%TO.N,Net-(D1-Pad2)*%
X92710000Y-72390000D03*
D15*
%TO.P,D1,1*%
%TO.N,Net-(D1-Pad1)*%
X95250000Y-72390000D03*
%TD*%
D16*
%TO.N,GND*%
X110524801Y-74964801D02*
X109220000Y-73660000D01*
X112455907Y-74964801D02*
X110524801Y-74964801D01*
X132840000Y-95348894D02*
X112455907Y-74964801D01*
X132840000Y-106680000D02*
X132840000Y-95348894D01*
%TD*%
D17*
G36*
X152273000Y-120523000D02*
G01*
X71247000Y-120523000D01*
X71247000Y-106117122D01*
X97155000Y-106117122D01*
X97155000Y-107242878D01*
X97374625Y-108347004D01*
X97805433Y-109387067D01*
X98430870Y-110323100D01*
X99226900Y-111119130D01*
X100162933Y-111744567D01*
X101202996Y-112175375D01*
X102307122Y-112395000D01*
X103432878Y-112395000D01*
X104537004Y-112175375D01*
X105577067Y-111744567D01*
X106513100Y-111119130D01*
X107309130Y-110323100D01*
X107934567Y-109387067D01*
X108365375Y-108347004D01*
X108585000Y-107242878D01*
X108585000Y-106117122D01*
X112145000Y-106117122D01*
X112145000Y-107242878D01*
X112364625Y-108347004D01*
X112795433Y-109387067D01*
X113420870Y-110323100D01*
X114216900Y-111119130D01*
X115152933Y-111744567D01*
X116192996Y-112175375D01*
X117297122Y-112395000D01*
X118422878Y-112395000D01*
X119527004Y-112175375D01*
X120567067Y-111744567D01*
X121503100Y-111119130D01*
X122299130Y-110323100D01*
X122924567Y-109387067D01*
X123355375Y-108347004D01*
X123575000Y-107242878D01*
X123575000Y-106117122D01*
X123355375Y-105012996D01*
X122924567Y-103972933D01*
X122299130Y-103036900D01*
X121503100Y-102240870D01*
X120567067Y-101615433D01*
X119527004Y-101184625D01*
X118422878Y-100965000D01*
X117297122Y-100965000D01*
X116192996Y-101184625D01*
X115152933Y-101615433D01*
X114216900Y-102240870D01*
X113420870Y-103036900D01*
X112795433Y-103972933D01*
X112364625Y-105012996D01*
X112145000Y-106117122D01*
X108585000Y-106117122D01*
X108365375Y-105012996D01*
X107934567Y-103972933D01*
X107309130Y-103036900D01*
X106513100Y-102240870D01*
X105577067Y-101615433D01*
X104537004Y-101184625D01*
X103432878Y-100965000D01*
X102307122Y-100965000D01*
X101202996Y-101184625D01*
X100162933Y-101615433D01*
X99226900Y-102240870D01*
X98430870Y-103036900D01*
X97805433Y-103972933D01*
X97374625Y-105012996D01*
X97155000Y-106117122D01*
X71247000Y-106117122D01*
X71247000Y-90028665D01*
X97625000Y-90028665D01*
X97625000Y-90311335D01*
X97680147Y-90588574D01*
X97788320Y-90849727D01*
X97945363Y-91084759D01*
X98145241Y-91284637D01*
X98380273Y-91441680D01*
X98641426Y-91549853D01*
X98918665Y-91605000D01*
X99201335Y-91605000D01*
X99478574Y-91549853D01*
X99739727Y-91441680D01*
X99974759Y-91284637D01*
X100174637Y-91084759D01*
X100330000Y-90852241D01*
X100485363Y-91084759D01*
X100685241Y-91284637D01*
X100920273Y-91441680D01*
X101181426Y-91549853D01*
X101458665Y-91605000D01*
X101741335Y-91605000D01*
X102018574Y-91549853D01*
X102279727Y-91441680D01*
X102514759Y-91284637D01*
X102714637Y-91084759D01*
X102871680Y-90849727D01*
X102979853Y-90588574D01*
X103035000Y-90311335D01*
X103035000Y-90028665D01*
X102979853Y-89751426D01*
X102871680Y-89490273D01*
X102714637Y-89255241D01*
X102514759Y-89055363D01*
X102279727Y-88898320D01*
X102018574Y-88790147D01*
X101741335Y-88735000D01*
X101458665Y-88735000D01*
X101181426Y-88790147D01*
X100920273Y-88898320D01*
X100685241Y-89055363D01*
X100485363Y-89255241D01*
X100330000Y-89487759D01*
X100174637Y-89255241D01*
X99974759Y-89055363D01*
X99739727Y-88898320D01*
X99478574Y-88790147D01*
X99201335Y-88735000D01*
X98918665Y-88735000D01*
X98641426Y-88790147D01*
X98380273Y-88898320D01*
X98145241Y-89055363D01*
X97945363Y-89255241D01*
X97788320Y-89490273D01*
X97680147Y-89751426D01*
X97625000Y-90028665D01*
X71247000Y-90028665D01*
X71247000Y-80480000D01*
X107781928Y-80480000D01*
X107781928Y-82080000D01*
X107794188Y-82204482D01*
X107830498Y-82324180D01*
X107889463Y-82434494D01*
X107968815Y-82531185D01*
X108065506Y-82610537D01*
X108175820Y-82669502D01*
X108295518Y-82705812D01*
X108420000Y-82718072D01*
X110020000Y-82718072D01*
X110144482Y-82705812D01*
X110264180Y-82669502D01*
X110374494Y-82610537D01*
X110471185Y-82531185D01*
X110550537Y-82434494D01*
X110609502Y-82324180D01*
X110645812Y-82204482D01*
X110646643Y-82196039D01*
X110845241Y-82394637D01*
X111080273Y-82551680D01*
X111341426Y-82659853D01*
X111618665Y-82715000D01*
X111901335Y-82715000D01*
X112178574Y-82659853D01*
X112439727Y-82551680D01*
X112674759Y-82394637D01*
X112874637Y-82194759D01*
X113030000Y-81962241D01*
X113185363Y-82194759D01*
X113385241Y-82394637D01*
X113620273Y-82551680D01*
X113881426Y-82659853D01*
X114158665Y-82715000D01*
X114441335Y-82715000D01*
X114718574Y-82659853D01*
X114979727Y-82551680D01*
X115214759Y-82394637D01*
X115414637Y-82194759D01*
X115570000Y-81962241D01*
X115725363Y-82194759D01*
X115925241Y-82394637D01*
X116160273Y-82551680D01*
X116421426Y-82659853D01*
X116698665Y-82715000D01*
X116981335Y-82715000D01*
X117258574Y-82659853D01*
X117519727Y-82551680D01*
X117754759Y-82394637D01*
X117954637Y-82194759D01*
X118111680Y-81959727D01*
X118114631Y-81952602D01*
X131900201Y-95738173D01*
X131900200Y-101039975D01*
X131172996Y-101184625D01*
X130132933Y-101615433D01*
X129196900Y-102240870D01*
X128400870Y-103036900D01*
X127775433Y-103972933D01*
X127344625Y-105012996D01*
X127125000Y-106117122D01*
X127125000Y-107242878D01*
X127344625Y-108347004D01*
X127775433Y-109387067D01*
X128400870Y-110323100D01*
X129196900Y-111119130D01*
X130132933Y-111744567D01*
X131172996Y-112175375D01*
X132277122Y-112395000D01*
X133402878Y-112395000D01*
X134507004Y-112175375D01*
X135547067Y-111744567D01*
X136483100Y-111119130D01*
X137279130Y-110323100D01*
X137904567Y-109387067D01*
X138335375Y-108347004D01*
X138555000Y-107242878D01*
X138555000Y-106117122D01*
X138335375Y-105012996D01*
X137904567Y-103972933D01*
X137279130Y-103036900D01*
X136483100Y-102240870D01*
X135547067Y-101615433D01*
X134507004Y-101184625D01*
X133779800Y-101039975D01*
X133779800Y-95395051D01*
X133784346Y-95348894D01*
X133779800Y-95302737D01*
X133779800Y-95302727D01*
X133766202Y-95164661D01*
X133712463Y-94987508D01*
X133625196Y-94824242D01*
X133537184Y-94717000D01*
X133537182Y-94716998D01*
X133507754Y-94681140D01*
X133471896Y-94651712D01*
X128974986Y-90154802D01*
X129184759Y-90014637D01*
X129384637Y-89814759D01*
X129540000Y-89582241D01*
X129695363Y-89814759D01*
X129895241Y-90014637D01*
X130130273Y-90171680D01*
X130391426Y-90279853D01*
X130668665Y-90335000D01*
X130951335Y-90335000D01*
X131228574Y-90279853D01*
X131489727Y-90171680D01*
X131724759Y-90014637D01*
X131924637Y-89814759D01*
X132081680Y-89579727D01*
X132189853Y-89318574D01*
X132245000Y-89041335D01*
X132245000Y-88758665D01*
X132189853Y-88481426D01*
X132081680Y-88220273D01*
X131924637Y-87985241D01*
X131724759Y-87785363D01*
X131489727Y-87628320D01*
X131228574Y-87520147D01*
X130951335Y-87465000D01*
X130668665Y-87465000D01*
X130391426Y-87520147D01*
X130130273Y-87628320D01*
X129895241Y-87785363D01*
X129695363Y-87985241D01*
X129540000Y-88217759D01*
X129384637Y-87985241D01*
X129184759Y-87785363D01*
X128949727Y-87628320D01*
X128688574Y-87520147D01*
X128411335Y-87465000D01*
X128128665Y-87465000D01*
X127851426Y-87520147D01*
X127590273Y-87628320D01*
X127355241Y-87785363D01*
X127155363Y-87985241D01*
X127015197Y-88195014D01*
X113844909Y-75024727D01*
X113881426Y-75039853D01*
X114158665Y-75095000D01*
X114441335Y-75095000D01*
X114718574Y-75039853D01*
X114979727Y-74931680D01*
X115214759Y-74774637D01*
X115414637Y-74574759D01*
X115570000Y-74342241D01*
X115725363Y-74574759D01*
X115925241Y-74774637D01*
X116160273Y-74931680D01*
X116421426Y-75039853D01*
X116698665Y-75095000D01*
X116981335Y-75095000D01*
X117258574Y-75039853D01*
X117519727Y-74931680D01*
X117754759Y-74774637D01*
X117954637Y-74574759D01*
X118111680Y-74339727D01*
X118219853Y-74078574D01*
X118275000Y-73801335D01*
X118275000Y-73518665D01*
X118219853Y-73241426D01*
X118111680Y-72980273D01*
X117954637Y-72745241D01*
X117754759Y-72545363D01*
X117519727Y-72388320D01*
X117258574Y-72280147D01*
X116981335Y-72225000D01*
X116698665Y-72225000D01*
X116421426Y-72280147D01*
X116160273Y-72388320D01*
X115925241Y-72545363D01*
X115725363Y-72745241D01*
X115570000Y-72977759D01*
X115414637Y-72745241D01*
X115214759Y-72545363D01*
X114979727Y-72388320D01*
X114718574Y-72280147D01*
X114441335Y-72225000D01*
X114158665Y-72225000D01*
X113881426Y-72280147D01*
X113620273Y-72388320D01*
X113385241Y-72545363D01*
X113185363Y-72745241D01*
X113030000Y-72977759D01*
X112874637Y-72745241D01*
X112674759Y-72545363D01*
X112439727Y-72388320D01*
X112178574Y-72280147D01*
X111901335Y-72225000D01*
X111618665Y-72225000D01*
X111341426Y-72280147D01*
X111080273Y-72388320D01*
X110845241Y-72545363D01*
X110645363Y-72745241D01*
X110490000Y-72977759D01*
X110334637Y-72745241D01*
X110134759Y-72545363D01*
X109899727Y-72388320D01*
X109638574Y-72280147D01*
X109361335Y-72225000D01*
X109078665Y-72225000D01*
X108801426Y-72280147D01*
X108540273Y-72388320D01*
X108305241Y-72545363D01*
X108105363Y-72745241D01*
X107948320Y-72980273D01*
X107840147Y-73241426D01*
X107785000Y-73518665D01*
X107785000Y-73801335D01*
X107840147Y-74078574D01*
X107948320Y-74339727D01*
X108105363Y-74574759D01*
X108305241Y-74774637D01*
X108540273Y-74931680D01*
X108801426Y-75039853D01*
X109078665Y-75095000D01*
X109325923Y-75095000D01*
X109827619Y-75596696D01*
X109857047Y-75632555D01*
X110000150Y-75749997D01*
X110163415Y-75837264D01*
X110340568Y-75891003D01*
X110478634Y-75904601D01*
X110478643Y-75904601D01*
X110524800Y-75909147D01*
X110570957Y-75904601D01*
X112066631Y-75904601D01*
X116167398Y-80005369D01*
X116160273Y-80008320D01*
X115925241Y-80165363D01*
X115725363Y-80365241D01*
X115570000Y-80597759D01*
X115414637Y-80365241D01*
X115214759Y-80165363D01*
X114979727Y-80008320D01*
X114718574Y-79900147D01*
X114441335Y-79845000D01*
X114158665Y-79845000D01*
X113881426Y-79900147D01*
X113620273Y-80008320D01*
X113385241Y-80165363D01*
X113185363Y-80365241D01*
X113030000Y-80597759D01*
X112874637Y-80365241D01*
X112674759Y-80165363D01*
X112439727Y-80008320D01*
X112178574Y-79900147D01*
X111901335Y-79845000D01*
X111618665Y-79845000D01*
X111341426Y-79900147D01*
X111080273Y-80008320D01*
X110845241Y-80165363D01*
X110646643Y-80363961D01*
X110645812Y-80355518D01*
X110609502Y-80235820D01*
X110550537Y-80125506D01*
X110471185Y-80028815D01*
X110374494Y-79949463D01*
X110264180Y-79890498D01*
X110144482Y-79854188D01*
X110020000Y-79841928D01*
X108420000Y-79841928D01*
X108295518Y-79854188D01*
X108175820Y-79890498D01*
X108065506Y-79949463D01*
X107968815Y-80028815D01*
X107889463Y-80125506D01*
X107830498Y-80235820D01*
X107794188Y-80355518D01*
X107781928Y-80480000D01*
X71247000Y-80480000D01*
X71247000Y-72238816D01*
X91175000Y-72238816D01*
X91175000Y-72541184D01*
X91233989Y-72837743D01*
X91349701Y-73117095D01*
X91517688Y-73368505D01*
X91731495Y-73582312D01*
X91982905Y-73750299D01*
X92262257Y-73866011D01*
X92558816Y-73925000D01*
X92861184Y-73925000D01*
X93157743Y-73866011D01*
X93437095Y-73750299D01*
X93688505Y-73582312D01*
X93754944Y-73515873D01*
X93760498Y-73534180D01*
X93819463Y-73644494D01*
X93898815Y-73741185D01*
X93995506Y-73820537D01*
X94105820Y-73879502D01*
X94225518Y-73915812D01*
X94350000Y-73928072D01*
X96150000Y-73928072D01*
X96274482Y-73915812D01*
X96394180Y-73879502D01*
X96504494Y-73820537D01*
X96601185Y-73741185D01*
X96680537Y-73644494D01*
X96739502Y-73534180D01*
X96775812Y-73414482D01*
X96788072Y-73290000D01*
X96788072Y-71490000D01*
X96775812Y-71365518D01*
X96739502Y-71245820D01*
X96680537Y-71135506D01*
X96601185Y-71038815D01*
X96504494Y-70959463D01*
X96394180Y-70900498D01*
X96274482Y-70864188D01*
X96150000Y-70851928D01*
X94350000Y-70851928D01*
X94225518Y-70864188D01*
X94105820Y-70900498D01*
X93995506Y-70959463D01*
X93898815Y-71038815D01*
X93819463Y-71135506D01*
X93760498Y-71245820D01*
X93754944Y-71264127D01*
X93688505Y-71197688D01*
X93437095Y-71029701D01*
X93157743Y-70913989D01*
X92861184Y-70855000D01*
X92558816Y-70855000D01*
X92262257Y-70913989D01*
X91982905Y-71029701D01*
X91731495Y-71197688D01*
X91517688Y-71411495D01*
X91349701Y-71662905D01*
X91233989Y-71942257D01*
X91175000Y-72238816D01*
X71247000Y-72238816D01*
X71247000Y-62357000D01*
X152273000Y-62357000D01*
X152273000Y-120523000D01*
G37*
X152273000Y-120523000D02*
X71247000Y-120523000D01*
X71247000Y-106117122D01*
X97155000Y-106117122D01*
X97155000Y-107242878D01*
X97374625Y-108347004D01*
X97805433Y-109387067D01*
X98430870Y-110323100D01*
X99226900Y-111119130D01*
X100162933Y-111744567D01*
X101202996Y-112175375D01*
X102307122Y-112395000D01*
X103432878Y-112395000D01*
X104537004Y-112175375D01*
X105577067Y-111744567D01*
X106513100Y-111119130D01*
X107309130Y-110323100D01*
X107934567Y-109387067D01*
X108365375Y-108347004D01*
X108585000Y-107242878D01*
X108585000Y-106117122D01*
X112145000Y-106117122D01*
X112145000Y-107242878D01*
X112364625Y-108347004D01*
X112795433Y-109387067D01*
X113420870Y-110323100D01*
X114216900Y-111119130D01*
X115152933Y-111744567D01*
X116192996Y-112175375D01*
X117297122Y-112395000D01*
X118422878Y-112395000D01*
X119527004Y-112175375D01*
X120567067Y-111744567D01*
X121503100Y-111119130D01*
X122299130Y-110323100D01*
X122924567Y-109387067D01*
X123355375Y-108347004D01*
X123575000Y-107242878D01*
X123575000Y-106117122D01*
X123355375Y-105012996D01*
X122924567Y-103972933D01*
X122299130Y-103036900D01*
X121503100Y-102240870D01*
X120567067Y-101615433D01*
X119527004Y-101184625D01*
X118422878Y-100965000D01*
X117297122Y-100965000D01*
X116192996Y-101184625D01*
X115152933Y-101615433D01*
X114216900Y-102240870D01*
X113420870Y-103036900D01*
X112795433Y-103972933D01*
X112364625Y-105012996D01*
X112145000Y-106117122D01*
X108585000Y-106117122D01*
X108365375Y-105012996D01*
X107934567Y-103972933D01*
X107309130Y-103036900D01*
X106513100Y-102240870D01*
X105577067Y-101615433D01*
X104537004Y-101184625D01*
X103432878Y-100965000D01*
X102307122Y-100965000D01*
X101202996Y-101184625D01*
X100162933Y-101615433D01*
X99226900Y-102240870D01*
X98430870Y-103036900D01*
X97805433Y-103972933D01*
X97374625Y-105012996D01*
X97155000Y-106117122D01*
X71247000Y-106117122D01*
X71247000Y-90028665D01*
X97625000Y-90028665D01*
X97625000Y-90311335D01*
X97680147Y-90588574D01*
X97788320Y-90849727D01*
X97945363Y-91084759D01*
X98145241Y-91284637D01*
X98380273Y-91441680D01*
X98641426Y-91549853D01*
X98918665Y-91605000D01*
X99201335Y-91605000D01*
X99478574Y-91549853D01*
X99739727Y-91441680D01*
X99974759Y-91284637D01*
X100174637Y-91084759D01*
X100330000Y-90852241D01*
X100485363Y-91084759D01*
X100685241Y-91284637D01*
X100920273Y-91441680D01*
X101181426Y-91549853D01*
X101458665Y-91605000D01*
X101741335Y-91605000D01*
X102018574Y-91549853D01*
X102279727Y-91441680D01*
X102514759Y-91284637D01*
X102714637Y-91084759D01*
X102871680Y-90849727D01*
X102979853Y-90588574D01*
X103035000Y-90311335D01*
X103035000Y-90028665D01*
X102979853Y-89751426D01*
X102871680Y-89490273D01*
X102714637Y-89255241D01*
X102514759Y-89055363D01*
X102279727Y-88898320D01*
X102018574Y-88790147D01*
X101741335Y-88735000D01*
X101458665Y-88735000D01*
X101181426Y-88790147D01*
X100920273Y-88898320D01*
X100685241Y-89055363D01*
X100485363Y-89255241D01*
X100330000Y-89487759D01*
X100174637Y-89255241D01*
X99974759Y-89055363D01*
X99739727Y-88898320D01*
X99478574Y-88790147D01*
X99201335Y-88735000D01*
X98918665Y-88735000D01*
X98641426Y-88790147D01*
X98380273Y-88898320D01*
X98145241Y-89055363D01*
X97945363Y-89255241D01*
X97788320Y-89490273D01*
X97680147Y-89751426D01*
X97625000Y-90028665D01*
X71247000Y-90028665D01*
X71247000Y-80480000D01*
X107781928Y-80480000D01*
X107781928Y-82080000D01*
X107794188Y-82204482D01*
X107830498Y-82324180D01*
X107889463Y-82434494D01*
X107968815Y-82531185D01*
X108065506Y-82610537D01*
X108175820Y-82669502D01*
X108295518Y-82705812D01*
X108420000Y-82718072D01*
X110020000Y-82718072D01*
X110144482Y-82705812D01*
X110264180Y-82669502D01*
X110374494Y-82610537D01*
X110471185Y-82531185D01*
X110550537Y-82434494D01*
X110609502Y-82324180D01*
X110645812Y-82204482D01*
X110646643Y-82196039D01*
X110845241Y-82394637D01*
X111080273Y-82551680D01*
X111341426Y-82659853D01*
X111618665Y-82715000D01*
X111901335Y-82715000D01*
X112178574Y-82659853D01*
X112439727Y-82551680D01*
X112674759Y-82394637D01*
X112874637Y-82194759D01*
X113030000Y-81962241D01*
X113185363Y-82194759D01*
X113385241Y-82394637D01*
X113620273Y-82551680D01*
X113881426Y-82659853D01*
X114158665Y-82715000D01*
X114441335Y-82715000D01*
X114718574Y-82659853D01*
X114979727Y-82551680D01*
X115214759Y-82394637D01*
X115414637Y-82194759D01*
X115570000Y-81962241D01*
X115725363Y-82194759D01*
X115925241Y-82394637D01*
X116160273Y-82551680D01*
X116421426Y-82659853D01*
X116698665Y-82715000D01*
X116981335Y-82715000D01*
X117258574Y-82659853D01*
X117519727Y-82551680D01*
X117754759Y-82394637D01*
X117954637Y-82194759D01*
X118111680Y-81959727D01*
X118114631Y-81952602D01*
X131900201Y-95738173D01*
X131900200Y-101039975D01*
X131172996Y-101184625D01*
X130132933Y-101615433D01*
X129196900Y-102240870D01*
X128400870Y-103036900D01*
X127775433Y-103972933D01*
X127344625Y-105012996D01*
X127125000Y-106117122D01*
X127125000Y-107242878D01*
X127344625Y-108347004D01*
X127775433Y-109387067D01*
X128400870Y-110323100D01*
X129196900Y-111119130D01*
X130132933Y-111744567D01*
X131172996Y-112175375D01*
X132277122Y-112395000D01*
X133402878Y-112395000D01*
X134507004Y-112175375D01*
X135547067Y-111744567D01*
X136483100Y-111119130D01*
X137279130Y-110323100D01*
X137904567Y-109387067D01*
X138335375Y-108347004D01*
X138555000Y-107242878D01*
X138555000Y-106117122D01*
X138335375Y-105012996D01*
X137904567Y-103972933D01*
X137279130Y-103036900D01*
X136483100Y-102240870D01*
X135547067Y-101615433D01*
X134507004Y-101184625D01*
X133779800Y-101039975D01*
X133779800Y-95395051D01*
X133784346Y-95348894D01*
X133779800Y-95302737D01*
X133779800Y-95302727D01*
X133766202Y-95164661D01*
X133712463Y-94987508D01*
X133625196Y-94824242D01*
X133537184Y-94717000D01*
X133537182Y-94716998D01*
X133507754Y-94681140D01*
X133471896Y-94651712D01*
X128974986Y-90154802D01*
X129184759Y-90014637D01*
X129384637Y-89814759D01*
X129540000Y-89582241D01*
X129695363Y-89814759D01*
X129895241Y-90014637D01*
X130130273Y-90171680D01*
X130391426Y-90279853D01*
X130668665Y-90335000D01*
X130951335Y-90335000D01*
X131228574Y-90279853D01*
X131489727Y-90171680D01*
X131724759Y-90014637D01*
X131924637Y-89814759D01*
X132081680Y-89579727D01*
X132189853Y-89318574D01*
X132245000Y-89041335D01*
X132245000Y-88758665D01*
X132189853Y-88481426D01*
X132081680Y-88220273D01*
X131924637Y-87985241D01*
X131724759Y-87785363D01*
X131489727Y-87628320D01*
X131228574Y-87520147D01*
X130951335Y-87465000D01*
X130668665Y-87465000D01*
X130391426Y-87520147D01*
X130130273Y-87628320D01*
X129895241Y-87785363D01*
X129695363Y-87985241D01*
X129540000Y-88217759D01*
X129384637Y-87985241D01*
X129184759Y-87785363D01*
X128949727Y-87628320D01*
X128688574Y-87520147D01*
X128411335Y-87465000D01*
X128128665Y-87465000D01*
X127851426Y-87520147D01*
X127590273Y-87628320D01*
X127355241Y-87785363D01*
X127155363Y-87985241D01*
X127015197Y-88195014D01*
X113844909Y-75024727D01*
X113881426Y-75039853D01*
X114158665Y-75095000D01*
X114441335Y-75095000D01*
X114718574Y-75039853D01*
X114979727Y-74931680D01*
X115214759Y-74774637D01*
X115414637Y-74574759D01*
X115570000Y-74342241D01*
X115725363Y-74574759D01*
X115925241Y-74774637D01*
X116160273Y-74931680D01*
X116421426Y-75039853D01*
X116698665Y-75095000D01*
X116981335Y-75095000D01*
X117258574Y-75039853D01*
X117519727Y-74931680D01*
X117754759Y-74774637D01*
X117954637Y-74574759D01*
X118111680Y-74339727D01*
X118219853Y-74078574D01*
X118275000Y-73801335D01*
X118275000Y-73518665D01*
X118219853Y-73241426D01*
X118111680Y-72980273D01*
X117954637Y-72745241D01*
X117754759Y-72545363D01*
X117519727Y-72388320D01*
X117258574Y-72280147D01*
X116981335Y-72225000D01*
X116698665Y-72225000D01*
X116421426Y-72280147D01*
X116160273Y-72388320D01*
X115925241Y-72545363D01*
X115725363Y-72745241D01*
X115570000Y-72977759D01*
X115414637Y-72745241D01*
X115214759Y-72545363D01*
X114979727Y-72388320D01*
X114718574Y-72280147D01*
X114441335Y-72225000D01*
X114158665Y-72225000D01*
X113881426Y-72280147D01*
X113620273Y-72388320D01*
X113385241Y-72545363D01*
X113185363Y-72745241D01*
X113030000Y-72977759D01*
X112874637Y-72745241D01*
X112674759Y-72545363D01*
X112439727Y-72388320D01*
X112178574Y-72280147D01*
X111901335Y-72225000D01*
X111618665Y-72225000D01*
X111341426Y-72280147D01*
X111080273Y-72388320D01*
X110845241Y-72545363D01*
X110645363Y-72745241D01*
X110490000Y-72977759D01*
X110334637Y-72745241D01*
X110134759Y-72545363D01*
X109899727Y-72388320D01*
X109638574Y-72280147D01*
X109361335Y-72225000D01*
X109078665Y-72225000D01*
X108801426Y-72280147D01*
X108540273Y-72388320D01*
X108305241Y-72545363D01*
X108105363Y-72745241D01*
X107948320Y-72980273D01*
X107840147Y-73241426D01*
X107785000Y-73518665D01*
X107785000Y-73801335D01*
X107840147Y-74078574D01*
X107948320Y-74339727D01*
X108105363Y-74574759D01*
X108305241Y-74774637D01*
X108540273Y-74931680D01*
X108801426Y-75039853D01*
X109078665Y-75095000D01*
X109325923Y-75095000D01*
X109827619Y-75596696D01*
X109857047Y-75632555D01*
X110000150Y-75749997D01*
X110163415Y-75837264D01*
X110340568Y-75891003D01*
X110478634Y-75904601D01*
X110478643Y-75904601D01*
X110524800Y-75909147D01*
X110570957Y-75904601D01*
X112066631Y-75904601D01*
X116167398Y-80005369D01*
X116160273Y-80008320D01*
X115925241Y-80165363D01*
X115725363Y-80365241D01*
X115570000Y-80597759D01*
X115414637Y-80365241D01*
X115214759Y-80165363D01*
X114979727Y-80008320D01*
X114718574Y-79900147D01*
X114441335Y-79845000D01*
X114158665Y-79845000D01*
X113881426Y-79900147D01*
X113620273Y-80008320D01*
X113385241Y-80165363D01*
X113185363Y-80365241D01*
X113030000Y-80597759D01*
X112874637Y-80365241D01*
X112674759Y-80165363D01*
X112439727Y-80008320D01*
X112178574Y-79900147D01*
X111901335Y-79845000D01*
X111618665Y-79845000D01*
X111341426Y-79900147D01*
X111080273Y-80008320D01*
X110845241Y-80165363D01*
X110646643Y-80363961D01*
X110645812Y-80355518D01*
X110609502Y-80235820D01*
X110550537Y-80125506D01*
X110471185Y-80028815D01*
X110374494Y-79949463D01*
X110264180Y-79890498D01*
X110144482Y-79854188D01*
X110020000Y-79841928D01*
X108420000Y-79841928D01*
X108295518Y-79854188D01*
X108175820Y-79890498D01*
X108065506Y-79949463D01*
X107968815Y-80028815D01*
X107889463Y-80125506D01*
X107830498Y-80235820D01*
X107794188Y-80355518D01*
X107781928Y-80480000D01*
X71247000Y-80480000D01*
X71247000Y-72238816D01*
X91175000Y-72238816D01*
X91175000Y-72541184D01*
X91233989Y-72837743D01*
X91349701Y-73117095D01*
X91517688Y-73368505D01*
X91731495Y-73582312D01*
X91982905Y-73750299D01*
X92262257Y-73866011D01*
X92558816Y-73925000D01*
X92861184Y-73925000D01*
X93157743Y-73866011D01*
X93437095Y-73750299D01*
X93688505Y-73582312D01*
X93754944Y-73515873D01*
X93760498Y-73534180D01*
X93819463Y-73644494D01*
X93898815Y-73741185D01*
X93995506Y-73820537D01*
X94105820Y-73879502D01*
X94225518Y-73915812D01*
X94350000Y-73928072D01*
X96150000Y-73928072D01*
X96274482Y-73915812D01*
X96394180Y-73879502D01*
X96504494Y-73820537D01*
X96601185Y-73741185D01*
X96680537Y-73644494D01*
X96739502Y-73534180D01*
X96775812Y-73414482D01*
X96788072Y-73290000D01*
X96788072Y-71490000D01*
X96775812Y-71365518D01*
X96739502Y-71245820D01*
X96680537Y-71135506D01*
X96601185Y-71038815D01*
X96504494Y-70959463D01*
X96394180Y-70900498D01*
X96274482Y-70864188D01*
X96150000Y-70851928D01*
X94350000Y-70851928D01*
X94225518Y-70864188D01*
X94105820Y-70900498D01*
X93995506Y-70959463D01*
X93898815Y-71038815D01*
X93819463Y-71135506D01*
X93760498Y-71245820D01*
X93754944Y-71264127D01*
X93688505Y-71197688D01*
X93437095Y-71029701D01*
X93157743Y-70913989D01*
X92861184Y-70855000D01*
X92558816Y-70855000D01*
X92262257Y-70913989D01*
X91982905Y-71029701D01*
X91731495Y-71197688D01*
X91517688Y-71411495D01*
X91349701Y-71662905D01*
X91233989Y-71942257D01*
X91175000Y-72238816D01*
X71247000Y-72238816D01*
X71247000Y-62357000D01*
X152273000Y-62357000D01*
X152273000Y-120523000D01*
M02*
